<?xml version="1.0" encoding="utf-8"?>
<!-- Generator: Adobe Illustrator 19.0.0, SVG Export Plug-In . SVG Version: 6.00 Build 0)  -->
<svg version="1.1" xmlns="http://www.w3.org/2000/svg" xmlns:xlink="http://www.w3.org/1999/xlink" x="0px" y="0px"
	 viewBox="0 0 500 371.3" style="enable-background:new 0 0 500 371.3;" xml:space="preserve">
<style type="text/css">
	.st0{fill:#FFFFFF;}
	.st1{fill:#ADDFFF;}
	.st2{fill:#374953;}
	.st3{fill:#E2413E;}
	.st4{fill:#FFD800;}
	.st5{fill:#00AC65;}
	.st6{fill:#A4C639;}
	.st7{fill:none;}
	.st8{font-family:'MyriadPro-Regular';}
	.st9{font-size:40px;}
</style>
<g id="Background">
	<rect y="-19" class="st0" width="500" height="500"/>
</g>
<g id="Objects">
	<g>
		<path class="st1" d="M250,71.9L250,71.9c-76.9,0-139.2,62.3-139.2,139.2v51.4h278.3v-51.4C389.2,134.2,326.9,71.9,250,71.9z"/>
		<g>
			<g>
				<g>
					<path class="st2" d="M260.2,265.7H96c-0.9,0-1.6-0.7-1.6-1.6c0-0.9,0.7-1.6,1.6-1.6h164.2c0.9,0,1.6,0.7,1.6,1.6
						C261.8,265,261.1,265.7,260.2,265.7z"/>
				</g>
			</g>
			<g>
				<g>
					<path class="st2" d="M280.3,265.7h-8.9c-0.9,0-1.6-0.7-1.6-1.6c0-0.9,0.7-1.6,1.6-1.6h8.9c0.9,0,1.6,0.7,1.6,1.6
						C281.9,265,281.2,265.7,280.3,265.7z"/>
				</g>
			</g>
			<g>
				<g>
					<path class="st2" d="M351.9,265.7h-65.5c-0.9,0-1.6-0.7-1.6-1.6c0-0.9,0.7-1.6,1.6-1.6h65.5c0.9,0,1.6,0.7,1.6,1.6
						C353.5,265,352.8,265.7,351.9,265.7z"/>
				</g>
			</g>
			<g>
				<g>
					<path class="st2" d="M401.7,265.7h-44.3c-0.9,0-1.6-0.7-1.6-1.6c0-0.9,0.7-1.6,1.6-1.6h44.3c0.9,0,1.6,0.7,1.6,1.6
						C403.4,265,402.6,265.7,401.7,265.7z"/>
				</g>
			</g>
		</g>
		<g>
			<g>
				<path class="st2" d="M103.8,364.8c-0.4,0-0.7-0.1-1.1-0.4c-0.7-0.6-0.8-1.6-0.2-2.3l84.3-99.1c0.6-0.7,1.6-0.8,2.3-0.2
					c0.7,0.6,0.8,1.6,0.2,2.3l-84.3,99.1C104.7,364.6,104.3,364.8,103.8,364.8z"/>
			</g>
			<g>
				<path class="st2" d="M396.5,364.8c-0.5,0-0.9-0.2-1.2-0.6l-84.3-99.1c-0.6-0.7-0.5-1.7,0.2-2.3c0.7-0.6,1.7-0.5,2.3,0.2
					l84.3,99.1c0.6,0.7,0.5,1.7-0.2,2.3C397.2,364.7,396.9,364.8,396.5,364.8z"/>
			</g>
		</g>
		<g>
			<rect x="211.1" y="199.2" class="st0" width="13.9" height="64.9"/>
			<rect x="274.9" y="199.2" class="st0" width="13.9" height="64.9"/>
			<g>
				<g>
					<path class="st2" d="M226.5,265.7h-15.9v-77.2h15.9V265.7z M213.8,262.5h9.4v-70.8h-9.4V262.5z"/>
				</g>
				<g>
					<path class="st2" d="M289.7,265.7h-15.9v-77.2h15.9V265.7z M277.1,262.5h9.4v-70.8h-9.4V262.5z"/>
				</g>
			</g>
			<g>
				<g>
					<rect x="203.3" y="184.9" class="st0" width="93.8" height="23.3"/>
				</g>
				<g>
					<g>
						<polygon class="st3" points="253.8,184.9 236.4,184.9 213.1,208.2 230.5,208.2 						"/>
					</g>
					<g>
						<polygon class="st3" points="219,184.9 203.3,184.9 203.3,200.7 						"/>
					</g>
					<g>
						<polygon class="st3" points="288.6,184.9 271.2,184.9 247.9,208.2 265.3,208.2 						"/>
					</g>
					<g>
						<polygon class="st3" points="297.1,193.9 282.7,208.2 297.1,208.2 						"/>
					</g>
				</g>
				<g>
					<path class="st2" d="M297.1,209.8h-93.8c-0.9,0-1.6-0.7-1.6-1.6v-23.3c0-0.9,0.7-1.6,1.6-1.6h93.8c0.9,0,1.6,0.7,1.6,1.6v23.3
						C298.7,209.1,298,209.8,297.1,209.8z M204.9,206.6h90.6v-20h-90.6V206.6z"/>
				</g>
			</g>
			<g>
				<g>
					<rect x="203.3" y="219.2" class="st0" width="93.8" height="23.3"/>
				</g>
				<g>
					<g>
						<polygon class="st3" points="253.8,219.2 236.4,219.2 213.1,242.4 230.5,242.4 						"/>
					</g>
					<g>
						<polygon class="st3" points="219,219.2 203.3,219.2 203.3,234.9 						"/>
					</g>
					<g>
						<polygon class="st3" points="288.6,219.2 271.2,219.2 247.9,242.4 265.3,242.4 						"/>
					</g>
					<g>
						<polygon class="st3" points="297.1,228.1 282.7,242.4 297.1,242.4 						"/>
					</g>
				</g>
				<g>
					<path class="st2" d="M297.1,244h-93.8c-0.9,0-1.6-0.7-1.6-1.6v-23.3c0-0.9,0.7-1.6,1.6-1.6h93.8c0.9,0,1.6,0.7,1.6,1.6v23.3
						C298.7,243.3,298,244,297.1,244z M204.9,240.8h90.6v-20h-90.6V240.8z"/>
				</g>
			</g>
			<g>
				<g>
					<path class="st4" d="M223.4,210l23.9-41.3c1.3-2.2,4.5-2.2,5.8,0l23.9,41.3c1.3,2.2-0.3,5-2.9,5h-47.7
						C223.7,215,222.1,212.2,223.4,210z"/>
					<path class="st2" d="M274,216.6h-47.7c-1.8,0-3.4-0.9-4.3-2.5c-0.9-1.6-0.9-3.4,0-5l23.9-41.3c0.9-1.6,2.5-2.5,4.3-2.5
						c1.8,0,3.4,0.9,4.3,2.5l23.9,41.3c0.9,1.6,0.9,3.4,0,5C277.4,215.7,275.8,216.6,274,216.6z M250.2,168.6c-0.3,0-1,0.1-1.5,0.9
						l-23.9,41.3c-0.5,0.8-0.1,1.5,0,1.7c0.1,0.3,0.6,0.9,1.5,0.9H274c0.9,0,1.3-0.6,1.5-0.9c0.1-0.3,0.5-0.9,0-1.7l-23.9-41.3
						C251.2,168.7,250.5,168.6,250.2,168.6z"/>
				</g>
				<g>
					<g>
						<path class="st2" d="M253.4,197.8H247l-0.8-14.3c-0.1-2.3,1.7-4.2,4-4.2l0,0c2.3,0,4.1,1.9,4,4.2L253.4,197.8z M246.1,204.7
							c0-1.2,0.4-2.1,1.1-2.8c0.7-0.7,1.7-1,3.1-1c1.3,0,2.3,0.3,3,1c0.7,0.7,1,1.6,1,2.8c0,1.2-0.4,2.1-1.1,2.8c-0.7,0.7-1.7,1-3,1
							c-1.3,0-2.3-0.3-3-1C246.4,206.8,246.1,205.9,246.1,204.7z"/>
					</g>
				</g>
			</g>
		</g>
		<g>
			<g>
				<path class="st5" d="M95.7,243.3c0.6,0,1.2,0.1,1.8,0.2c1.7-7.5,8.4-13,16.4-13c6.9,0,12.8,4.1,15.4,10c1.1-0.3,2.2-0.5,3.4-0.5
					c6.6,0,12,5.4,12,12s-5.4,12-12,12h-37c-5.7,0-10.4-4.6-10.4-10.4C85.3,248,89.9,243.3,95.7,243.3z"/>
				<path class="st2" d="M132.7,265.7h-37c-6.6,0-12-5.4-12-12c0-6.6,5.4-12,12-12c0.2,0,0.4,0,0.6,0c2.4-7.7,9.4-12.9,17.6-12.9
					c6.8,0,13.1,3.8,16.3,9.8c0.8-0.2,1.7-0.2,2.6-0.2c7.5,0,13.7,6.1,13.7,13.7C146.3,259.6,140.2,265.7,132.7,265.7z M95.7,245
					c-4.8,0-8.7,3.9-8.7,8.7c0,4.8,3.9,8.7,8.7,8.7h37c5.7,0,10.4-4.7,10.4-10.4c0-5.7-4.7-10.4-10.4-10.4c-1,0-2,0.1-3,0.4
					c-0.8,0.2-1.6-0.2-2-0.9c-2.4-5.5-7.9-9.1-13.9-9.1c-7.1,0-13.2,4.8-14.8,11.8c-0.2,0.8-1,1.4-1.9,1.2
					C96.6,245,96.1,245,95.7,245z"/>
			</g>
			<g>
				<path class="st6" d="M167.1,190.7c0-6.9-3.5-12.9-8.9-16.4c1.9-3.1,3.1-6.7,3.1-10.6c0-8.1-4.9-15.1-11.9-18.1
					c1.2-2.6,1.9-5.5,1.9-8.5c0-10.9-8.8-19.7-19.7-19.7c-10.9,0-19.7,8.8-19.7,19.7c0,2.5,0.5,4.9,1.3,7.1
					c-9.5,1.4-16.8,9.6-16.8,19.5c0,5.2,2,10,5.4,13.5c-3.3,3.5-5.4,8.3-5.4,13.5c0,10.3,7.9,18.7,17.9,19.6
					c3.4,6,9.8,10.1,17.2,10.1c7.4,0,13.8-4.1,17.2-10.1C159.1,209.6,167.1,201.1,167.1,190.7z"/>
				<path class="st2" d="M131.7,222c-7.4,0-14.3-3.9-18.2-10.2c-10.6-1.4-18.6-10.3-18.6-21.1c0-5,1.7-9.7,4.8-13.5
					c-3.1-3.8-4.8-8.5-4.8-13.5c0-9.8,6.9-18.4,16.3-20.7c-0.6-1.9-0.8-3.9-0.8-5.9c0-11.8,9.6-21.3,21.3-21.3s21.3,9.6,21.3,21.3
					c0,2.7-0.5,5.3-1.4,7.7c7,3.7,11.4,10.9,11.4,18.9c0,3.5-0.9,7-2.5,10.1c5.2,4,8.3,10.2,8.3,16.9c0,10.8-8.2,20-18.9,21.2
					C146,218.1,139.1,222,131.7,222z M131.7,119c-10,0-18.1,8.1-18.1,18.1c0,2.2,0.4,4.4,1.2,6.5c0.2,0.5,0.1,1-0.1,1.4
					c-0.2,0.4-0.7,0.7-1.2,0.8c-8.8,1.3-15.4,9-15.4,17.9c0,4.6,1.7,9,4.9,12.4c0.6,0.6,0.6,1.6,0,2.2c-3.2,3.4-4.9,7.8-4.9,12.4
					c0,9.4,7.1,17.2,16.4,18c0.5,0,1,0.4,1.3,0.8c3.2,5.7,9.2,9.3,15.8,9.3c6.5,0,12.6-3.5,15.8-9.2c0.3-0.5,0.8-0.8,1.3-0.8
					c9.4-0.7,16.7-8.6,16.7-18c0-6.1-3-11.7-8.1-15.1c-0.7-0.5-1-1.5-0.5-2.2c1.8-2.9,2.8-6.3,2.8-9.7c0-7.2-4.3-13.7-10.9-16.6
					c-0.4-0.2-0.7-0.5-0.9-0.9c-0.2-0.4-0.1-0.9,0.1-1.3c1.2-2.4,1.8-5.1,1.8-7.8C149.8,127.1,141.7,119,131.7,119z"/>
			</g>
			<g>
				<path class="st2" d="M131.9,245.3c-0.9,0-1.6-0.7-1.6-1.6V140.9c0-0.9,0.7-1.6,1.6-1.6c0.9,0,1.6,0.7,1.6,1.6v102.7
					C133.5,244.6,132.8,245.3,131.9,245.3z"/>
			</g>
			<g>
				<path class="st2" d="M131.9,167.3c-0.4,0-0.8-0.2-1.1-0.5l-11.2-11.2c-0.6-0.6-0.6-1.7,0-2.3c0.6-0.6,1.7-0.6,2.3,0l11.2,11.2
					c0.6,0.6,0.6,1.7,0,2.3C132.7,167.2,132.3,167.3,131.9,167.3z"/>
			</g>
			<g>
				<path class="st2" d="M131.9,186.8c-0.4,0-0.8-0.2-1.1-0.5c-0.6-0.6-0.6-1.7,0-2.3l15.5-15.5c0.6-0.6,1.7-0.6,2.3,0
					c0.6,0.6,0.6,1.7,0,2.3L133,186.3C132.7,186.7,132.3,186.8,131.9,186.8z"/>
			</g>
			<g>
				<path class="st2" d="M131.9,209.2c-0.4,0-0.8-0.2-1.1-0.5l-19.9-19.9c-0.6-0.6-0.6-1.7,0-2.3c0.6-0.6,1.7-0.6,2.3,0l19.9,19.9
					c0.6,0.6,0.6,1.7,0,2.3C132.7,209,132.3,209.2,131.9,209.2z"/>
			</g>
			<g>
				<path class="st6" d="M170.7,240.5c-0.7,0-1.4,0.1-2,0.2c-1.9-8.5-9.5-14.8-18.6-14.8c-7.8,0-14.5,4.7-17.5,11.4
					c-1.2-0.4-2.6-0.6-3.9-0.6c-7.6,0-13.7,6.1-13.7,13.7s6.1,13.7,13.7,13.7h42c6.5,0,11.8-5.3,11.8-11.8
					C182.5,245.8,177.2,240.5,170.7,240.5z"/>
				<path class="st2" d="M170.7,265.7h-42c-8.4,0-15.3-6.9-15.3-15.3c0-8.4,6.9-15.3,15.3-15.3c1,0,2,0.1,3,0.3
					c3.6-6.8,10.6-11.1,18.4-11.1c9.2,0,17.2,6,19.8,14.6c0.3,0,0.5,0,0.8,0c7.4,0,13.4,6,13.4,13.4
					C184.1,259.7,178.1,265.7,170.7,265.7z M128.7,238.4c-6.6,0-12,5.4-12,12c0,6.6,5.4,12,12,12h42c5.6,0,10.2-4.6,10.2-10.2
					c0-5.6-4.6-10.2-10.2-10.2c-0.5,0-1.1,0.1-1.7,0.2c-0.9,0.1-1.7-0.4-1.9-1.2c-1.8-8-8.8-13.5-17-13.5c-6.9,0-13.2,4.1-16,10.4
					c-0.3,0.7-1.2,1.1-2,0.9C131,238.5,129.8,238.4,128.7,238.4z"/>
			</g>
		</g>
		<g>
			<g>
				<path class="st5" d="M404.6,243.3c-0.6,0-1.2,0.1-1.8,0.2c-1.7-7.5-8.4-13-16.4-13c-6.9,0-12.8,4.1-15.4,10
					c-1.1-0.3-2.2-0.5-3.4-0.5c-6.6,0-12,5.4-12,12s5.4,12,12,12h37c5.7,0,10.4-4.6,10.4-10.4C415,248,410.4,243.3,404.6,243.3z"/>
				<path class="st2" d="M404.6,265.7h-37c-7.5,0-13.7-6.1-13.7-13.7c0-7.5,6.1-13.7,13.7-13.7c0.9,0,1.7,0.1,2.6,0.2
					c3.2-6,9.4-9.8,16.3-9.8c8.2,0,15.2,5.2,17.6,12.9c0.2,0,0.4,0,0.6,0c6.6,0,12,5.4,12,12C416.6,260.3,411.3,265.7,404.6,265.7z
					 M367.7,241.6c-5.7,0-10.4,4.7-10.4,10.4c0,5.7,4.7,10.4,10.4,10.4h37c4.8,0,8.7-3.9,8.7-8.7c0-4.8-3.9-8.7-8.7-8.7
					c-0.5,0-1,0-1.5,0.1c-0.8,0.1-1.7-0.4-1.9-1.2c-1.6-6.9-7.7-11.8-14.8-11.8c-6,0-11.5,3.6-13.9,9.1c-0.3,0.7-1.2,1.1-2,0.9
					C369.7,241.8,368.7,241.6,367.7,241.6z"/>
			</g>
			<g>
				<path class="st6" d="M408.8,163.7c0-9.9-7.3-18.1-16.8-19.5c0.9-2.2,1.3-4.6,1.3-7.1c0-10.9-8.8-19.7-19.7-19.7
					s-19.7,8.8-19.7,19.7c0,3.1,0.7,5.9,1.9,8.5c-7,3-11.9,10-11.9,18.1c0,3.9,1.1,7.5,3.1,10.6c-5.3,3.5-8.9,9.6-8.9,16.4
					c0,10.4,8,18.9,18.2,19.6c3.4,6,9.8,10.1,17.2,10.1c7.4,0,13.8-4.1,17.2-10.1c10-0.9,17.9-9.3,17.9-19.6c0-5.2-2-10-5.4-13.5
					C406.8,173.7,408.8,168.9,408.8,163.7z"/>
				<path class="st2" d="M373.7,222c-7.4,0-14.3-3.9-18.2-10.2c-10.7-1.2-18.9-10.4-18.9-21.2c0-6.7,3.1-12.9,8.3-16.9
					c-1.7-3.1-2.5-6.6-2.5-10.1c0-8,4.4-15.2,11.4-18.9c-1-2.5-1.4-5.1-1.4-7.7c0-11.8,9.6-21.3,21.3-21.3
					c11.8,0,21.3,9.6,21.3,21.3c0,2-0.3,4-0.8,5.9c9.4,2.3,16.3,10.9,16.3,20.7c0,5-1.7,9.7-4.8,13.5c3.1,3.8,4.8,8.5,4.8,13.5
					c0,10.8-7.9,19.8-18.6,21.1C388,218.1,381.1,222,373.7,222z M373.7,119c-10,0-18.1,8.1-18.1,18.1c0,2.7,0.6,5.4,1.8,7.8
					c0.2,0.4,0.2,0.9,0.1,1.3c-0.2,0.4-0.5,0.7-0.9,0.9c-6.6,2.9-10.9,9.4-10.9,16.6c0,3.4,1,6.8,2.8,9.7c0.5,0.7,0.3,1.7-0.5,2.2
					c-5.1,3.4-8.1,9-8.1,15.1c0,9.4,7.3,17.3,16.7,18c0.5,0,1,0.3,1.3,0.8c3.2,5.7,9.2,9.2,15.8,9.2c6.5,0,12.6-3.6,15.8-9.3
					c0.3-0.5,0.7-0.8,1.3-0.8c9.4-0.8,16.4-8.6,16.4-18c0-4.6-1.7-9-4.9-12.4c-0.6-0.6-0.6-1.6,0-2.2c3.2-3.4,4.9-7.8,4.9-12.4
					c0-8.9-6.6-16.6-15.4-17.9c-0.5-0.1-0.9-0.4-1.2-0.8c-0.2-0.4-0.3-0.9-0.1-1.4c0.8-2.1,1.2-4.3,1.2-6.5
					C391.8,127.1,383.7,119,373.7,119z"/>
			</g>
			<g>
				<path class="st2" d="M373.5,245.3c-0.9,0-1.6-0.7-1.6-1.6V140.9c0-0.9,0.7-1.6,1.6-1.6c0.9,0,1.6,0.7,1.6,1.6v102.7
					C375.1,244.6,374.4,245.3,373.5,245.3z"/>
			</g>
			<g>
				<path class="st2" d="M373.5,167.3c-0.4,0-0.8-0.2-1.1-0.5c-0.6-0.6-0.6-1.7,0-2.3l11.2-11.2c0.6-0.6,1.7-0.6,2.3,0
					c0.6,0.6,0.6,1.7,0,2.3l-11.2,11.2C374.3,167.2,373.9,167.3,373.5,167.3z"/>
			</g>
			<g>
				<path class="st2" d="M373.5,186.8c-0.4,0-0.8-0.2-1.1-0.5l-15.5-15.5c-0.6-0.6-0.6-1.7,0-2.3c0.6-0.6,1.7-0.6,2.3,0l15.5,15.5
					c0.6,0.6,0.6,1.7,0,2.3C374.3,186.7,373.9,186.8,373.5,186.8z"/>
			</g>
			<g>
				<path class="st2" d="M373.5,209.2c-0.4,0-0.8-0.2-1.1-0.5c-0.6-0.6-0.6-1.7,0-2.3l19.9-19.9c0.6-0.6,1.7-0.6,2.3,0
					c0.6,0.6,0.6,1.7,0,2.3l-19.9,19.9C374.3,209,373.9,209.2,373.5,209.2z"/>
			</g>
			<g>
				<path class="st6" d="M336,240.5c0.7,0,1.4,0.1,2,0.2c1.9-8.5,9.5-14.8,18.6-14.8c7.8,0,14.5,4.7,17.5,11.4
					c1.2-0.4,2.6-0.6,3.9-0.6c7.6,0,13.7,6.1,13.7,13.7s-6.1,13.7-13.7,13.7h-42c-6.5,0-11.8-5.3-11.8-11.8
					C324.3,245.8,329.5,240.5,336,240.5z"/>
				<path class="st2" d="M378,265.7h-42c-7.4,0-13.4-6-13.4-13.4c0-7.4,6-13.4,13.4-13.4c0.3,0,0.5,0,0.8,0
					c2.6-8.7,10.6-14.6,19.8-14.6c7.7,0,14.8,4.3,18.4,11.1c1-0.2,2-0.3,3-0.3c8.4,0,15.3,6.9,15.3,15.3
					C393.3,258.8,386.5,265.7,378,265.7z M336,242.2c-5.6,0-10.2,4.6-10.2,10.2c0,5.6,4.6,10.2,10.2,10.2h42c6.6,0,12-5.4,12-12
					c0-6.6-5.4-12-12-12c-1.2,0-2.3,0.2-3.4,0.5c-0.8,0.2-1.6-0.2-2-0.9c-2.8-6.3-9.1-10.4-16-10.4c-8.2,0-15.2,5.6-17,13.5
					c-0.2,0.8-1,1.4-1.9,1.2C337.2,242.2,336.6,242.2,336,242.2z"/>
			</g>
		</g>
		<g>
			<g>
				<path class="st2" d="M153.8,86.2h-26.9c-0.9,0-1.6-0.7-1.6-1.6c0-0.9,0.7-1.6,1.6-1.6h26.9c5.6,0,10.2-4.6,10.2-10.2
					c0-5.6-4.6-10.2-10.2-10.2c-0.5,0-1.1,0.1-1.7,0.2c-0.9,0.1-1.7-0.4-1.9-1.2c-1.8-8-8.8-13.5-17-13.5c-6.9,0-13.2,4.1-16,10.4
					c-0.3,0.8-1.2,1.1-2,0.9c-1.1-0.3-2.3-0.5-3.5-0.5c-6.6,0-12,5.4-12,12c0,6.6,5.4,12,12,12c0.9,0,1.6,0.7,1.6,1.6
					c0,0.9-0.7,1.6-1.6,1.6c-8.4,0-15.3-6.9-15.3-15.3c0-8.4,6.9-15.3,15.3-15.3c1,0,2,0.1,3,0.3c3.6-6.8,10.6-11.1,18.4-11.1
					c9.2,0,17.2,6,19.8,14.6c0.3,0,0.5,0,0.8,0c7.4,0,13.4,6,13.4,13.4C167.2,80.2,161.2,86.2,153.8,86.2z"/>
			</g>
			<g>
				<path class="st2" d="M120.7,86.2h-1.4c-0.9,0-1.6-0.7-1.6-1.6c0-0.9,0.7-1.6,1.6-1.6h1.4c0.9,0,1.6,0.7,1.6,1.6
					C122.3,85.5,121.6,86.2,120.7,86.2z"/>
			</g>
		</g>
		<g>
			<g>
				<path class="st2" d="M398,109h-31.3c-5.7,0-10.4-4.7-10.4-10.4s4.7-10.4,10.4-10.4c0.1,0,0.2,0,0.3,0c2.1-6.5,8.1-10.9,15-10.9
					c5.8,0,11.1,3.2,13.9,8.2c1.9-0.3,3.9-0.2,5.7,0.4c0.9,0.3,1.3,1.2,1,2c-0.3,0.9-1.2,1.3-2.1,1c-1.6-0.5-3.4-0.6-5.1-0.1
					c-0.8,0.2-1.6-0.2-2-0.9c-2-4.6-6.5-7.5-11.5-7.5c-5.9,0-10.9,4-12.3,9.8c-0.2,0.8-1,1.4-1.9,1.2c-0.4-0.1-0.8-0.1-1.2-0.1
					c-3.9,0-7.1,3.2-7.1,7.1c0,3.9,3.2,7.1,7.1,7.1H398c4.7,0,8.6-3.8,8.6-8.6c0-0.8-0.1-1.6-0.3-2.4c-0.2-0.9,0.3-1.8,1.1-2
					c0.9-0.2,1.8,0.3,2,1.1c0.3,1.1,0.5,2.2,0.5,3.3C409.8,103.7,404.5,109,398,109z"/>
			</g>
			<g>
				<path class="st2" d="M405.4,91.7c-0.4,0-0.8-0.2-1.1-0.5l-0.6-0.6c-0.6-0.6-0.6-1.7,0-2.3c0.6-0.6,1.7-0.6,2.3,0l0.6,0.6
					c0.6,0.6,0.6,1.7,0,2.3C406.2,91.5,405.8,91.7,405.4,91.7z"/>
			</g>
		</g>
		<g>
			<circle class="st0" cx="288.7" cy="91.7" r="4.1"/>
		</g>
		<g>
			<circle class="st4" cx="317.8" cy="186.1" r="1.8"/>
		</g>
		<g>
			<circle class="st0" cx="187.5" cy="183.3" r="3.5"/>
		</g>
		<g>
			<circle class="st1" cx="405.4" cy="122.5" r="2.5"/>
		</g>
		<g>
			<circle class="st1" cx="205.7" cy="59.4" r="2.5"/>
		</g>
		<g>
			<circle class="st1" cx="110.8" cy="107.4" r="2.5"/>
		</g>
		<g>
			<circle class="st0" cx="284.8" cy="165.3" r="2.6"/>
		</g>
		<g>
			<circle class="st4" cx="246.1" cy="105.6" r="1.8"/>
		</g>
		<g>
			<circle class="st4" cx="167.1" cy="138.7" r="1.8"/>
		</g>
		<g>
			<circle class="st4" cx="221.3" cy="169" r="1.8"/>
		</g>
		<g>
			<circle class="st1" cx="429.4" cy="234.8" r="1.8"/>
		</g>
		<g>
			<circle class="st1" cx="440.5" cy="186.8" r="3.5"/>
		</g>
		<g>
			<circle class="st1" cx="338.3" cy="77.3" r="1.8"/>
		</g>
		<g>
			<circle class="st1" cx="71" cy="172.2" r="3.2"/>
		</g>
		<g>
			<circle class="st1" cx="94" cy="215" r="1.8"/>
		</g>
		<g>
			<circle class="st0" cx="179.6" cy="219.2" r="1.8"/>
		</g>
		<g>
			<path class="st4" d="M83.9,129.9h-2.7v-2.7c0-0.8-0.6-1.4-1.4-1.4c-0.8,0-1.4,0.6-1.4,1.4v2.7h-2.7c-0.8,0-1.4,0.6-1.4,1.4
				c0,0.8,0.6,1.4,1.4,1.4h2.7v2.7c0,0.8,0.6,1.4,1.4,1.4c0.8,0,1.4-0.6,1.4-1.4v-2.7h2.7c0.8,0,1.4-0.6,1.4-1.4
				C85.3,130.5,84.7,129.9,83.9,129.9z"/>
		</g>
		<g>
			<path class="st0" d="M326.8,219h-2.7v-2.7c0-0.8-0.6-1.4-1.4-1.4c-0.8,0-1.4,0.6-1.4,1.4v2.7h-2.7c-0.8,0-1.4,0.6-1.4,1.4
				c0,0.8,0.6,1.4,1.4,1.4h2.7v2.7c0,0.8,0.6,1.4,1.4,1.4c0.8,0,1.4-0.6,1.4-1.4v-2.7h2.7c0.8,0,1.4-0.6,1.4-1.4
				C328.2,219.6,327.5,219,326.8,219z"/>
		</g>
		<g>
			<path class="st0" d="M205.8,99.9h-2.7v-2.7c0-0.8-0.6-1.4-1.4-1.4c-0.8,0-1.4,0.6-1.4,1.4v2.7h-2.7c-0.8,0-1.4,0.6-1.4,1.4
				c0,0.8,0.6,1.4,1.4,1.4h2.7v2.7c0,0.8,0.6,1.4,1.4,1.4c0.8,0,1.4-0.6,1.4-1.4v-2.7h2.7c0.8,0,1.4-0.6,1.4-1.4
				C207.2,100.5,206.5,99.9,205.8,99.9z"/>
		</g>
		<g>
			<path class="st4" d="M439.1,143.4h-2.7v-2.7c0-0.8-0.6-1.4-1.4-1.4s-1.4,0.6-1.4,1.4v2.7h-2.7c-0.8,0-1.4,0.6-1.4,1.4
				c0,0.8,0.6,1.4,1.4,1.4h2.7v2.7c0,0.8,0.6,1.4,1.4,1.4s1.4-0.6,1.4-1.4v-2.7h2.7c0.8,0,1.4-0.6,1.4-1.4
				C440.5,144.1,439.9,143.4,439.1,143.4z"/>
		</g>
		<g>
			<path class="st4" d="M288.9,52.4h-2.7v-2.7c0-0.8-0.6-1.4-1.4-1.4s-1.4,0.6-1.4,1.4v2.7h-2.7c-0.8,0-1.4,0.6-1.4,1.4
				c0,0.8,0.6,1.4,1.4,1.4h2.7V58c0,0.8,0.6,1.4,1.4,1.4s1.4-0.6,1.4-1.4v-2.7h2.7c0.8,0,1.4-0.6,1.4-1.4
				C290.3,53.1,289.7,52.4,288.9,52.4z"/>
		</g>
	</g>
</g>
<g id="Designed_By_Freepik">
	<rect x="90" y="119.6" class="st7" width="150.5" height="81"/>
	<text transform="matrix(1 0 0 1 178.9729 148.0093)" class="st2 st8 st9">500</text>
	<rect x="122.3" y="119.2" class="st7" width="206" height="57.3"/>
	<text transform="matrix(1 0 0 1 247.4312 147.5958)" class="st2 st8 st9">Error</text>
</g>
</svg>
