<?xml version="1.0" encoding="utf-8"?>
<!-- Generator: Adobe Illustrator 19.0.0, SVG Export Plug-In . SVG Version: 6.00 Build 0)  -->
<svg version="1.1" id="Layer_1" xmlns="http://www.w3.org/2000/svg" xmlns:xlink="http://www.w3.org/1999/xlink" x="0px" y="0px"
	 viewBox="-14 16.9 169.1 169.1" style="enable-background:new -14 16.9 169.1 169.1;" xml:space="preserve">
<style type="text/css">
	.st0{fill:#FFFFFF;}
</style>
<g>
	<path class="st0" d="M108.4,16.9H32.7C6.9,16.9-14,37.9-14,63.6v75.8c0,25.7,20.9,46.7,46.7,46.7h75.8c25.7,0,46.7-20.9,46.7-46.7
		V63.6C155.1,37.9,134.1,16.9,108.4,16.9z M140.1,139.3c0,17.5-14.2,31.7-31.7,31.7H32.7C15.2,171,1,156.8,1,139.3V63.6
		c0-17.5,14.2-31.7,31.7-31.7h75.8c17.5,0,31.7,14.2,31.7,31.7L140.1,139.3L140.1,139.3z"/>
	<path class="st0" d="M70.5,57.9c-24,0-43.6,19.5-43.6,43.6c0,24,19.5,43.6,43.6,43.6s43.6-19.5,43.6-43.6
		C114.1,77.4,94.6,57.9,70.5,57.9z M70.5,130C54.8,130,42,117.2,42,101.5c0-15.8,12.8-28.6,28.6-28.6s28.6,12.8,28.6,28.6
		C99.1,117.2,86.3,130,70.5,130z"/>
	<path class="st0" d="M115.9,45.2c-2.9,0-5.7,1.2-7.8,3.2c-2.1,2-3.2,4.9-3.2,7.8c0,2.9,1.2,5.7,3.2,7.8c2,2,4.9,3.2,7.8,3.2
		c2.9,0,5.7-1.2,7.8-3.2c2.1-2,3.2-4.9,3.2-7.8c0-2.9-1.2-5.7-3.2-7.8C121.7,46.4,118.8,45.2,115.9,45.2z"/>
</g>
</svg>
