<?xml version="1.0" encoding="utf-8"?>
<!-- Generator: Adobe Illustrator 19.0.0, SVG Export Plug-In . SVG Version: 6.00 Build 0)  -->
<svg version="1.1" id="Layer_1" xmlns="http://www.w3.org/2000/svg" xmlns:xlink="http://www.w3.org/1999/xlink" x="0px" y="0px"
	 viewBox="0 0 200 200" style="enable-background:new 0 0 200 200;" xml:space="preserve">
<style type="text/css">
	.Drop_x0020_Shadow{fill:none;}
	.Outer_x0020_Glow_x0020_5_x0020_pt{fill:none;}
	.Blue_x0020_Neon{fill:none;stroke:#8AACDA;stroke-width:7;stroke-linecap:round;stroke-linejoin:round;}
	.Chrome_x0020_Highlight{fill:url(#SVGID_1_);stroke:#FFFFFF;stroke-width:0.3629;stroke-miterlimit:1;}
	.Jive_GS{fill:#FFDD00;}
	.Alyssa_GS{fill:#A6D0E4;}
	.st0{fill:#F4F8F9;}
	.st1{fill:none;stroke:#E9EFF2;stroke-width:3;stroke-linecap:round;stroke-linejoin:round;stroke-miterlimit:10;}
	.st2{fill:#E9EFF2;}
	.st3{fill:none;stroke:#E9EFF2;stroke-width:2.7314;stroke-linecap:round;stroke-linejoin:round;stroke-miterlimit:10;}
	.st4{clip-path:url(#XMLID_37_);}
</style>
<linearGradient id="SVGID_1_" gradientUnits="userSpaceOnUse" x1="0" y1="0" x2="4.489659e-011" y2="-1">
	<stop  offset="0" style="stop-color:#656565"/>
	<stop  offset="0.618" style="stop-color:#1B1B1B"/>
	<stop  offset="0.6292" style="stop-color:#545454"/>
	<stop  offset="0.9831" style="stop-color:#3E3E3E"/>
</linearGradient>
<circle id="XMLID_36_" class="st0" cx="131.1" cy="128.9" r="48.5"/>
<circle id="XMLID_33_" class="st1" cx="90.2" cy="159.9" r="14.5"/>
<circle id="XMLID_32_" class="st2" cx="101.5" cy="30.4" r="11.3"/>
<g id="XMLID_29_">
	<line id="XMLID_31_" class="st3" x1="106.7" y1="56.9" x2="34.4" y2="129.2"/>
	<line id="XMLID_30_" class="st3" x1="142.8" y1="31.6" x2="70.6" y2="103.9"/>
</g>
<g id="XMLID_3_">
	<defs>
		<circle id="XMLID_4_" cx="155.8" cy="105" r="38.9"/>
	</defs>
	<clipPath id="XMLID_37_">
		<use xlink:href="#XMLID_4_"  style="overflow:visible;"/>
	</clipPath>
	<g id="XMLID_5_" class="st4">
		
			<rect id="XMLID_28_" x="108.9" y="-7.5" transform="matrix(0.7071 0.7071 -0.7071 0.7071 74.5058 -60.5258)" class="st2" width="2.9" height="134.3"/>
		
			<rect id="XMLID_27_" x="113" y="-3.4" transform="matrix(0.7071 0.7071 -0.7071 0.7071 78.625 -62.233)" class="st2" width="2.9" height="134.3"/>
		
			<rect id="XMLID_26_" x="117.1" y="0.8" transform="matrix(0.7071 0.7071 -0.7071 0.7071 82.755 -63.9432)" class="st2" width="2.9" height="134.3"/>
		
			<rect id="XMLID_25_" x="121.2" y="4.9" transform="matrix(0.7071 0.7071 -0.7071 0.7071 86.8852 -65.6534)" class="st2" width="2.9" height="134.3"/>
		
			<rect id="XMLID_24_" x="125.4" y="9" transform="matrix(0.7071 0.7071 -0.7071 0.7071 91.0074 -67.3615)" class="st2" width="2.9" height="134.3"/>
		
			<rect id="XMLID_23_" x="129.5" y="13.1" transform="matrix(0.7071 0.7071 -0.7071 0.7071 95.1339 -69.0708)" class="st2" width="2.9" height="134.3"/>
		
			<rect id="XMLID_22_" x="133.6" y="17.3" transform="matrix(0.7071 0.7071 -0.7071 0.7071 99.2647 -70.781)" class="st2" width="2.9" height="134.3"/>
		
			<rect id="XMLID_21_" x="137.7" y="21.4" transform="matrix(0.7071 0.7071 -0.7071 0.7071 103.3821 -72.4881)" class="st2" width="2.9" height="134.3"/>
		
			<rect id="XMLID_20_" x="141.9" y="25.5" transform="matrix(0.7071 0.7071 -0.7071 0.7071 107.5131 -74.1983)" class="st2" width="2.9" height="134.3"/>
		
			<rect id="XMLID_19_" x="146" y="29.7" transform="matrix(0.7071 0.7071 -0.7071 0.7071 111.6397 -75.9076)" class="st2" width="2.9" height="134.3"/>
		
			<rect id="XMLID_18_" x="150.1" y="33.8" transform="matrix(0.7071 0.7071 -0.7071 0.7071 115.7658 -77.6167)" class="st2" width="2.9" height="134.3"/>
		
			<rect id="XMLID_17_" x="154.2" y="37.9" transform="matrix(0.7071 0.7071 -0.7071 0.7071 119.8921 -79.3259)" class="st2" width="2.9" height="134.3"/>
		
			<rect id="XMLID_16_" x="158.4" y="42" transform="matrix(0.7071 0.7071 -0.7071 0.7071 124.013 -81.0341)" class="st2" width="2.9" height="134.3"/>
		
			<rect id="XMLID_15_" x="162.5" y="46.2" transform="matrix(0.7071 0.7071 -0.7071 0.7071 128.1444 -82.7442)" class="st2" width="2.9" height="134.3"/>
		
			<rect id="XMLID_14_" x="166.6" y="50.3" transform="matrix(0.7071 0.7071 -0.7071 0.7071 132.2769 -84.4545)" class="st2" width="2.9" height="134.3"/>
		
			<rect id="XMLID_13_" x="170.7" y="54.4" transform="matrix(0.7071 0.7071 -0.7071 0.7071 136.3975 -86.1627)" class="st2" width="2.9" height="134.3"/>
		
			<rect id="XMLID_12_" x="174.9" y="58.5" transform="matrix(0.7071 0.7071 -0.7071 0.7071 140.5239 -87.8719)" class="st2" width="2.9" height="134.3"/>
		
			<rect id="XMLID_11_" x="179" y="62.7" transform="matrix(0.7071 0.7071 -0.7071 0.7071 144.6502 -89.581)" class="st2" width="2.9" height="134.3"/>
		
			<rect id="XMLID_10_" x="183.1" y="66.8" transform="matrix(0.7071 0.7071 -0.7071 0.7071 148.777 -91.2903)" class="st2" width="2.9" height="134.3"/>
		
			<rect id="XMLID_9_" x="187.3" y="70.9" transform="matrix(0.7071 0.7071 -0.7071 0.7071 152.9095 -93.0004)" class="st2" width="2.9" height="134.3"/>
		
			<rect id="XMLID_8_" x="191.4" y="75" transform="matrix(0.7071 0.7071 -0.7071 0.7071 157.0292 -94.7086)" class="st2" width="2.9" height="134.3"/>
		
			<rect id="XMLID_7_" x="195.5" y="79.2" transform="matrix(0.7071 0.7071 -0.7071 0.7071 161.1556 -96.4178)" class="st2" width="2.9" height="134.3"/>
		
			<rect id="XMLID_6_" x="199.6" y="83.3" transform="matrix(0.7071 0.7071 -0.7071 0.7071 165.2885 -98.1279)" class="st2" width="2.9" height="134.3"/>
	</g>
</g>
<circle id="XMLID_2_" class="st2" cx="82.6" cy="49.3" r="6.1"/>
<circle id="XMLID_34_" class="st2" cx="44.6" cy="151.3" r="10.1"/>
<circle id="XMLID_1_" class="st2" cx="61.6" cy="134.3" r="5.4"/>
</svg>
