<?xml version="1.0" encoding="utf-8"?>
<!-- Generator: Adobe Illustrator 19.0.0, SVG Export Plug-In . SVG Version: 6.00 Build 0)  -->
<svg version="1.1" id="Layer_1" xmlns="http://www.w3.org/2000/svg" xmlns:xlink="http://www.w3.org/1999/xlink" x="0px" y="0px"
	 viewBox="254 -254 708 708" style="enable-background:new 254 -254 708 708;" xml:space="preserve">
<style type="text/css">
	.st0{fill:none;stroke:url(#SVGID_1_);stroke-width:1.0842;stroke-miterlimit:10;}
	.st1{fill:#FFFFFF;}
	.st2{fill:#EDF0F7;}
	.st3{fill:#4185F4;}
	.st4{fill:#6F7989;stroke:#FFFFFF;stroke-width:11;stroke-miterlimit:10;}
	.st5{fill:#6F7989;stroke:#FFFFFF;stroke-width:6;stroke-miterlimit:10;}
	.st6{fill:#ECEFF7;}
	.st7{fill:#FFFFFF;stroke:#6F7989;stroke-width:4.0082;stroke-miterlimit:10;}
	.st8{fill:#6F7989;}
	.st9{fill:#818FA1;}
	.st10{fill:#E4EAEF;}
	.st11{fill:#BAC9D1;}
	.st12{fill:#DDE3ED;}
	.st13{fill:#B577ED;}
	.st14{fill:#F4EA78;}
	.st15{fill:#FFFFFF;stroke:#DDE3ED;stroke-width:2.8496;stroke-miterlimit:10;}
	.st16{fill:#FFFFFF;stroke:#DDE3ED;stroke-width:3.4905;stroke-miterlimit:10;}
	.st17{fill:#FFFFFF;stroke:#43EBD4;stroke-width:4.1456;stroke-miterlimit:10;}
	.st18{fill:#DDE2EC;}
	.st19{fill:#4188FA;}
</style>
<linearGradient id="SVGID_1_" gradientUnits="userSpaceOnUse" x1="897.2174" y1="-154.526" x2="1546.7079" y2="-154.526" gradientTransform="matrix(-0.7071 -0.7071 -0.7071 0.7071 1363.5844 1073.8151)">
	<stop  offset="0" style="stop-color:#D2D5E4"/>
	<stop  offset="0.5269" style="stop-color:#FFFFFF"/>
	<stop  offset="1" style="stop-color:#D2D5E4"/>
</linearGradient>
<circle class="st0" cx="608.8" cy="100.5" r="324.2"/>
<rect x="347" y="-82" class="st1" width="464" height="240"/>
<path class="st2" d="M680,302c8.8,0,16,7.2,16,16c-0.1,8.8-7.2,15.9-16,16H504c-8.8,0-16-7.2-16-16c0.1-8.8,7.2-15.9,16-16H680z"/>
<path class="st2" d="M821-101v32H357v-32c0.1-17.7,14.3-31.9,32-32h400C806.7-133,821-118.7,821-101L821-101z"/>
<path class="st3" d="M636.5-12.2"/>
<g>
	<path class="st2" d="M656,303H528l8-64h112L656,303z"/>
	<path class="st2" d="M824,175v32c-0.1,17.7-14.3,31.9-32,32H392c-17.7-0.1-31.9-14.3-32-32v-32H824z"/>
	<path class="st4" d="M792-137H392c-22.1,0-40,17.9-40,40v304c0,22.1,17.9,40,40,40h134.9l-6,48H504c-13.3,0-24,10.7-24,24
		s10.7,24,24,24h176c13.3,0,24-10.7,24-24s-10.7-24-24-24h-16.9l-6-48H792c22.1,0,40-17.9,40-40V-97C832-119.1,814.1-137,792-137
		L792-137z M392-121h400c13.3,0,24,10.7,24,24v24H368v-24C368-110.3,378.7-121,392-121L392-121z M816-57v224H368V-57H816z M688,319
		c0,4.4-3.6,8-8,8H504c-4.4,0-8-3.6-8-8s3.6-8,8-8h176C684.4,311,688,314.6,688,319L688,319z M646.9,295H537.1l6-48H641L646.9,295z
		 M792,231H392c-13.3,0-24-10.7-24-24v-24h448v24C816,220.3,805.3,231,792,231L792,231z"/>
	<rect x="816" y="-23.2" class="st1" width="16" height="14.3"/>
	<rect x="816" y="-42" class="st1" width="16" height="10.1"/>
	<circle class="st1" cx="591.9" cy="207" r="9"/>
	<rect x="352" y="107" class="st1" width="16" height="19"/>
	<rect x="352" y="83" class="st1" width="16" height="9.5"/>
</g>
<g>
	<path class="st5" d="M745.8,340h139.5c6.9,0,12.6-5.7,12.6-12.6V68.1c0-6.9-5.7-12.6-12.6-12.6H745.8c-6.9,0-12.6,5.7-12.6,12.6
		v259.3C733.2,334.3,738.8,340,745.8,340z"/>
	<path class="st6" d="M749,332.2h133.2c4.4,0,8-3.6,8-8V71c0-4.4-3.6-8-8-8H749c-4.4,0-8,3.6-8,8v253.2
		C741,328.6,744.6,332.2,749,332.2z"/>
	<path class="st7" d="M763.7,298.5h103.7c5.3,0,9.6-4.3,9.6-9.6V85.2c0-5.3-4.3-9.6-9.6-9.6H763.7c-5.3,0-9.6,4.3-9.6,9.6v203.7
		C754.1,294.2,758.4,298.5,763.7,298.5z"/>
	<circle class="st8" cx="815.6" cy="316.1" r="7.5"/>
	<g>
		<rect x="730" y="285.3" class="st1" width="11" height="14.3"/>
		<rect x="730" y="268.5" class="st1" width="11" height="10.1"/>
	</g>
	<g>
		<path class="st9" d="M771.5,112.6h-2.8v4.5c0,0.6-0.1,1.1-0.4,1.5c-0.3,0.3-0.7,0.5-1.1,0.5c-0.5,0-0.8-0.2-1.1-0.5
			s-0.4-0.8-0.4-1.4V105c0-0.7,0.2-1.2,0.5-1.5s0.8-0.5,1.5-0.5h4c1.2,0,2.1,0.1,2.7,0.3c0.6,0.2,1.2,0.5,1.6,0.9s0.8,0.9,1,1.5
			s0.4,1.3,0.4,2c0,1.6-0.5,2.8-1.4,3.6C774.8,112.2,773.4,112.6,771.5,112.6z M770.7,105.4h-2.1v4.8h2.1c0.7,0,1.3-0.1,1.8-0.2
			c0.5-0.2,0.9-0.4,1.1-0.8s0.4-0.8,0.4-1.4c0-0.7-0.2-1.3-0.6-1.7C773,105.6,772.1,105.4,770.7,105.4z"/>
		<path class="st9" d="M786.8,117.4c-0.7,0.6-1.4,1-2,1.2c-0.6,0.3-1.4,0.4-2.2,0.4c-0.7,0-1.4-0.1-1.9-0.4c-0.6-0.3-1-0.7-1.3-1.2
			s-0.4-1.1-0.4-1.7c0-0.8,0.2-1.5,0.7-2.1s1.2-0.9,2-1.1c0.2,0,0.6-0.1,1.3-0.3c0.7-0.2,1.3-0.3,1.8-0.4s1.1-0.3,1.7-0.5
			c0-0.8-0.2-1.3-0.5-1.7c-0.3-0.4-0.8-0.5-1.7-0.5c-0.7,0-1.3,0.1-1.6,0.3c-0.4,0.2-0.7,0.5-0.9,0.9c-0.3,0.4-0.4,0.7-0.6,0.8
			c-0.1,0.1-0.3,0.2-0.7,0.2c-0.3,0-0.6-0.1-0.8-0.3c-0.2-0.2-0.3-0.5-0.3-0.8c0-0.5,0.2-1,0.5-1.5c0.4-0.5,0.9-0.9,1.7-1.2
			c0.8-0.3,1.7-0.5,2.8-0.5c1.3,0,2.2,0.2,3,0.5c0.7,0.3,1.2,0.8,1.5,1.4c0.3,0.7,0.4,1.5,0.4,2.6c0,0.7,0,1.3,0,1.8s0,1,0,1.6
			s0.1,1.1,0.3,1.7s0.3,1,0.3,1.2c0,0.3-0.1,0.6-0.4,0.8c-0.3,0.2-0.6,0.4-0.9,0.4c-0.3,0-0.6-0.1-0.9-0.4
			C787.5,118.3,787.1,117.9,786.8,117.4z M786.6,113.1c-0.4,0.2-1,0.3-1.8,0.5s-1.3,0.3-1.7,0.4c-0.3,0.1-0.6,0.2-0.9,0.5
			c-0.3,0.2-0.4,0.6-0.4,1s0.2,0.8,0.5,1.1c0.3,0.3,0.8,0.5,1.3,0.5c0.6,0,1.1-0.1,1.6-0.4s0.8-0.6,1-1c0.3-0.4,0.4-1.2,0.4-2.2
			L786.6,113.1L786.6,113.1z"/>
		<path class="st9" d="M801.5,115.2c0,0.8-0.2,1.5-0.6,2.1c-0.4,0.6-0.9,1-1.7,1.3c-0.7,0.3-1.7,0.4-2.7,0.4s-1.9-0.2-2.6-0.5
			s-1.3-0.7-1.6-1.2s-0.5-1-0.5-1.5c0-0.3,0.1-0.6,0.3-0.8s0.5-0.3,0.8-0.3s0.5,0.1,0.7,0.2s0.3,0.4,0.5,0.6c0.3,0.5,0.6,0.9,1,1.2
			s1,0.4,1.7,0.4c0.6,0,1-0.1,1.4-0.4s0.5-0.6,0.5-0.9c0-0.5-0.2-0.9-0.6-1.1c-0.4-0.2-1-0.5-1.9-0.7c-1-0.3-1.8-0.5-2.4-0.8
			c-0.6-0.3-1.1-0.6-1.5-1.1s-0.6-1-0.6-1.7c0-0.6,0.2-1.1,0.5-1.7c0.3-0.5,0.8-0.9,1.5-1.3c0.7-0.3,1.5-0.5,2.4-0.5
			c0.7,0,1.4,0.1,2,0.2s1.1,0.4,1.5,0.6s0.7,0.6,0.9,0.9s0.3,0.6,0.3,0.9s-0.1,0.6-0.3,0.8c-0.2,0.2-0.5,0.3-0.9,0.3
			c-0.3,0-0.5-0.1-0.7-0.3s-0.4-0.4-0.7-0.8c-0.2-0.3-0.5-0.5-0.8-0.7s-0.7-0.3-1.2-0.3s-0.9,0.1-1.3,0.3c-0.3,0.2-0.5,0.5-0.5,0.8
			s0.1,0.6,0.4,0.8c0.3,0.2,0.6,0.4,1,0.5s1,0.3,1.8,0.5c0.9,0.2,1.6,0.5,2.2,0.8s1,0.7,1.3,1.1
			C801.4,114.2,801.5,114.7,801.5,115.2z"/>
		<path class="st9" d="M813.1,115.2c0,0.8-0.2,1.5-0.6,2.1c-0.4,0.6-0.9,1-1.7,1.3c-0.7,0.3-1.7,0.4-2.7,0.4s-1.9-0.2-2.6-0.5
			s-1.3-0.7-1.6-1.2s-0.5-1-0.5-1.5c0-0.3,0.1-0.6,0.3-0.8s0.5-0.3,0.8-0.3s0.5,0.1,0.7,0.2s0.3,0.4,0.5,0.6c0.3,0.5,0.6,0.9,1,1.2
			s1,0.4,1.7,0.4c0.6,0,1-0.1,1.4-0.4s0.5-0.6,0.5-0.9c0-0.5-0.2-0.9-0.6-1.1c-0.4-0.2-1-0.5-1.9-0.7c-1-0.3-1.8-0.5-2.4-0.8
			c-0.6-0.3-1.1-0.6-1.5-1.1s-0.6-1-0.6-1.7c0-0.6,0.2-1.1,0.5-1.7c0.3-0.5,0.8-0.9,1.5-1.3c0.7-0.3,1.5-0.5,2.4-0.5
			c0.7,0,1.4,0.1,2,0.2s1.1,0.4,1.5,0.6s0.7,0.6,0.9,0.9s0.3,0.6,0.3,0.9s-0.1,0.6-0.3,0.8c-0.2,0.2-0.5,0.3-0.9,0.3
			c-0.3,0-0.5-0.1-0.7-0.3s-0.4-0.4-0.7-0.8c-0.2-0.3-0.5-0.5-0.8-0.7s-0.7-0.3-1.2-0.3s-0.9,0.1-1.3,0.3c-0.3,0.2-0.5,0.5-0.5,0.8
			s0.1,0.6,0.4,0.8c0.3,0.2,0.6,0.4,1,0.5s1,0.3,1.8,0.5c0.9,0.2,1.6,0.5,2.2,0.8s1,0.7,1.3,1.1C813,114.2,813.1,114.7,813.1,115.2z
			"/>
		<path class="st9" d="M817.3,108.9l1.9,6.6l1.7-6.1c0.2-0.6,0.3-1.1,0.4-1.3c0.1-0.2,0.3-0.5,0.5-0.7s0.6-0.3,1-0.3s0.8,0.1,1,0.3
			c0.2,0.2,0.4,0.4,0.5,0.7c0.1,0.2,0.2,0.7,0.4,1.3l1.7,6.1l1.9-6.6c0.1-0.5,0.2-0.8,0.3-1s0.2-0.4,0.4-0.6s0.4-0.2,0.8-0.2
			c0.3,0,0.6,0.1,0.9,0.4s0.4,0.5,0.4,0.9c0,0.3-0.1,0.8-0.3,1.4l-2.3,7c-0.2,0.6-0.4,1-0.5,1.3s-0.3,0.5-0.5,0.7s-0.6,0.3-1,0.3
			s-0.8-0.1-1-0.3s-0.4-0.5-0.5-0.8s-0.2-0.7-0.4-1.3L823,111l-1.6,5.7c-0.2,0.8-0.4,1.4-0.7,1.8c-0.2,0.4-0.7,0.6-1.3,0.6
			c-0.3,0-0.6-0.1-0.8-0.2s-0.4-0.3-0.5-0.5s-0.3-0.5-0.4-0.8c-0.1-0.3-0.2-0.6-0.3-0.8l-2.3-7c-0.2-0.7-0.3-1.1-0.3-1.4
			s0.1-0.6,0.4-0.8c0.2-0.3,0.5-0.4,0.9-0.4c0.5,0,0.8,0.1,1,0.4C816.9,107.8,817.1,108.3,817.3,108.9z"/>
		<path class="st9" d="M843.6,113.1c0,0.9-0.1,1.7-0.4,2.4s-0.6,1.4-1.1,1.9s-1.1,0.9-1.8,1.2c-0.7,0.3-1.5,0.4-2.4,0.4
			s-1.6-0.1-2.3-0.4s-1.3-0.7-1.8-1.2s-0.9-1.2-1.1-1.9c-0.3-0.7-0.4-1.5-0.4-2.4s0.1-1.7,0.4-2.4s0.6-1.4,1.1-1.9s1.1-0.9,1.8-1.2
			c0.7-0.3,1.5-0.4,2.3-0.4c0.9,0,1.6,0.1,2.4,0.4c0.7,0.3,1.3,0.7,1.8,1.2s0.9,1.2,1.1,1.9C843.5,111.4,843.6,112.2,843.6,113.1z
			 M840.7,113.1c0-1.2-0.3-2.1-0.8-2.8c-0.5-0.7-1.2-1-2.1-1c-0.6,0-1,0.1-1.5,0.4c-0.4,0.3-0.8,0.7-1,1.3s-0.3,1.3-0.3,2
			c0,0.8,0.1,1.4,0.3,2s0.5,1,1,1.3c0.4,0.3,0.9,0.5,1.5,0.5c0.9,0,1.6-0.3,2.1-1C840.5,115.2,840.7,114.3,840.7,113.1z"/>
		<path class="st9" d="M848.7,114.8v2.4c0,0.6-0.1,1-0.4,1.3c-0.3,0.3-0.6,0.4-1,0.4s-0.7-0.2-1-0.5s-0.4-0.7-0.4-1.3v-8.2
			c0-1.3,0.5-2,1.4-2c0.5,0,0.8,0.2,1,0.5s0.3,0.8,0.3,1.4c0.3-0.6,0.7-1.1,1-1.4c0.4-0.3,0.8-0.5,1.4-0.5c0.6,0,1.2,0.2,1.7,0.5
			c0.6,0.3,0.8,0.7,0.8,1.2c0,0.4-0.1,0.7-0.4,0.9c-0.2,0.2-0.5,0.3-0.8,0.3c-0.1,0-0.4-0.1-0.8-0.2c-0.4-0.1-0.8-0.2-1.1-0.2
			c-0.4,0-0.8,0.1-1,0.3c-0.3,0.2-0.5,0.6-0.6,1s-0.2,1-0.3,1.6C848.7,113.2,848.7,113.9,848.7,114.8z"/>
		<path class="st9" d="M863,117.4v-0.3c-0.4,0.5-0.8,0.8-1.1,1.1c-0.4,0.3-0.8,0.5-1.2,0.6s-0.9,0.2-1.4,0.2c-0.7,0-1.3-0.1-1.9-0.4
			c-0.6-0.3-1.1-0.7-1.5-1.3s-0.7-1.2-1-1.9c-0.2-0.7-0.3-1.6-0.3-2.4c0-1.8,0.4-3.3,1.3-4.3s2-1.5,3.4-1.5c0.8,0,1.5,0.1,2.1,0.4
			s1.1,0.7,1.7,1.3v-4.3c0-0.6,0.1-1.1,0.4-1.4c0.2-0.3,0.6-0.5,1-0.5s0.8,0.1,1,0.4s0.4,0.7,0.4,1.3v12.9c0,0.6-0.1,1-0.4,1.3
			c-0.3,0.3-0.6,0.4-1,0.4s-0.7-0.1-1-0.4C863.2,118.3,863,117.9,863,117.4z M857.4,113c0,0.8,0.1,1.5,0.4,2c0.2,0.6,0.6,1,1,1.3
			s0.9,0.4,1.4,0.4s1-0.1,1.4-0.4s0.7-0.7,1-1.2c0.2-0.6,0.4-1.2,0.4-2.1c0-0.8-0.1-1.5-0.4-2c-0.2-0.6-0.6-1-1-1.3
			s-0.9-0.4-1.4-0.4s-1,0.2-1.4,0.5s-0.7,0.7-1,1.3C857.5,111.6,857.4,112.3,857.4,113z"/>
		<path class="st9" d="M780.5,136.6h-3.4V148c0,0.7-0.1,1.1-0.4,1.5c-0.3,0.3-0.7,0.5-1.1,0.5c-0.5,0-0.8-0.2-1.1-0.5
			s-0.4-0.8-0.4-1.5v-11.4h-3.4c-0.5,0-0.9-0.1-1.2-0.4c-0.3-0.2-0.4-0.6-0.4-1s0.1-0.7,0.4-1c0.3-0.2,0.7-0.4,1.2-0.4h9.9
			c0.5,0,0.9,0.1,1.2,0.4c0.3,0.2,0.4,0.6,0.4,1s-0.1,0.7-0.4,1C781.4,136.5,781,136.6,780.5,136.6z"/>
		<path class="st9" d="M794.4,144.1c0,0.9-0.1,1.7-0.4,2.4s-0.6,1.4-1.1,1.9s-1.1,0.9-1.8,1.2c-0.7,0.3-1.5,0.4-2.4,0.4
			s-1.6-0.1-2.3-0.4s-1.3-0.7-1.8-1.2s-0.9-1.2-1.1-1.9c-0.3-0.7-0.4-1.5-0.4-2.4s0.1-1.7,0.4-2.4s0.6-1.4,1.1-1.9s1.1-0.9,1.8-1.2
			c0.7-0.3,1.5-0.4,2.3-0.4c0.9,0,1.6,0.1,2.4,0.4c0.7,0.3,1.3,0.7,1.8,1.2s0.9,1.2,1.1,1.9C794.3,142.4,794.4,143.2,794.4,144.1z
			 M791.6,144.1c0-1.2-0.3-2.1-0.8-2.8c-0.5-0.7-1.2-1-2.1-1c-0.6,0-1,0.1-1.5,0.4c-0.4,0.3-0.8,0.7-1,1.3s-0.3,1.3-0.3,2
			c0,0.8,0.1,1.4,0.3,2s0.5,1,1,1.3c0.4,0.3,0.9,0.5,1.5,0.5c0.9,0,1.6-0.3,2.1-1C791.3,146.2,791.6,145.3,791.6,144.1z"/>
		<path class="st9" d="M799.3,139.8v0.4c0.5-0.7,1.1-1.2,1.7-1.5c0.6-0.3,1.2-0.5,2-0.5c0.9,0,1.7,0.2,2.4,0.7s1.3,1.1,1.8,2
			s0.6,2,0.6,3.2c0,0.9-0.1,1.7-0.4,2.5c-0.2,0.8-0.6,1.4-1,1.9s-0.9,0.9-1.5,1.2c-0.6,0.3-1.2,0.4-1.9,0.4c-0.8,0-1.5-0.2-2.1-0.5
			s-1.1-0.8-1.6-1.5v4.4c0,1.3-0.5,1.9-1.4,1.9c-0.5,0-0.9-0.2-1.1-0.5c-0.2-0.3-0.3-0.8-0.3-1.5v-12.7c0-0.6,0.1-1,0.4-1.3
			c0.2-0.3,0.6-0.4,1-0.4s0.7,0.1,1,0.4C799.2,138.8,799.3,139.2,799.3,139.8z M804.9,144c0-0.8-0.1-1.4-0.3-2s-0.5-1-1-1.3
			c-0.4-0.3-0.9-0.4-1.4-0.4c-0.8,0-1.5,0.3-2,1s-0.8,1.6-0.8,2.8c0,1.2,0.3,2.1,0.8,2.7s1.2,1,2,1c0.5,0,0.9-0.1,1.3-0.4
			c0.4-0.3,0.7-0.7,1-1.3S804.9,144.8,804.9,144z"/>
		<path class="st9" d="M810,148.2v-12.7c0-0.6,0.1-1,0.4-1.3c0.3-0.3,0.6-0.5,1-0.5s0.8,0.1,1,0.4c0.3,0.3,0.4,0.7,0.4,1.3v12.7
			c0,0.6-0.1,1-0.4,1.3c-0.3,0.3-0.6,0.4-1,0.4s-0.8-0.2-1-0.5C810.2,149.3,810,148.8,810,148.2z"/>
		<path class="st9" d="M823.8,144.8h-5.6c0,0.7,0.1,1.3,0.4,1.8c0.3,0.5,0.6,0.9,1,1.1c0.4,0.3,0.9,0.4,1.4,0.4c0.3,0,0.7,0,0.9-0.1
			c0.3-0.1,0.6-0.2,0.8-0.4c0.3-0.2,0.5-0.4,0.7-0.6s0.5-0.5,0.9-0.8c0.1-0.1,0.4-0.2,0.6-0.2c0.3,0,0.5,0.1,0.7,0.2
			c0.2,0.2,0.3,0.4,0.3,0.7c0,0.3-0.1,0.6-0.3,0.9c-0.2,0.4-0.5,0.7-0.9,1s-0.9,0.6-1.5,0.8c-0.6,0.2-1.3,0.3-2.1,0.3
			c-1.8,0-3.3-0.5-4.3-1.6s-1.5-2.5-1.5-4.4c0-0.9,0.1-1.7,0.4-2.4c0.3-0.7,0.6-1.4,1.1-1.9s1.1-0.9,1.8-1.2
			c0.7-0.3,1.5-0.4,2.3-0.4c1.1,0,2.1,0.2,2.9,0.7c0.8,0.5,1.4,1.1,1.8,1.9c0.4,0.8,0.6,1.5,0.6,2.3c0,0.7-0.2,1.2-0.6,1.4
			C825.1,144.7,824.6,144.8,823.8,144.8z M818.2,143.1h5.2c-0.1-1-0.3-1.8-0.8-2.3s-1.1-0.7-1.8-0.7s-1.3,0.3-1.8,0.8
			C818.6,141.4,818.3,142.1,818.2,143.1z"/>
		<path class="st9" d="M835.8,148.4c-0.7,0.6-1.4,1-2,1.2c-0.6,0.3-1.4,0.4-2.2,0.4c-0.7,0-1.4-0.1-1.9-0.4c-0.6-0.3-1-0.7-1.3-1.2
			s-0.4-1.1-0.4-1.7c0-0.8,0.2-1.5,0.7-2.1s1.2-0.9,2-1.1c0.2,0,0.6-0.1,1.3-0.3c0.7-0.2,1.3-0.3,1.8-0.4s1.1-0.3,1.7-0.5
			c0-0.8-0.2-1.3-0.5-1.7c-0.3-0.4-0.8-0.5-1.7-0.5c-0.7,0-1.3,0.1-1.6,0.3c-0.4,0.2-0.7,0.5-0.9,0.9c-0.3,0.4-0.4,0.7-0.6,0.8
			c-0.1,0.1-0.3,0.2-0.7,0.2c-0.3,0-0.6-0.1-0.8-0.3c-0.2-0.2-0.3-0.5-0.3-0.8c0-0.5,0.2-1,0.5-1.5c0.4-0.5,0.9-0.9,1.7-1.2
			c0.8-0.3,1.7-0.5,2.8-0.5c1.3,0,2.2,0.2,3,0.5c0.7,0.3,1.2,0.8,1.5,1.4c0.3,0.7,0.4,1.5,0.4,2.6c0,0.7,0,1.3,0,1.8s0,1,0,1.6
			s0.1,1.1,0.3,1.7s0.3,1,0.3,1.2c0,0.3-0.1,0.6-0.4,0.8c-0.3,0.2-0.6,0.4-0.9,0.4c-0.3,0-0.6-0.1-0.9-0.4
			C836.4,149.3,836.1,148.9,835.8,148.4z M835.6,144.1c-0.4,0.2-1,0.3-1.8,0.5s-1.3,0.3-1.7,0.4c-0.3,0.1-0.6,0.2-0.9,0.5
			c-0.3,0.2-0.4,0.6-0.4,1s0.2,0.8,0.5,1.1c0.3,0.3,0.8,0.5,1.3,0.5c0.6,0,1.1-0.1,1.6-0.4s0.8-0.6,1-1c0.3-0.4,0.4-1.2,0.4-2.2
			L835.6,144.1L835.6,144.1z"/>
		<path class="st9" d="M844.1,145.8v2.4c0,0.6-0.1,1-0.4,1.3c-0.3,0.3-0.6,0.4-1,0.4s-0.7-0.2-1-0.5s-0.4-0.7-0.4-1.3v-8.2
			c0-1.3,0.5-2,1.4-2c0.5,0,0.8,0.2,1,0.5s0.3,0.8,0.3,1.4c0.3-0.6,0.7-1.1,1-1.4c0.4-0.3,0.8-0.5,1.4-0.5c0.6,0,1.2,0.2,1.7,0.5
			c0.6,0.3,0.8,0.7,0.8,1.2c0,0.4-0.1,0.7-0.4,0.9c-0.2,0.2-0.5,0.3-0.8,0.3c-0.1,0-0.4-0.1-0.8-0.2c-0.4-0.1-0.8-0.2-1.1-0.2
			c-0.4,0-0.8,0.1-1,0.3c-0.3,0.2-0.5,0.6-0.6,1s-0.2,1-0.3,1.6C844.1,144.2,844.1,144.9,844.1,145.8z"/>
		<path class="st9" d="M853.2,139.7v0.4c0.5-0.7,1.1-1.2,1.6-1.5c0.6-0.3,1.3-0.5,2.1-0.5s1.4,0.2,2,0.5s1,0.8,1.3,1.4
			c0.2,0.4,0.3,0.7,0.4,1.2s0.1,0.9,0.1,1.6v5.5c0,0.6-0.1,1-0.4,1.3c-0.3,0.3-0.6,0.5-1,0.5s-0.8-0.2-1-0.5s-0.4-0.7-0.4-1.3v-4.9
			c0-1-0.1-1.7-0.4-2.2c-0.3-0.5-0.8-0.8-1.6-0.8c-0.5,0-1,0.2-1.4,0.5s-0.7,0.7-0.9,1.3c-0.1,0.4-0.2,1.3-0.2,2.4v3.7
			c0,0.6-0.1,1-0.4,1.3c-0.3,0.3-0.6,0.4-1,0.4s-0.7-0.2-1-0.5s-0.4-0.7-0.4-1.3v-8.5c0-0.6,0.1-1,0.4-1.3c0.2-0.3,0.6-0.4,1-0.4
			c0.3,0,0.5,0.1,0.7,0.2s0.4,0.3,0.5,0.5S853.2,139.4,853.2,139.7z"/>
	</g>
	<g>
		<path class="st9" d="M771.5,112.6h-2.8v4.5c0,0.6-0.1,1.1-0.4,1.5c-0.3,0.3-0.7,0.5-1.1,0.5c-0.5,0-0.8-0.2-1.1-0.5
			s-0.4-0.8-0.4-1.4V105c0-0.7,0.2-1.2,0.5-1.5s0.8-0.5,1.5-0.5h4c1.2,0,2.1,0.1,2.7,0.3c0.6,0.2,1.2,0.5,1.6,0.9s0.8,0.9,1,1.5
			s0.4,1.3,0.4,2c0,1.6-0.5,2.8-1.4,3.6C774.8,112.2,773.4,112.6,771.5,112.6z M770.7,105.4h-2.1v4.8h2.1c0.7,0,1.3-0.1,1.8-0.2
			c0.5-0.2,0.9-0.4,1.1-0.8s0.4-0.8,0.4-1.4c0-0.7-0.2-1.3-0.6-1.7C773,105.6,772.1,105.4,770.7,105.4z"/>
		<path class="st9" d="M786.8,117.4c-0.7,0.6-1.4,1-2,1.2c-0.6,0.3-1.4,0.4-2.2,0.4c-0.7,0-1.4-0.1-1.9-0.4c-0.6-0.3-1-0.7-1.3-1.2
			s-0.4-1.1-0.4-1.7c0-0.8,0.2-1.5,0.7-2.1s1.2-0.9,2-1.1c0.2,0,0.6-0.1,1.3-0.3c0.7-0.2,1.3-0.3,1.8-0.4s1.1-0.3,1.7-0.5
			c0-0.8-0.2-1.3-0.5-1.7c-0.3-0.4-0.8-0.5-1.7-0.5c-0.7,0-1.3,0.1-1.6,0.3c-0.4,0.2-0.7,0.5-0.9,0.9c-0.3,0.4-0.4,0.7-0.6,0.8
			c-0.1,0.1-0.3,0.2-0.7,0.2c-0.3,0-0.6-0.1-0.8-0.3c-0.2-0.2-0.3-0.5-0.3-0.8c0-0.5,0.2-1,0.5-1.5c0.4-0.5,0.9-0.9,1.7-1.2
			c0.8-0.3,1.7-0.5,2.8-0.5c1.3,0,2.2,0.2,3,0.5c0.7,0.3,1.2,0.8,1.5,1.4c0.3,0.7,0.4,1.5,0.4,2.6c0,0.7,0,1.3,0,1.8s0,1,0,1.6
			s0.1,1.1,0.3,1.7s0.3,1,0.3,1.2c0,0.3-0.1,0.6-0.4,0.8c-0.3,0.2-0.6,0.4-0.9,0.4c-0.3,0-0.6-0.1-0.9-0.4
			C787.5,118.3,787.1,117.9,786.8,117.4z M786.6,113.1c-0.4,0.2-1,0.3-1.8,0.5s-1.3,0.3-1.7,0.4c-0.3,0.1-0.6,0.2-0.9,0.5
			c-0.3,0.2-0.4,0.6-0.4,1s0.2,0.8,0.5,1.1c0.3,0.3,0.8,0.5,1.3,0.5c0.6,0,1.1-0.1,1.6-0.4s0.8-0.6,1-1c0.3-0.4,0.4-1.2,0.4-2.2
			L786.6,113.1L786.6,113.1z"/>
		<path class="st9" d="M801.5,115.2c0,0.8-0.2,1.5-0.6,2.1c-0.4,0.6-0.9,1-1.7,1.3c-0.7,0.3-1.7,0.4-2.7,0.4s-1.9-0.2-2.6-0.5
			s-1.3-0.7-1.6-1.2s-0.5-1-0.5-1.5c0-0.3,0.1-0.6,0.3-0.8s0.5-0.3,0.8-0.3s0.5,0.1,0.7,0.2s0.3,0.4,0.5,0.6c0.3,0.5,0.6,0.9,1,1.2
			s1,0.4,1.7,0.4c0.6,0,1-0.1,1.4-0.4s0.5-0.6,0.5-0.9c0-0.5-0.2-0.9-0.6-1.1c-0.4-0.2-1-0.5-1.9-0.7c-1-0.3-1.8-0.5-2.4-0.8
			c-0.6-0.3-1.1-0.6-1.5-1.1s-0.6-1-0.6-1.7c0-0.6,0.2-1.1,0.5-1.7c0.3-0.5,0.8-0.9,1.5-1.3c0.7-0.3,1.5-0.5,2.4-0.5
			c0.7,0,1.4,0.1,2,0.2s1.1,0.4,1.5,0.6s0.7,0.6,0.9,0.9s0.3,0.6,0.3,0.9s-0.1,0.6-0.3,0.8c-0.2,0.2-0.5,0.3-0.9,0.3
			c-0.3,0-0.5-0.1-0.7-0.3s-0.4-0.4-0.7-0.8c-0.2-0.3-0.5-0.5-0.8-0.7s-0.7-0.3-1.2-0.3s-0.9,0.1-1.3,0.3c-0.3,0.2-0.5,0.5-0.5,0.8
			s0.1,0.6,0.4,0.8c0.3,0.2,0.6,0.4,1,0.5s1,0.3,1.8,0.5c0.9,0.2,1.6,0.5,2.2,0.8s1,0.7,1.3,1.1
			C801.4,114.2,801.5,114.7,801.5,115.2z"/>
		<path class="st9" d="M813.1,115.2c0,0.8-0.2,1.5-0.6,2.1c-0.4,0.6-0.9,1-1.7,1.3c-0.7,0.3-1.7,0.4-2.7,0.4s-1.9-0.2-2.6-0.5
			s-1.3-0.7-1.6-1.2s-0.5-1-0.5-1.5c0-0.3,0.1-0.6,0.3-0.8s0.5-0.3,0.8-0.3s0.5,0.1,0.7,0.2s0.3,0.4,0.5,0.6c0.3,0.5,0.6,0.9,1,1.2
			s1,0.4,1.7,0.4c0.6,0,1-0.1,1.4-0.4s0.5-0.6,0.5-0.9c0-0.5-0.2-0.9-0.6-1.1c-0.4-0.2-1-0.5-1.9-0.7c-1-0.3-1.8-0.5-2.4-0.8
			c-0.6-0.3-1.1-0.6-1.5-1.1s-0.6-1-0.6-1.7c0-0.6,0.2-1.1,0.5-1.7c0.3-0.5,0.8-0.9,1.5-1.3c0.7-0.3,1.5-0.5,2.4-0.5
			c0.7,0,1.4,0.1,2,0.2s1.1,0.4,1.5,0.6s0.7,0.6,0.9,0.9s0.3,0.6,0.3,0.9s-0.1,0.6-0.3,0.8c-0.2,0.2-0.5,0.3-0.9,0.3
			c-0.3,0-0.5-0.1-0.7-0.3s-0.4-0.4-0.7-0.8c-0.2-0.3-0.5-0.5-0.8-0.7s-0.7-0.3-1.2-0.3s-0.9,0.1-1.3,0.3c-0.3,0.2-0.5,0.5-0.5,0.8
			s0.1,0.6,0.4,0.8c0.3,0.2,0.6,0.4,1,0.5s1,0.3,1.8,0.5c0.9,0.2,1.6,0.5,2.2,0.8s1,0.7,1.3,1.1C813,114.2,813.1,114.7,813.1,115.2z
			"/>
		<path class="st9" d="M817.3,108.9l1.9,6.6l1.7-6.1c0.2-0.6,0.3-1.1,0.4-1.3c0.1-0.2,0.3-0.5,0.5-0.7s0.6-0.3,1-0.3s0.8,0.1,1,0.3
			c0.2,0.2,0.4,0.4,0.5,0.7c0.1,0.2,0.2,0.7,0.4,1.3l1.7,6.1l1.9-6.6c0.1-0.5,0.2-0.8,0.3-1s0.2-0.4,0.4-0.6s0.4-0.2,0.8-0.2
			c0.3,0,0.6,0.1,0.9,0.4s0.4,0.5,0.4,0.9c0,0.3-0.1,0.8-0.3,1.4l-2.3,7c-0.2,0.6-0.4,1-0.5,1.3s-0.3,0.5-0.5,0.7s-0.6,0.3-1,0.3
			s-0.8-0.1-1-0.3s-0.4-0.5-0.5-0.8s-0.2-0.7-0.4-1.3L823,111l-1.6,5.7c-0.2,0.8-0.4,1.4-0.7,1.8c-0.2,0.4-0.7,0.6-1.3,0.6
			c-0.3,0-0.6-0.1-0.8-0.2s-0.4-0.3-0.5-0.5s-0.3-0.5-0.4-0.8c-0.1-0.3-0.2-0.6-0.3-0.8l-2.3-7c-0.2-0.7-0.3-1.1-0.3-1.4
			s0.1-0.6,0.4-0.8c0.2-0.3,0.5-0.4,0.9-0.4c0.5,0,0.8,0.1,1,0.4C816.9,107.8,817.1,108.3,817.3,108.9z"/>
		<path class="st9" d="M843.6,113.1c0,0.9-0.1,1.7-0.4,2.4s-0.6,1.4-1.1,1.9s-1.1,0.9-1.8,1.2c-0.7,0.3-1.5,0.4-2.4,0.4
			s-1.6-0.1-2.3-0.4s-1.3-0.7-1.8-1.2s-0.9-1.2-1.1-1.9c-0.3-0.7-0.4-1.5-0.4-2.4s0.1-1.7,0.4-2.4s0.6-1.4,1.1-1.9s1.1-0.9,1.8-1.2
			c0.7-0.3,1.5-0.4,2.3-0.4c0.9,0,1.6,0.1,2.4,0.4c0.7,0.3,1.3,0.7,1.8,1.2s0.9,1.2,1.1,1.9C843.5,111.4,843.6,112.2,843.6,113.1z
			 M840.7,113.1c0-1.2-0.3-2.1-0.8-2.8c-0.5-0.7-1.2-1-2.1-1c-0.6,0-1,0.1-1.5,0.4c-0.4,0.3-0.8,0.7-1,1.3s-0.3,1.3-0.3,2
			c0,0.8,0.1,1.4,0.3,2s0.5,1,1,1.3c0.4,0.3,0.9,0.5,1.5,0.5c0.9,0,1.6-0.3,2.1-1C840.5,115.2,840.7,114.3,840.7,113.1z"/>
		<path class="st9" d="M848.7,114.8v2.4c0,0.6-0.1,1-0.4,1.3c-0.3,0.3-0.6,0.4-1,0.4s-0.7-0.2-1-0.5s-0.4-0.7-0.4-1.3v-8.2
			c0-1.3,0.5-2,1.4-2c0.5,0,0.8,0.2,1,0.5s0.3,0.8,0.3,1.4c0.3-0.6,0.7-1.1,1-1.4c0.4-0.3,0.8-0.5,1.4-0.5c0.6,0,1.2,0.2,1.7,0.5
			c0.6,0.3,0.8,0.7,0.8,1.2c0,0.4-0.1,0.7-0.4,0.9c-0.2,0.2-0.5,0.3-0.8,0.3c-0.1,0-0.4-0.1-0.8-0.2c-0.4-0.1-0.8-0.2-1.1-0.2
			c-0.4,0-0.8,0.1-1,0.3c-0.3,0.2-0.5,0.6-0.6,1s-0.2,1-0.3,1.6C848.7,113.2,848.7,113.9,848.7,114.8z"/>
		<path class="st9" d="M863,117.4v-0.3c-0.4,0.5-0.8,0.8-1.1,1.1c-0.4,0.3-0.8,0.5-1.2,0.6s-0.9,0.2-1.4,0.2c-0.7,0-1.3-0.1-1.9-0.4
			c-0.6-0.3-1.1-0.7-1.5-1.3s-0.7-1.2-1-1.9c-0.2-0.7-0.3-1.6-0.3-2.4c0-1.8,0.4-3.3,1.3-4.3s2-1.5,3.4-1.5c0.8,0,1.5,0.1,2.1,0.4
			s1.1,0.7,1.7,1.3v-4.3c0-0.6,0.1-1.1,0.4-1.4c0.2-0.3,0.6-0.5,1-0.5s0.8,0.1,1,0.4s0.4,0.7,0.4,1.3v12.9c0,0.6-0.1,1-0.4,1.3
			c-0.3,0.3-0.6,0.4-1,0.4s-0.7-0.1-1-0.4C863.2,118.3,863,117.9,863,117.4z M857.4,113c0,0.8,0.1,1.5,0.4,2c0.2,0.6,0.6,1,1,1.3
			s0.9,0.4,1.4,0.4s1-0.1,1.4-0.4s0.7-0.7,1-1.2c0.2-0.6,0.4-1.2,0.4-2.1c0-0.8-0.1-1.5-0.4-2c-0.2-0.6-0.6-1-1-1.3
			s-0.9-0.4-1.4-0.4s-1,0.2-1.4,0.5s-0.7,0.7-1,1.3C857.5,111.6,857.4,112.3,857.4,113z"/>
		<path class="st9" d="M780.5,136.6h-3.4V148c0,0.7-0.1,1.1-0.4,1.5c-0.3,0.3-0.7,0.5-1.1,0.5c-0.5,0-0.8-0.2-1.1-0.5
			s-0.4-0.8-0.4-1.5v-11.4h-3.4c-0.5,0-0.9-0.1-1.2-0.4c-0.3-0.2-0.4-0.6-0.4-1s0.1-0.7,0.4-1c0.3-0.2,0.7-0.4,1.2-0.4h9.9
			c0.5,0,0.9,0.1,1.2,0.4c0.3,0.2,0.4,0.6,0.4,1s-0.1,0.7-0.4,1C781.4,136.5,781,136.6,780.5,136.6z"/>
		<path class="st9" d="M794.4,144.1c0,0.9-0.1,1.7-0.4,2.4s-0.6,1.4-1.1,1.9s-1.1,0.9-1.8,1.2c-0.7,0.3-1.5,0.4-2.4,0.4
			s-1.6-0.1-2.3-0.4s-1.3-0.7-1.8-1.2s-0.9-1.2-1.1-1.9c-0.3-0.7-0.4-1.5-0.4-2.4s0.1-1.7,0.4-2.4s0.6-1.4,1.1-1.9s1.1-0.9,1.8-1.2
			c0.7-0.3,1.5-0.4,2.3-0.4c0.9,0,1.6,0.1,2.4,0.4c0.7,0.3,1.3,0.7,1.8,1.2s0.9,1.2,1.1,1.9C794.3,142.4,794.4,143.2,794.4,144.1z
			 M791.6,144.1c0-1.2-0.3-2.1-0.8-2.8c-0.5-0.7-1.2-1-2.1-1c-0.6,0-1,0.1-1.5,0.4c-0.4,0.3-0.8,0.7-1,1.3s-0.3,1.3-0.3,2
			c0,0.8,0.1,1.4,0.3,2s0.5,1,1,1.3c0.4,0.3,0.9,0.5,1.5,0.5c0.9,0,1.6-0.3,2.1-1C791.3,146.2,791.6,145.3,791.6,144.1z"/>
		<path class="st9" d="M799.3,139.8v0.4c0.5-0.7,1.1-1.2,1.7-1.5c0.6-0.3,1.2-0.5,2-0.5c0.9,0,1.7,0.2,2.4,0.7s1.3,1.1,1.8,2
			s0.6,2,0.6,3.2c0,0.9-0.1,1.7-0.4,2.5c-0.2,0.8-0.6,1.4-1,1.9s-0.9,0.9-1.5,1.2c-0.6,0.3-1.2,0.4-1.9,0.4c-0.8,0-1.5-0.2-2.1-0.5
			s-1.1-0.8-1.6-1.5v4.4c0,1.3-0.5,1.9-1.4,1.9c-0.5,0-0.9-0.2-1.1-0.5c-0.2-0.3-0.3-0.8-0.3-1.5v-12.7c0-0.6,0.1-1,0.4-1.3
			c0.2-0.3,0.6-0.4,1-0.4s0.7,0.1,1,0.4C799.2,138.8,799.3,139.2,799.3,139.8z M804.9,144c0-0.8-0.1-1.4-0.3-2s-0.5-1-1-1.3
			c-0.4-0.3-0.9-0.4-1.4-0.4c-0.8,0-1.5,0.3-2,1s-0.8,1.6-0.8,2.8c0,1.2,0.3,2.1,0.8,2.7s1.2,1,2,1c0.5,0,0.9-0.1,1.3-0.4
			c0.4-0.3,0.7-0.7,1-1.3S804.9,144.8,804.9,144z"/>
		<path class="st9" d="M810,148.2v-12.7c0-0.6,0.1-1,0.4-1.3c0.3-0.3,0.6-0.5,1-0.5s0.8,0.1,1,0.4c0.3,0.3,0.4,0.7,0.4,1.3v12.7
			c0,0.6-0.1,1-0.4,1.3c-0.3,0.3-0.6,0.4-1,0.4s-0.8-0.2-1-0.5C810.2,149.3,810,148.8,810,148.2z"/>
		<path class="st9" d="M823.8,144.8h-5.6c0,0.7,0.1,1.3,0.4,1.8c0.3,0.5,0.6,0.9,1,1.1c0.4,0.3,0.9,0.4,1.4,0.4c0.3,0,0.7,0,0.9-0.1
			c0.3-0.1,0.6-0.2,0.8-0.4c0.3-0.2,0.5-0.4,0.7-0.6s0.5-0.5,0.9-0.8c0.1-0.1,0.4-0.2,0.6-0.2c0.3,0,0.5,0.1,0.7,0.2
			c0.2,0.2,0.3,0.4,0.3,0.7c0,0.3-0.1,0.6-0.3,0.9c-0.2,0.4-0.5,0.7-0.9,1s-0.9,0.6-1.5,0.8c-0.6,0.2-1.3,0.3-2.1,0.3
			c-1.8,0-3.3-0.5-4.3-1.6s-1.5-2.5-1.5-4.4c0-0.9,0.1-1.7,0.4-2.4c0.3-0.7,0.6-1.4,1.1-1.9s1.1-0.9,1.8-1.2
			c0.7-0.3,1.5-0.4,2.3-0.4c1.1,0,2.1,0.2,2.9,0.7c0.8,0.5,1.4,1.1,1.8,1.9c0.4,0.8,0.6,1.5,0.6,2.3c0,0.7-0.2,1.2-0.6,1.4
			C825.1,144.7,824.6,144.8,823.8,144.8z M818.2,143.1h5.2c-0.1-1-0.3-1.8-0.8-2.3s-1.1-0.7-1.8-0.7s-1.3,0.3-1.8,0.8
			C818.6,141.4,818.3,142.1,818.2,143.1z"/>
		<path class="st9" d="M835.8,148.4c-0.7,0.6-1.4,1-2,1.2c-0.6,0.3-1.4,0.4-2.2,0.4c-0.7,0-1.4-0.1-1.9-0.4c-0.6-0.3-1-0.7-1.3-1.2
			s-0.4-1.1-0.4-1.7c0-0.8,0.2-1.5,0.7-2.1s1.2-0.9,2-1.1c0.2,0,0.6-0.1,1.3-0.3c0.7-0.2,1.3-0.3,1.8-0.4s1.1-0.3,1.7-0.5
			c0-0.8-0.2-1.3-0.5-1.7c-0.3-0.4-0.8-0.5-1.7-0.5c-0.7,0-1.3,0.1-1.6,0.3c-0.4,0.2-0.7,0.5-0.9,0.9c-0.3,0.4-0.4,0.7-0.6,0.8
			c-0.1,0.1-0.3,0.2-0.7,0.2c-0.3,0-0.6-0.1-0.8-0.3c-0.2-0.2-0.3-0.5-0.3-0.8c0-0.5,0.2-1,0.5-1.5c0.4-0.5,0.9-0.9,1.7-1.2
			c0.8-0.3,1.7-0.5,2.8-0.5c1.3,0,2.2,0.2,3,0.5c0.7,0.3,1.2,0.8,1.5,1.4c0.3,0.7,0.4,1.5,0.4,2.6c0,0.7,0,1.3,0,1.8s0,1,0,1.6
			s0.1,1.1,0.3,1.7s0.3,1,0.3,1.2c0,0.3-0.1,0.6-0.4,0.8c-0.3,0.2-0.6,0.4-0.9,0.4c-0.3,0-0.6-0.1-0.9-0.4
			C836.4,149.3,836.1,148.9,835.8,148.4z M835.6,144.1c-0.4,0.2-1,0.3-1.8,0.5s-1.3,0.3-1.7,0.4c-0.3,0.1-0.6,0.2-0.9,0.5
			c-0.3,0.2-0.4,0.6-0.4,1s0.2,0.8,0.5,1.1c0.3,0.3,0.8,0.5,1.3,0.5c0.6,0,1.1-0.1,1.6-0.4s0.8-0.6,1-1c0.3-0.4,0.4-1.2,0.4-2.2
			L835.6,144.1L835.6,144.1z"/>
		<path class="st9" d="M844.1,145.8v2.4c0,0.6-0.1,1-0.4,1.3c-0.3,0.3-0.6,0.4-1,0.4s-0.7-0.2-1-0.5s-0.4-0.7-0.4-1.3v-8.2
			c0-1.3,0.5-2,1.4-2c0.5,0,0.8,0.2,1,0.5s0.3,0.8,0.3,1.4c0.3-0.6,0.7-1.1,1-1.4c0.4-0.3,0.8-0.5,1.4-0.5c0.6,0,1.2,0.2,1.7,0.5
			c0.6,0.3,0.8,0.7,0.8,1.2c0,0.4-0.1,0.7-0.4,0.9c-0.2,0.2-0.5,0.3-0.8,0.3c-0.1,0-0.4-0.1-0.8-0.2c-0.4-0.1-0.8-0.2-1.1-0.2
			c-0.4,0-0.8,0.1-1,0.3c-0.3,0.2-0.5,0.6-0.6,1s-0.2,1-0.3,1.6C844.1,144.2,844.1,144.9,844.1,145.8z"/>
		<path class="st9" d="M853.2,139.7v0.4c0.5-0.7,1.1-1.2,1.6-1.5c0.6-0.3,1.3-0.5,2.1-0.5s1.4,0.2,2,0.5s1,0.8,1.3,1.4
			c0.2,0.4,0.3,0.7,0.4,1.2s0.1,0.9,0.1,1.6v5.5c0,0.6-0.1,1-0.4,1.3c-0.3,0.3-0.6,0.5-1,0.5s-0.8-0.2-1-0.5s-0.4-0.7-0.4-1.3v-4.9
			c0-1-0.1-1.7-0.4-2.2c-0.3-0.5-0.8-0.8-1.6-0.8c-0.5,0-1,0.2-1.4,0.5s-0.7,0.7-0.9,1.3c-0.1,0.4-0.2,1.3-0.2,2.4v3.7
			c0,0.6-0.1,1-0.4,1.3c-0.3,0.3-0.6,0.4-1,0.4s-0.7-0.2-1-0.5s-0.4-0.7-0.4-1.3v-8.5c0-0.6,0.1-1,0.4-1.3c0.2-0.3,0.6-0.4,1-0.4
			c0.3,0,0.5,0.1,0.7,0.2s0.4,0.3,0.5,0.5S853.2,139.4,853.2,139.7z"/>
	</g>
	<g>
		<path class="st9" d="M771.5,112.6h-2.8v4.5c0,0.6-0.1,1.1-0.4,1.5c-0.3,0.3-0.7,0.5-1.1,0.5c-0.5,0-0.8-0.2-1.1-0.5
			s-0.4-0.8-0.4-1.4V105c0-0.7,0.2-1.2,0.5-1.5s0.8-0.5,1.5-0.5h4c1.2,0,2.1,0.1,2.7,0.3c0.6,0.2,1.2,0.5,1.6,0.9s0.8,0.9,1,1.5
			s0.4,1.3,0.4,2c0,1.6-0.5,2.8-1.4,3.6C774.8,112.2,773.4,112.6,771.5,112.6z M770.7,105.4h-2.1v4.8h2.1c0.7,0,1.3-0.1,1.8-0.2
			c0.5-0.2,0.9-0.4,1.1-0.8s0.4-0.8,0.4-1.4c0-0.7-0.2-1.3-0.6-1.7C773,105.6,772.1,105.4,770.7,105.4z"/>
		<path class="st9" d="M786.8,117.4c-0.7,0.6-1.4,1-2,1.2c-0.6,0.3-1.4,0.4-2.2,0.4c-0.7,0-1.4-0.1-1.9-0.4c-0.6-0.3-1-0.7-1.3-1.2
			s-0.4-1.1-0.4-1.7c0-0.8,0.2-1.5,0.7-2.1s1.2-0.9,2-1.1c0.2,0,0.6-0.1,1.3-0.3c0.7-0.2,1.3-0.3,1.8-0.4s1.1-0.3,1.7-0.5
			c0-0.8-0.2-1.3-0.5-1.7c-0.3-0.4-0.8-0.5-1.7-0.5c-0.7,0-1.3,0.1-1.6,0.3c-0.4,0.2-0.7,0.5-0.9,0.9c-0.3,0.4-0.4,0.7-0.6,0.8
			c-0.1,0.1-0.3,0.2-0.7,0.2c-0.3,0-0.6-0.1-0.8-0.3c-0.2-0.2-0.3-0.5-0.3-0.8c0-0.5,0.2-1,0.5-1.5c0.4-0.5,0.9-0.9,1.7-1.2
			c0.8-0.3,1.7-0.5,2.8-0.5c1.3,0,2.2,0.2,3,0.5c0.7,0.3,1.2,0.8,1.5,1.4c0.3,0.7,0.4,1.5,0.4,2.6c0,0.7,0,1.3,0,1.8s0,1,0,1.6
			s0.1,1.1,0.3,1.7s0.3,1,0.3,1.2c0,0.3-0.1,0.6-0.4,0.8c-0.3,0.2-0.6,0.4-0.9,0.4c-0.3,0-0.6-0.1-0.9-0.4
			C787.5,118.3,787.1,117.9,786.8,117.4z M786.6,113.1c-0.4,0.2-1,0.3-1.8,0.5s-1.3,0.3-1.7,0.4c-0.3,0.1-0.6,0.2-0.9,0.5
			c-0.3,0.2-0.4,0.6-0.4,1s0.2,0.8,0.5,1.1c0.3,0.3,0.8,0.5,1.3,0.5c0.6,0,1.1-0.1,1.6-0.4s0.8-0.6,1-1c0.3-0.4,0.4-1.2,0.4-2.2
			L786.6,113.1L786.6,113.1z"/>
		<path class="st9" d="M801.5,115.2c0,0.8-0.2,1.5-0.6,2.1c-0.4,0.6-0.9,1-1.7,1.3c-0.7,0.3-1.7,0.4-2.7,0.4s-1.9-0.2-2.6-0.5
			s-1.3-0.7-1.6-1.2s-0.5-1-0.5-1.5c0-0.3,0.1-0.6,0.3-0.8s0.5-0.3,0.8-0.3s0.5,0.1,0.7,0.2s0.3,0.4,0.5,0.6c0.3,0.5,0.6,0.9,1,1.2
			s1,0.4,1.7,0.4c0.6,0,1-0.1,1.4-0.4s0.5-0.6,0.5-0.9c0-0.5-0.2-0.9-0.6-1.1c-0.4-0.2-1-0.5-1.9-0.7c-1-0.3-1.8-0.5-2.4-0.8
			c-0.6-0.3-1.1-0.6-1.5-1.1s-0.6-1-0.6-1.7c0-0.6,0.2-1.1,0.5-1.7c0.3-0.5,0.8-0.9,1.5-1.3c0.7-0.3,1.5-0.5,2.4-0.5
			c0.7,0,1.4,0.1,2,0.2s1.1,0.4,1.5,0.6s0.7,0.6,0.9,0.9s0.3,0.6,0.3,0.9s-0.1,0.6-0.3,0.8c-0.2,0.2-0.5,0.3-0.9,0.3
			c-0.3,0-0.5-0.1-0.7-0.3s-0.4-0.4-0.7-0.8c-0.2-0.3-0.5-0.5-0.8-0.7s-0.7-0.3-1.2-0.3s-0.9,0.1-1.3,0.3c-0.3,0.2-0.5,0.5-0.5,0.8
			s0.1,0.6,0.4,0.8c0.3,0.2,0.6,0.4,1,0.5s1,0.3,1.8,0.5c0.9,0.2,1.6,0.5,2.2,0.8s1,0.7,1.3,1.1
			C801.4,114.2,801.5,114.7,801.5,115.2z"/>
		<path class="st9" d="M813.1,115.2c0,0.8-0.2,1.5-0.6,2.1c-0.4,0.6-0.9,1-1.7,1.3c-0.7,0.3-1.7,0.4-2.7,0.4s-1.9-0.2-2.6-0.5
			s-1.3-0.7-1.6-1.2s-0.5-1-0.5-1.5c0-0.3,0.1-0.6,0.3-0.8s0.5-0.3,0.8-0.3s0.5,0.1,0.7,0.2s0.3,0.4,0.5,0.6c0.3,0.5,0.6,0.9,1,1.2
			s1,0.4,1.7,0.4c0.6,0,1-0.1,1.4-0.4s0.5-0.6,0.5-0.9c0-0.5-0.2-0.9-0.6-1.1c-0.4-0.2-1-0.5-1.9-0.7c-1-0.3-1.8-0.5-2.4-0.8
			c-0.6-0.3-1.1-0.6-1.5-1.1s-0.6-1-0.6-1.7c0-0.6,0.2-1.1,0.5-1.7c0.3-0.5,0.8-0.9,1.5-1.3c0.7-0.3,1.5-0.5,2.4-0.5
			c0.7,0,1.4,0.1,2,0.2s1.1,0.4,1.5,0.6s0.7,0.6,0.9,0.9s0.3,0.6,0.3,0.9s-0.1,0.6-0.3,0.8c-0.2,0.2-0.5,0.3-0.9,0.3
			c-0.3,0-0.5-0.1-0.7-0.3s-0.4-0.4-0.7-0.8c-0.2-0.3-0.5-0.5-0.8-0.7s-0.7-0.3-1.2-0.3s-0.9,0.1-1.3,0.3c-0.3,0.2-0.5,0.5-0.5,0.8
			s0.1,0.6,0.4,0.8c0.3,0.2,0.6,0.4,1,0.5s1,0.3,1.8,0.5c0.9,0.2,1.6,0.5,2.2,0.8s1,0.7,1.3,1.1C813,114.2,813.1,114.7,813.1,115.2z
			"/>
		<path class="st9" d="M817.3,108.9l1.9,6.6l1.7-6.1c0.2-0.6,0.3-1.1,0.4-1.3c0.1-0.2,0.3-0.5,0.5-0.7s0.6-0.3,1-0.3s0.8,0.1,1,0.3
			c0.2,0.2,0.4,0.4,0.5,0.7c0.1,0.2,0.2,0.7,0.4,1.3l1.7,6.1l1.9-6.6c0.1-0.5,0.2-0.8,0.3-1s0.2-0.4,0.4-0.6s0.4-0.2,0.8-0.2
			c0.3,0,0.6,0.1,0.9,0.4s0.4,0.5,0.4,0.9c0,0.3-0.1,0.8-0.3,1.4l-2.3,7c-0.2,0.6-0.4,1-0.5,1.3s-0.3,0.5-0.5,0.7s-0.6,0.3-1,0.3
			s-0.8-0.1-1-0.3s-0.4-0.5-0.5-0.8s-0.2-0.7-0.4-1.3L823,111l-1.6,5.7c-0.2,0.8-0.4,1.4-0.7,1.8c-0.2,0.4-0.7,0.6-1.3,0.6
			c-0.3,0-0.6-0.1-0.8-0.2s-0.4-0.3-0.5-0.5s-0.3-0.5-0.4-0.8c-0.1-0.3-0.2-0.6-0.3-0.8l-2.3-7c-0.2-0.7-0.3-1.1-0.3-1.4
			s0.1-0.6,0.4-0.8c0.2-0.3,0.5-0.4,0.9-0.4c0.5,0,0.8,0.1,1,0.4C816.9,107.8,817.1,108.3,817.3,108.9z"/>
		<path class="st9" d="M843.6,113.1c0,0.9-0.1,1.7-0.4,2.4s-0.6,1.4-1.1,1.9s-1.1,0.9-1.8,1.2c-0.7,0.3-1.5,0.4-2.4,0.4
			s-1.6-0.1-2.3-0.4s-1.3-0.7-1.8-1.2s-0.9-1.2-1.1-1.9c-0.3-0.7-0.4-1.5-0.4-2.4s0.1-1.7,0.4-2.4s0.6-1.4,1.1-1.9s1.1-0.9,1.8-1.2
			c0.7-0.3,1.5-0.4,2.3-0.4c0.9,0,1.6,0.1,2.4,0.4c0.7,0.3,1.3,0.7,1.8,1.2s0.9,1.2,1.1,1.9C843.5,111.4,843.6,112.2,843.6,113.1z
			 M840.7,113.1c0-1.2-0.3-2.1-0.8-2.8c-0.5-0.7-1.2-1-2.1-1c-0.6,0-1,0.1-1.5,0.4c-0.4,0.3-0.8,0.7-1,1.3s-0.3,1.3-0.3,2
			c0,0.8,0.1,1.4,0.3,2s0.5,1,1,1.3c0.4,0.3,0.9,0.5,1.5,0.5c0.9,0,1.6-0.3,2.1-1C840.5,115.2,840.7,114.3,840.7,113.1z"/>
		<path class="st9" d="M848.7,114.8v2.4c0,0.6-0.1,1-0.4,1.3c-0.3,0.3-0.6,0.4-1,0.4s-0.7-0.2-1-0.5s-0.4-0.7-0.4-1.3v-8.2
			c0-1.3,0.5-2,1.4-2c0.5,0,0.8,0.2,1,0.5s0.3,0.8,0.3,1.4c0.3-0.6,0.7-1.1,1-1.4c0.4-0.3,0.8-0.5,1.4-0.5c0.6,0,1.2,0.2,1.7,0.5
			c0.6,0.3,0.8,0.7,0.8,1.2c0,0.4-0.1,0.7-0.4,0.9c-0.2,0.2-0.5,0.3-0.8,0.3c-0.1,0-0.4-0.1-0.8-0.2c-0.4-0.1-0.8-0.2-1.1-0.2
			c-0.4,0-0.8,0.1-1,0.3c-0.3,0.2-0.5,0.6-0.6,1s-0.2,1-0.3,1.6C848.7,113.2,848.7,113.9,848.7,114.8z"/>
		<path class="st9" d="M863,117.4v-0.3c-0.4,0.5-0.8,0.8-1.1,1.1c-0.4,0.3-0.8,0.5-1.2,0.6s-0.9,0.2-1.4,0.2c-0.7,0-1.3-0.1-1.9-0.4
			c-0.6-0.3-1.1-0.7-1.5-1.3s-0.7-1.2-1-1.9c-0.2-0.7-0.3-1.6-0.3-2.4c0-1.8,0.4-3.3,1.3-4.3s2-1.5,3.4-1.5c0.8,0,1.5,0.1,2.1,0.4
			s1.1,0.7,1.7,1.3v-4.3c0-0.6,0.1-1.1,0.4-1.4c0.2-0.3,0.6-0.5,1-0.5s0.8,0.1,1,0.4s0.4,0.7,0.4,1.3v12.9c0,0.6-0.1,1-0.4,1.3
			c-0.3,0.3-0.6,0.4-1,0.4s-0.7-0.1-1-0.4C863.2,118.3,863,117.9,863,117.4z M857.4,113c0,0.8,0.1,1.5,0.4,2c0.2,0.6,0.6,1,1,1.3
			s0.9,0.4,1.4,0.4s1-0.1,1.4-0.4s0.7-0.7,1-1.2c0.2-0.6,0.4-1.2,0.4-2.1c0-0.8-0.1-1.5-0.4-2c-0.2-0.6-0.6-1-1-1.3
			s-0.9-0.4-1.4-0.4s-1,0.2-1.4,0.5s-0.7,0.7-1,1.3C857.5,111.6,857.4,112.3,857.4,113z"/>
		<path class="st9" d="M780.5,136.6h-3.4V148c0,0.7-0.1,1.1-0.4,1.5c-0.3,0.3-0.7,0.5-1.1,0.5c-0.5,0-0.8-0.2-1.1-0.5
			s-0.4-0.8-0.4-1.5v-11.4h-3.4c-0.5,0-0.9-0.1-1.2-0.4c-0.3-0.2-0.4-0.6-0.4-1s0.1-0.7,0.4-1c0.3-0.2,0.7-0.4,1.2-0.4h9.9
			c0.5,0,0.9,0.1,1.2,0.4c0.3,0.2,0.4,0.6,0.4,1s-0.1,0.7-0.4,1C781.4,136.5,781,136.6,780.5,136.6z"/>
		<path class="st9" d="M794.4,144.1c0,0.9-0.1,1.7-0.4,2.4s-0.6,1.4-1.1,1.9s-1.1,0.9-1.8,1.2c-0.7,0.3-1.5,0.4-2.4,0.4
			s-1.6-0.1-2.3-0.4s-1.3-0.7-1.8-1.2s-0.9-1.2-1.1-1.9c-0.3-0.7-0.4-1.5-0.4-2.4s0.1-1.7,0.4-2.4s0.6-1.4,1.1-1.9s1.1-0.9,1.8-1.2
			c0.7-0.3,1.5-0.4,2.3-0.4c0.9,0,1.6,0.1,2.4,0.4c0.7,0.3,1.3,0.7,1.8,1.2s0.9,1.2,1.1,1.9C794.3,142.4,794.4,143.2,794.4,144.1z
			 M791.6,144.1c0-1.2-0.3-2.1-0.8-2.8c-0.5-0.7-1.2-1-2.1-1c-0.6,0-1,0.1-1.5,0.4c-0.4,0.3-0.8,0.7-1,1.3s-0.3,1.3-0.3,2
			c0,0.8,0.1,1.4,0.3,2s0.5,1,1,1.3c0.4,0.3,0.9,0.5,1.5,0.5c0.9,0,1.6-0.3,2.1-1C791.3,146.2,791.6,145.3,791.6,144.1z"/>
		<path class="st9" d="M799.3,139.8v0.4c0.5-0.7,1.1-1.2,1.7-1.5c0.6-0.3,1.2-0.5,2-0.5c0.9,0,1.7,0.2,2.4,0.7s1.3,1.1,1.8,2
			s0.6,2,0.6,3.2c0,0.9-0.1,1.7-0.4,2.5c-0.2,0.8-0.6,1.4-1,1.9s-0.9,0.9-1.5,1.2c-0.6,0.3-1.2,0.4-1.9,0.4c-0.8,0-1.5-0.2-2.1-0.5
			s-1.1-0.8-1.6-1.5v4.4c0,1.3-0.5,1.9-1.4,1.9c-0.5,0-0.9-0.2-1.1-0.5c-0.2-0.3-0.3-0.8-0.3-1.5v-12.7c0-0.6,0.1-1,0.4-1.3
			c0.2-0.3,0.6-0.4,1-0.4s0.7,0.1,1,0.4C799.2,138.8,799.3,139.2,799.3,139.8z M804.9,144c0-0.8-0.1-1.4-0.3-2s-0.5-1-1-1.3
			c-0.4-0.3-0.9-0.4-1.4-0.4c-0.8,0-1.5,0.3-2,1s-0.8,1.6-0.8,2.8c0,1.2,0.3,2.1,0.8,2.7s1.2,1,2,1c0.5,0,0.9-0.1,1.3-0.4
			c0.4-0.3,0.7-0.7,1-1.3S804.9,144.8,804.9,144z"/>
		<path class="st9" d="M810,148.2v-12.7c0-0.6,0.1-1,0.4-1.3c0.3-0.3,0.6-0.5,1-0.5s0.8,0.1,1,0.4c0.3,0.3,0.4,0.7,0.4,1.3v12.7
			c0,0.6-0.1,1-0.4,1.3c-0.3,0.3-0.6,0.4-1,0.4s-0.8-0.2-1-0.5C810.2,149.3,810,148.8,810,148.2z"/>
		<path class="st9" d="M823.8,144.8h-5.6c0,0.7,0.1,1.3,0.4,1.8c0.3,0.5,0.6,0.9,1,1.1c0.4,0.3,0.9,0.4,1.4,0.4c0.3,0,0.7,0,0.9-0.1
			c0.3-0.1,0.6-0.2,0.8-0.4c0.3-0.2,0.5-0.4,0.7-0.6s0.5-0.5,0.9-0.8c0.1-0.1,0.4-0.2,0.6-0.2c0.3,0,0.5,0.1,0.7,0.2
			c0.2,0.2,0.3,0.4,0.3,0.7c0,0.3-0.1,0.6-0.3,0.9c-0.2,0.4-0.5,0.7-0.9,1s-0.9,0.6-1.5,0.8c-0.6,0.2-1.3,0.3-2.1,0.3
			c-1.8,0-3.3-0.5-4.3-1.6s-1.5-2.5-1.5-4.4c0-0.9,0.1-1.7,0.4-2.4c0.3-0.7,0.6-1.4,1.1-1.9s1.1-0.9,1.8-1.2
			c0.7-0.3,1.5-0.4,2.3-0.4c1.1,0,2.1,0.2,2.9,0.7c0.8,0.5,1.4,1.1,1.8,1.9c0.4,0.8,0.6,1.5,0.6,2.3c0,0.7-0.2,1.2-0.6,1.4
			C825.1,144.7,824.6,144.8,823.8,144.8z M818.2,143.1h5.2c-0.1-1-0.3-1.8-0.8-2.3s-1.1-0.7-1.8-0.7s-1.3,0.3-1.8,0.8
			C818.6,141.4,818.3,142.1,818.2,143.1z"/>
		<path class="st9" d="M835.8,148.4c-0.7,0.6-1.4,1-2,1.2c-0.6,0.3-1.4,0.4-2.2,0.4c-0.7,0-1.4-0.1-1.9-0.4c-0.6-0.3-1-0.7-1.3-1.2
			s-0.4-1.1-0.4-1.7c0-0.8,0.2-1.5,0.7-2.1s1.2-0.9,2-1.1c0.2,0,0.6-0.1,1.3-0.3c0.7-0.2,1.3-0.3,1.8-0.4s1.1-0.3,1.7-0.5
			c0-0.8-0.2-1.3-0.5-1.7c-0.3-0.4-0.8-0.5-1.7-0.5c-0.7,0-1.3,0.1-1.6,0.3c-0.4,0.2-0.7,0.5-0.9,0.9c-0.3,0.4-0.4,0.7-0.6,0.8
			c-0.1,0.1-0.3,0.2-0.7,0.2c-0.3,0-0.6-0.1-0.8-0.3c-0.2-0.2-0.3-0.5-0.3-0.8c0-0.5,0.2-1,0.5-1.5c0.4-0.5,0.9-0.9,1.7-1.2
			c0.8-0.3,1.7-0.5,2.8-0.5c1.3,0,2.2,0.2,3,0.5c0.7,0.3,1.2,0.8,1.5,1.4c0.3,0.7,0.4,1.5,0.4,2.6c0,0.7,0,1.3,0,1.8s0,1,0,1.6
			s0.1,1.1,0.3,1.7s0.3,1,0.3,1.2c0,0.3-0.1,0.6-0.4,0.8c-0.3,0.2-0.6,0.4-0.9,0.4c-0.3,0-0.6-0.1-0.9-0.4
			C836.4,149.3,836.1,148.9,835.8,148.4z M835.6,144.1c-0.4,0.2-1,0.3-1.8,0.5s-1.3,0.3-1.7,0.4c-0.3,0.1-0.6,0.2-0.9,0.5
			c-0.3,0.2-0.4,0.6-0.4,1s0.2,0.8,0.5,1.1c0.3,0.3,0.8,0.5,1.3,0.5c0.6,0,1.1-0.1,1.6-0.4s0.8-0.6,1-1c0.3-0.4,0.4-1.2,0.4-2.2
			L835.6,144.1L835.6,144.1z"/>
		<path class="st9" d="M844.1,145.8v2.4c0,0.6-0.1,1-0.4,1.3c-0.3,0.3-0.6,0.4-1,0.4s-0.7-0.2-1-0.5s-0.4-0.7-0.4-1.3v-8.2
			c0-1.3,0.5-2,1.4-2c0.5,0,0.8,0.2,1,0.5s0.3,0.8,0.3,1.4c0.3-0.6,0.7-1.1,1-1.4c0.4-0.3,0.8-0.5,1.4-0.5c0.6,0,1.2,0.2,1.7,0.5
			c0.6,0.3,0.8,0.7,0.8,1.2c0,0.4-0.1,0.7-0.4,0.9c-0.2,0.2-0.5,0.3-0.8,0.3c-0.1,0-0.4-0.1-0.8-0.2c-0.4-0.1-0.8-0.2-1.1-0.2
			c-0.4,0-0.8,0.1-1,0.3c-0.3,0.2-0.5,0.6-0.6,1s-0.2,1-0.3,1.6C844.1,144.2,844.1,144.9,844.1,145.8z"/>
		<path class="st9" d="M853.2,139.7v0.4c0.5-0.7,1.1-1.2,1.6-1.5c0.6-0.3,1.3-0.5,2.1-0.5s1.4,0.2,2,0.5s1,0.8,1.3,1.4
			c0.2,0.4,0.3,0.7,0.4,1.2s0.1,0.9,0.1,1.6v5.5c0,0.6-0.1,1-0.4,1.3c-0.3,0.3-0.6,0.5-1,0.5s-0.8-0.2-1-0.5s-0.4-0.7-0.4-1.3v-4.9
			c0-1-0.1-1.7-0.4-2.2c-0.3-0.5-0.8-0.8-1.6-0.8c-0.5,0-1,0.2-1.4,0.5s-0.7,0.7-0.9,1.3c-0.1,0.4-0.2,1.3-0.2,2.4v3.7
			c0,0.6-0.1,1-0.4,1.3c-0.3,0.3-0.6,0.4-1,0.4s-0.7-0.2-1-0.5s-0.4-0.7-0.4-1.3v-8.5c0-0.6,0.1-1,0.4-1.3c0.2-0.3,0.6-0.4,1-0.4
			c0.3,0,0.5,0.1,0.7,0.2s0.4,0.3,0.5,0.5S853.2,139.4,853.2,139.7z"/>
	</g>
	<path class="st10" d="M778.5,199h74c4.4,0,8-3.6,8-8l0,0c0-4.4-3.6-8-8-8h-74c-4.4,0-8,3.6-8,8l0,0
		C770.5,195.4,774.1,199,778.5,199z"/>
	<path class="st10" d="M779.5,227h74c4.4,0,8-3.6,8-8l0,0c0-4.4-3.6-8-8-8h-74c-4.4,0-8,3.6-8,8l0,0
		C771.5,223.4,775.1,227,779.5,227z"/>
	<path class="st11" d="M778.9,261h44.7c3.5,0,6.4-2.9,6.4-6.4v-3.2c0-3.5-2.9-6.4-6.4-6.4h-44.7c-3.5,0-6.4,2.9-6.4,6.4v3.2
		C772.5,258.1,775.4,261,778.9,261z"/>
</g>
<path class="st12" d="M769-191.3l-6.6-2.4c-5.4-2-9.6-6.2-11.6-11.6l-2.4-6.6c-0.1-0.3-0.3-0.4-0.6-0.4s-0.5,0.2-0.6,0.4l-2.4,6.6
	c-2,5.4-6.2,9.6-11.6,11.6l-6.6,2.4c-0.3,0.1-0.4,0.3-0.4,0.6c0,0.3,0.2,0.5,0.4,0.6l6.6,2.4c5.4,2,9.6,6.2,11.6,11.6l2.4,6.6
	c0.1,0.2,0.3,0.4,0.6,0.4s0.5-0.2,0.6-0.4l2.4-6.6c2-5.4,6.2-9.6,11.6-11.6l6.6-2.4c0.3-0.1,0.4-0.3,0.4-0.6
	C769.4-190.9,769.3-191.2,769-191.3L769-191.3z"/>
<path class="st12" d="M798.8-203.9l-4-1.5c-3.2-1.2-5.7-3.7-6.9-6.9l-1.5-4c-0.1-0.1-0.2-0.2-0.4-0.2s-0.3,0.1-0.4,0.2l-1.5,4
	c-1.2,3.2-3.7,5.7-6.9,6.9l-4,1.5c-0.1,0.1-0.2,0.2-0.2,0.4s0.1,0.3,0.2,0.4l4,1.5c3.2,1.2,5.7,3.7,6.9,6.9l1.5,4
	c0.1,0.1,0.2,0.2,0.4,0.2s0.3-0.1,0.4-0.2l1.5-4c1.2-3.2,3.7-5.7,6.9-6.9l4-1.5c0.1-0.1,0.2-0.2,0.2-0.4S798.9-203.9,798.8-203.9
	L798.8-203.9z"/>
<path class="st13" d="M957-12.5l-3.6-1.3c-2.9-1.1-5.2-3.3-6.2-6.2l-1.3-3.6c0-0.1-0.2-0.2-0.3-0.2s-0.3,0.1-0.3,0.2L944-20
	c-1.1,2.9-3.3,5.2-6.2,6.2l-3.6,1.3c-0.1,0-0.2,0.2-0.2,0.3s0.1,0.3,0.2,0.3l3.6,1.3c2.9,1.1,5.2,3.4,6.2,6.2l1.3,3.6
	c0,0.1,0.2,0.2,0.3,0.2s0.3-0.1,0.3-0.2l1.3-3.6c1.1-2.9,3.4-5.2,6.2-6.2l3.6-1.3c0.1,0,0.2-0.2,0.2-0.3
	C957.3-12.4,957.2-12.5,957-12.5L957-12.5z"/>
<circle class="st14" cx="398.8" cy="-225.8" r="9.2"/>
<circle class="st12" cx="546" cy="-187.8" r="5.6"/>
<circle class="st15" cx="454.8" cy="-184.9" r="8.7"/>
<circle class="st16" cx="933" cy="110.1" r="10.6"/>
<circle class="st17" cx="589.8" cy="422.7" r="12.6"/>
<path class="st18" d="M342.4,308.5c0-14.8,12.7-15.3,14.1-15.3h0.1c0.8,0,1.5-0.7,1.5-1.6c0-0.8-0.7-1.5-1.5-1.5l0,0l0,0
	c-1.4,0-14.1-0.5-14.1-15.3c0-0.8-0.7-1.5-1.5-1.5s-1.5,0.7-1.5,1.5c0,14.8-12.7,15.3-14.1,15.3l0,0l0,0c-0.1,0-0.1,0-0.1,0
	c-0.8,0.1-1.4,0.7-1.4,1.5s0.7,1.5,1.5,1.5l0,0c1.5,0,14.1,0.5,14.1,15.3c0,0.8,0.7,1.5,1.5,1.5C341.7,310,342.4,309.3,342.4,308.5z
	 M332.4,291.6c3.4-1.4,6.6-4.1,8.5-8.4c1.9,4.5,5.3,6.9,8.5,8.4c-3.4,1.4-6.6,4.1-8.5,8.4C339,295.4,335.6,293,332.4,291.6z"/>
<circle class="st12" cx="363.7" cy="374.7" r="5.6"/>
<g>
	<path class="st19" d="M642.3,24.7h-16.1V12c0-1.3-1.1-2.4-2.4-2.4s-2.4,1.1-2.4,2.4v12.8h-9.8V-0.7c0-8.6-7-15.6-15.6-15.6
		s-15.6,7-15.6,15.6v25.5h-9.8V-0.7c0-14,11.4-25.5,25.5-25.5c6.4,0,12.5,2.4,17.2,6.7c4.7,4.3,7.6,10.1,8.1,16.4
		c0.1,1.3,1.3,2.3,2.6,2.2c1.3-0.1,2.3-1.3,2.2-2.6c-0.7-7.5-4.1-14.4-9.6-19.5c-5.6-5.1-12.8-8-20.4-8C579.5-31,566-17.4,566-0.8
		v25.5h-16.1c-7,0-12.7,5.7-12.7,12.7v28c0,1.3,1.1,2.4,2.4,2.4c1.3,0,2.4-1.1,2.4-2.4v-7.8h108.4v61.3c0,4.4-3.6,7.9-7.9,7.9H550
		c-4.4,0-7.9-3.6-7.9-7.9V79.7c0-1.3-1.1-2.4-2.4-2.4s-2.4,1.1-2.4,2.4v39.2c0,7,5.7,12.7,12.7,12.7h92.5c7,0,12.7-5.7,12.7-12.7
		V37.4C655,30.4,649.3,24.7,642.3,24.7L642.3,24.7z M585.2-0.7c0-6,4.9-10.9,10.9-10.9S607-6.7,607-0.7v25.5h-21.8V-0.7z
		 M650.2,52.9H541.8V37.5c0-4.4,3.6-7.9,7.9-7.9h92.5c4.4,0,7.9,3.6,7.9,7.9v15.4H650.2z"/>
	<path class="st19" d="M596,105.6c4,0,7.2-3.2,7.2-7.2v-5.7c0-0.3,0.1-0.5,0.4-0.7c3-2.3,4.7-5.8,4.7-9.6c0-3.5-1.5-6.8-4.1-9.1
		c-2.6-2.3-6.1-3.4-9.5-3c-5.7,0.6-10.2,5.1-10.8,10.8c-0.4,4.3,1.3,8.4,4.7,11c0.2,0.2,0.3,0.4,0.3,0.7v5.7
		C588.8,102.4,592.1,105.6,596,105.6L596,105.6z M588.6,81.5c0.4-3.5,3.1-6.2,6.6-6.6c0.3,0,0.6,0,0.9,0c1.8,0,3.6,0.7,5,1.9
		c1.6,1.4,2.5,3.4,2.5,5.6c0,2.3-1,4.5-2.9,5.9c-1.4,1.1-2.2,2.7-2.2,4.5v5.7c0,1.3-1.1,2.4-2.4,2.4c-1.3,0-2.4-1.1-2.4-2.4v-5.7
		c0-1.7-0.8-3.4-2.1-4.4C589.4,86.7,588.3,84.2,588.6,81.5L588.6,81.5z"/>
	<path class="st19" d="M573.7,33c-4.5,0-8.2,3.7-8.2,8.2s3.7,8.2,8.2,8.2s8.2-3.7,8.2-8.2C581.8,36.7,578.2,33,573.7,33L573.7,33z
		 M573.7,44.6c-1.9,0-3.4-1.5-3.4-3.4s1.5-3.4,3.4-3.4s3.4,1.5,3.4,3.4S575.5,44.6,573.7,44.6L573.7,44.6z"/>
	<path class="st19" d="M596,33c-4.5,0-8.2,3.7-8.2,8.2s3.7,8.2,8.2,8.2s8.2-3.7,8.2-8.2S600.5,33,596,33L596,33z M596,44.6
		c-1.9,0-3.4-1.5-3.4-3.4s1.5-3.4,3.4-3.4s3.4,1.5,3.4,3.4S597.9,44.6,596,44.6L596,44.6z"/>
	<path class="st19" d="M618.4,33c-4.5,0-8.2,3.7-8.2,8.2s3.7,8.2,8.2,8.2s8.2-3.7,8.2-8.2S622.9,33,618.4,33L618.4,33z M618.4,44.6
		c-1.9,0-3.4-1.5-3.4-3.4s1.5-3.4,3.4-3.4c1.9,0,3.4,1.5,3.4,3.4S620.3,44.6,618.4,44.6L618.4,44.6z"/>
</g>
</svg>
