<?xml version="1.0" encoding="utf-8"?>
<!-- Generator: Adobe Illustrator 19.0.0, SVG Export Plug-In . SVG Version: 6.00 Build 0)  -->
<svg version="1.1" id="Layer_1" xmlns="http://www.w3.org/2000/svg" xmlns:xlink="http://www.w3.org/1999/xlink" x="0px" y="0px"
	 viewBox="254 -254 708 708" style="enable-background:new 254 -254 708 708;" xml:space="preserve">
<style type="text/css">
	.st0{fill:none;stroke:url(#SVGID_1_);stroke-width:1.0842;stroke-miterlimit:10;}
	.st1{fill:#FFFFFF;}
	.st2{fill:#EDF0F7;}
	.st3{fill:#4185F4;}
	.st4{fill:#6F7989;stroke:#FFFFFF;stroke-width:11;stroke-miterlimit:10;}
	.st5{fill:#6F7989;stroke:#FFFFFF;stroke-width:6;stroke-miterlimit:10;}
	.st6{fill:#ECEFF7;}
	.st7{fill:#FFFFFF;stroke:#6F7989;stroke-width:4.0082;stroke-miterlimit:10;}
	.st8{fill:#6F7989;}
	.st9{fill:#818FA1;}
	.st10{fill:#E4EAEF;}
	.st11{fill:#BAC9D1;}
	.st12{fill:#DDE3ED;}
	.st13{fill:#B577ED;}
	.st14{fill:#F4EA78;}
	.st15{fill:#FFFFFF;stroke:#DDE3ED;stroke-width:2.8496;stroke-miterlimit:10;}
	.st16{fill:#FFFFFF;stroke:#DDE3ED;stroke-width:3.4905;stroke-miterlimit:10;}
	.st17{fill:#FFFFFF;stroke:#43EBD4;stroke-width:4.1456;stroke-miterlimit:10;}
	.st18{fill:#DDE2EC;}
	.st19{fill:#6F7989;stroke:#FFFFFF;stroke-miterlimit:10;}
	.st20{fill:#4782FA;}
</style>
<linearGradient id="SVGID_1_" gradientUnits="userSpaceOnUse" x1="1764.3741" y1="-9.5806" x2="2413.8647" y2="-9.5806" gradientTransform="matrix(-0.7071 -0.7071 0.7071 -0.7071 2089.3711 1574.4419)">
	<stop  offset="0" style="stop-color:#D2D5E4"/>
	<stop  offset="0.5269" style="stop-color:#FFFFFF"/>
	<stop  offset="1" style="stop-color:#D2D5E4"/>
</linearGradient>
<circle class="st0" cx="605.4" cy="104" r="324.2"/>
<rect x="343.6" y="-78.5" class="st1" width="464" height="240"/>
<path class="st2" d="M676.6,305.5c8.8,0,16,7.2,16,16c-0.1,8.8-7.2,15.9-16,16h-176c-8.8,0-16-7.2-16-16c0.1-8.8,7.2-15.9,16-16
	H676.6z"/>
<path class="st2" d="M817.6-97.5v32h-464v-32c0.1-17.7,14.3-31.9,32-32h400C803.3-129.5,817.6-115.2,817.6-97.5L817.6-97.5z"/>
<path class="st3" d="M633.1-8.7"/>
<g>
	<path class="st2" d="M652.6,306.5h-128l8-64h112L652.6,306.5z"/>
	<path class="st2" d="M820.6,178.5v32c-0.1,17.7-14.3,31.9-32,32h-400c-17.7-0.1-31.9-14.3-32-32v-32H820.6z"/>
	<path class="st4" d="M788.6-133.5h-400c-22.1,0-40,17.9-40,40v304c0,22.1,17.9,40,40,40h134.9l-6,48h-16.9c-13.3,0-24,10.7-24,24
		s10.7,24,24,24h176c13.3,0,24-10.7,24-24s-10.7-24-24-24h-16.9l-6-48h134.9c22.1,0,40-17.9,40-40v-304
		C828.6-115.6,810.7-133.5,788.6-133.5L788.6-133.5z M388.6-117.5h400c13.3,0,24,10.7,24,24v24h-448v-24
		C364.6-106.8,375.3-117.5,388.6-117.5L388.6-117.5z M812.6-53.5v224h-448v-224H812.6z M684.6,322.5c0,4.4-3.6,8-8,8h-176
		c-4.4,0-8-3.6-8-8s3.6-8,8-8h176C681,314.5,684.6,318.1,684.6,322.5L684.6,322.5z M643.5,298.5H533.7l6-48h97.9L643.5,298.5z
		 M788.6,234.5h-400c-13.3,0-24-10.7-24-24v-24h448v24C812.6,223.8,801.9,234.5,788.6,234.5L788.6,234.5z"/>
	<rect x="812.6" y="-19.7" class="st1" width="16" height="14.3"/>
	<rect x="812.6" y="-38.5" class="st1" width="16" height="10.1"/>
	<circle class="st1" cx="588.5" cy="210.5" r="9"/>
	<rect x="348.6" y="110.5" class="st1" width="16" height="19"/>
	<rect x="348.6" y="86.5" class="st1" width="16" height="9.5"/>
</g>
<g>
	<path class="st5" d="M742.4,343.5h139.5c6.9,0,12.6-5.7,12.6-12.6V71.6c0-6.9-5.7-12.6-12.6-12.6H742.4c-6.9,0-12.6,5.7-12.6,12.6
		v259.3C729.8,337.8,735.4,343.5,742.4,343.5z"/>
	<path class="st6" d="M745.6,335.7h133.2c4.4,0,8-3.6,8-8V74.5c0-4.4-3.6-8-8-8H745.6c-4.4,0-8,3.6-8,8v253.2
		C737.6,332.1,741.2,335.7,745.6,335.7z"/>
	<path class="st7" d="M760.3,302H864c5.3,0,9.6-4.3,9.6-9.6V88.7c0-5.3-4.3-9.6-9.6-9.6H760.3c-5.3,0-9.6,4.3-9.6,9.6v203.7
		C750.7,297.7,755,302,760.3,302z"/>
	<circle class="st8" cx="812.2" cy="319.6" r="7.5"/>
	<g>
		<rect x="726.6" y="288.8" class="st1" width="11" height="14.3"/>
		<rect x="726.6" y="272" class="st1" width="11" height="10.1"/>
	</g>
	<g>
		<path class="st9" d="M770.2,116.4H769v5.5c0,0.7-0.2,1.3-0.5,1.6s-0.7,0.5-1.2,0.5s-1-0.2-1.3-0.5c-0.3-0.4-0.4-0.9-0.4-1.6v-13.2
			c0-0.8,0.2-1.3,0.5-1.6c0.3-0.3,0.9-0.5,1.6-0.5h5.5c0.8,0,1.4,0,1.9,0.1s1,0.2,1.5,0.4c0.5,0.2,1,0.6,1.4,1s0.7,0.9,0.9,1.5
			s0.3,1.2,0.3,1.8c0,1.3-0.4,2.3-1.1,3.1c-0.7,0.8-1.8,1.3-3.2,1.6c0.6,0.3,1.2,0.8,1.7,1.5s1,1.3,1.5,2c0.4,0.7,0.8,1.4,1,2
			s0.4,1,0.4,1.2s-0.1,0.5-0.2,0.7s-0.3,0.4-0.6,0.5s-0.5,0.2-0.8,0.2c-0.4,0-0.7-0.1-1-0.3s-0.5-0.4-0.7-0.7s-0.4-0.7-0.8-1.2
			l-1.4-2.3c-0.5-0.9-0.9-1.5-1.3-1.9s-0.8-0.8-1.2-0.9S770.8,116.4,770.2,116.4z M772.1,109.2H769v4.7h3c0.8,0,1.5-0.1,2.1-0.2
			s1-0.4,1.3-0.7c0.3-0.3,0.4-0.8,0.4-1.4c0-0.5-0.1-0.9-0.4-1.3s-0.6-0.6-1-0.8C774.1,109.2,773.3,109.2,772.1,109.2z"/>
		<path class="st9" d="M790.9,118.3h-6.1c0,0.7,0.2,1.4,0.4,1.9s0.6,1,1.1,1.3s1,0.4,1.5,0.4c0.4,0,0.7,0,1-0.1s0.6-0.2,0.9-0.4
			c0.3-0.2,0.6-0.4,0.8-0.6s0.6-0.5,0.9-0.9c0.2-0.1,0.4-0.2,0.7-0.2s0.6,0.1,0.8,0.3c0.2,0.2,0.3,0.4,0.3,0.8c0,0.3-0.1,0.6-0.3,1
			s-0.6,0.8-1,1.1s-1,0.7-1.7,0.9s-1.4,0.4-2.3,0.4c-2,0-3.6-0.6-4.7-1.8c-1.1-1.2-1.7-2.8-1.7-4.8c0-0.9,0.1-1.8,0.4-2.6
			s0.7-1.5,1.2-2.1s1.2-1,1.9-1.3s1.6-0.5,2.6-0.5c1.2,0,2.3,0.3,3.1,0.8s1.5,1.2,2,2c0.4,0.8,0.7,1.7,0.7,2.6
			c0,0.8-0.2,1.3-0.7,1.6S791.7,118.3,790.9,118.3z M784.8,116.5h5.6c-0.1-1.1-0.4-1.9-0.9-2.5c-0.5-0.5-1.2-0.8-2-0.8
			s-1.4,0.3-1.9,0.8S784.9,115.4,784.8,116.5z"/>
		<path class="st9" d="M807.5,113.3v9.3c0,1.1-0.1,2-0.3,2.7c-0.2,0.8-0.6,1.4-1.1,1.9s-1.1,0.9-1.9,1.1c-0.8,0.2-1.8,0.4-2.9,0.4
			c-1.1,0-2-0.2-2.9-0.5c-0.8-0.3-1.5-0.7-1.9-1.2s-0.7-1-0.7-1.5c0-0.4,0.1-0.7,0.4-1c0.3-0.2,0.6-0.4,0.9-0.4
			c0.5,0,0.9,0.2,1.2,0.6c0.2,0.2,0.3,0.4,0.5,0.6s0.4,0.4,0.6,0.6s0.5,0.3,0.8,0.3c0.3,0.1,0.7,0.1,1,0.1c0.8,0,1.4-0.1,1.9-0.3
			c0.4-0.2,0.8-0.6,0.9-1s0.3-0.9,0.3-1.3s0.1-1.2,0.1-2.3c-0.5,0.7-1,1.2-1.7,1.6s-1.4,0.5-2.2,0.5c-1,0-2-0.3-2.7-0.8
			s-1.4-1.3-1.8-2.3s-0.6-2.1-0.6-3.4c0-1,0.1-1.8,0.4-2.6c0.3-0.8,0.6-1.4,1.1-2c0.5-0.5,1-0.9,1.6-1.2c0.6-0.3,1.3-0.4,2-0.4
			c0.9,0,1.6,0.2,2.3,0.5c0.6,0.3,1.2,0.9,1.8,1.6v-0.4c0-0.6,0.1-1,0.4-1.3c0.3-0.3,0.6-0.5,1-0.5c0.6,0,1,0.2,1.2,0.6
			C807.4,112,807.5,112.6,807.5,113.3z M798.5,117.4c0,1.3,0.3,2.3,0.8,2.9s1.3,1,2.1,1c0.5,0,1-0.1,1.5-0.4s0.8-0.7,1.1-1.3
			c0.3-0.6,0.4-1.3,0.4-2.1c0-1.3-0.3-2.3-0.8-3s-1.3-1.1-2.2-1.1s-1.6,0.3-2.1,1S798.5,116.1,798.5,117.4z"/>
		<path class="st9" d="M812.2,109.5c-0.4,0-0.8-0.1-1.1-0.4s-0.5-0.7-0.5-1.2s0.2-0.8,0.5-1.1s0.7-0.4,1.1-0.4
			c0.4,0,0.8,0.1,1.1,0.4s0.5,0.7,0.5,1.2s-0.2,0.9-0.5,1.2C813,109.4,812.7,109.5,812.2,109.5z M813.8,112.8v9.2
			c0,0.6-0.1,1.1-0.4,1.5c-0.3,0.3-0.7,0.5-1.1,0.5s-0.8-0.2-1.1-0.5s-0.4-0.8-0.4-1.4v-9.2c0-0.6,0.1-1.1,0.4-1.4
			c0.3-0.3,0.7-0.5,1.1-0.5s0.8,0.2,1.1,0.5C813.6,111.8,813.8,112.2,813.8,112.8z"/>
		<path class="st9" d="M827,119.8c0,0.9-0.2,1.6-0.6,2.3s-1,1.1-1.9,1.4c-0.8,0.3-1.8,0.5-3,0.5c-1.1,0-2.1-0.2-2.9-0.5
			s-1.4-0.8-1.8-1.3s-0.6-1.1-0.6-1.6c0-0.4,0.1-0.7,0.4-0.9s0.6-0.4,0.9-0.4c0.3,0,0.6,0.1,0.8,0.2s0.3,0.4,0.5,0.7
			c0.3,0.6,0.7,1,1.1,1.3c0.4,0.3,1,0.4,1.8,0.4c0.6,0,1.1-0.1,1.5-0.4s0.6-0.6,0.6-1c0-0.6-0.2-1-0.6-1.2s-1.1-0.5-2-0.7
			c-1.1-0.3-1.9-0.6-2.6-0.9s-1.2-0.7-1.6-1.2c-0.4-0.5-0.6-1.1-0.6-1.8c0-0.6,0.2-1.2,0.6-1.8c0.4-0.6,0.9-1,1.6-1.4
			s1.6-0.5,2.6-0.5c0.8,0,1.5,0.1,2.2,0.3c0.6,0.2,1.2,0.4,1.6,0.7s0.8,0.6,1,1s0.3,0.7,0.3,1c0,0.4-0.1,0.7-0.4,0.9s-0.6,0.4-1,0.4
			c-0.3,0-0.6-0.1-0.8-0.3c-0.2-0.2-0.5-0.5-0.8-0.8c-0.2-0.3-0.5-0.6-0.8-0.8c-0.3-0.2-0.8-0.3-1.3-0.3c-0.6,0-1,0.1-1.4,0.4
			s-0.6,0.6-0.6,0.9s0.1,0.6,0.4,0.8s0.6,0.4,1.1,0.5s1.1,0.3,1.9,0.5c1,0.2,1.8,0.5,2.4,0.9c0.6,0.3,1.1,0.7,1.4,1.2
			C826.9,118.7,827,119.2,827,119.8z"/>
		<path class="st9" d="M829.8,111.3h0.3v-1.9c0-0.5,0-0.9,0-1.2s0.1-0.5,0.2-0.8c0.1-0.2,0.3-0.4,0.5-0.5s0.5-0.2,0.8-0.2
			c0.4,0,0.8,0.2,1.1,0.5c0.2,0.2,0.3,0.5,0.4,0.7c0.1,0.3,0.1,0.7,0.1,1.2v2.2h1.1c0.4,0,0.8,0.1,1,0.3c0.2,0.2,0.3,0.5,0.3,0.8
			c0,0.4-0.2,0.7-0.5,0.9c-0.3,0.2-0.8,0.3-1.4,0.3h-0.6v5.9c0,0.5,0,0.9,0.1,1.2s0.1,0.5,0.3,0.7c0.1,0.2,0.4,0.3,0.7,0.3
			c0.2,0,0.4,0,0.7-0.1s0.6-0.1,0.7-0.1c0.3,0,0.5,0.1,0.7,0.3s0.3,0.5,0.3,0.8c0,0.5-0.3,0.9-0.8,1.2c-0.5,0.3-1.3,0.4-2.4,0.4
			c-1,0-1.7-0.2-2.2-0.5s-0.8-0.8-1-1.4s-0.2-1.4-0.2-2.4v-6.1h-0.4c-0.4,0-0.8-0.1-1-0.3s-0.4-0.5-0.4-0.8s0.1-0.6,0.4-0.8
			S829.3,111.3,829.8,111.3z"/>
		<path class="st9" d="M846.6,118.3h-6.1c0,0.7,0.2,1.4,0.4,1.9s0.6,1,1.1,1.3s1,0.4,1.5,0.4c0.4,0,0.7,0,1-0.1s0.6-0.2,0.9-0.4
			c0.3-0.2,0.6-0.4,0.8-0.6s0.6-0.5,0.9-0.9c0.2-0.1,0.4-0.2,0.7-0.2s0.6,0.1,0.8,0.3c0.2,0.2,0.3,0.4,0.3,0.8c0,0.3-0.1,0.6-0.3,1
			s-0.6,0.8-1,1.1s-1,0.7-1.7,0.9s-1.4,0.4-2.3,0.4c-2,0-3.6-0.6-4.7-1.8c-1.1-1.2-1.7-2.8-1.7-4.8c0-0.9,0.1-1.8,0.4-2.6
			s0.7-1.5,1.2-2.1s1.2-1,1.9-1.3s1.6-0.5,2.6-0.5c1.2,0,2.3,0.3,3.1,0.8s1.5,1.2,2,2c0.4,0.8,0.7,1.7,0.7,2.6
			c0,0.8-0.2,1.3-0.7,1.6S847.4,118.3,846.6,118.3z M840.5,116.5h5.6c-0.1-1.1-0.4-1.9-0.9-2.5c-0.5-0.5-1.2-0.8-2-0.8
			s-1.4,0.3-1.9,0.8S840.6,115.4,840.5,116.5z"/>
		<path class="st9" d="M854.9,119.4v2.7c0,0.6-0.1,1.1-0.4,1.5c-0.3,0.3-0.7,0.5-1.1,0.5c-0.4,0-0.8-0.2-1.1-0.5s-0.4-0.8-0.4-1.5
			v-8.9c0-1.4,0.5-2.2,1.5-2.2c0.5,0,0.9,0.2,1.1,0.5c0.2,0.3,0.4,0.8,0.4,1.5c0.4-0.7,0.8-1.2,1.1-1.5s0.9-0.5,1.6-0.5
			s1.3,0.2,1.9,0.5c0.6,0.3,0.9,0.8,0.9,1.3c0,0.4-0.1,0.7-0.4,1c-0.3,0.3-0.5,0.4-0.8,0.4c-0.1,0-0.4-0.1-0.8-0.2
			c-0.4-0.1-0.8-0.2-1.2-0.2c-0.5,0-0.8,0.1-1.1,0.4c-0.3,0.2-0.5,0.6-0.7,1.1s-0.3,1.1-0.3,1.7
			C854.9,117.6,854.9,118.4,854.9,119.4z"/>
		<path class="st9" d="M777.1,141.6h-3.4V153c0,0.7-0.1,1.1-0.4,1.5c-0.3,0.3-0.7,0.5-1.1,0.5c-0.5,0-0.8-0.2-1.1-0.5
			s-0.4-0.8-0.4-1.5v-11.4h-3.4c-0.5,0-0.9-0.1-1.2-0.4c-0.3-0.2-0.4-0.6-0.4-1s0.1-0.7,0.4-1c0.3-0.2,0.7-0.4,1.2-0.4h9.9
			c0.5,0,0.9,0.1,1.2,0.4c0.3,0.2,0.4,0.6,0.4,1s-0.1,0.7-0.4,1C778,141.5,777.6,141.6,777.1,141.6z"/>
		<path class="st9" d="M791,149c0,0.9-0.1,1.7-0.4,2.4s-0.6,1.4-1.1,1.9s-1.1,0.9-1.8,1.2s-1.5,0.4-2.4,0.4s-1.6-0.1-2.3-0.4
			s-1.3-0.7-1.8-1.2s-0.9-1.2-1.1-1.9c-0.3-0.7-0.4-1.5-0.4-2.4s0.1-1.7,0.4-2.4s0.6-1.4,1.1-1.9s1.1-0.9,1.8-1.2s1.5-0.4,2.3-0.4
			c0.9,0,1.6,0.1,2.4,0.4c0.7,0.3,1.3,0.7,1.8,1.2s0.9,1.2,1.1,1.9C790.9,147.3,791,148.1,791,149z M788.2,149
			c0-1.2-0.3-2.1-0.8-2.8s-1.2-1-2.1-1c-0.6,0-1,0.1-1.5,0.4c-0.4,0.3-0.8,0.7-1,1.3s-0.3,1.3-0.3,2c0,0.8,0.1,1.4,0.3,2
			s0.5,1,1,1.3c0.4,0.3,0.9,0.5,1.5,0.5c0.9,0,1.6-0.3,2.1-1C787.9,151.1,788.2,150.2,788.2,149z"/>
		<path class="st9" d="M795.9,144.7v0.4c0.5-0.7,1.1-1.2,1.7-1.5c0.6-0.3,1.2-0.5,2-0.5c0.9,0,1.7,0.2,2.4,0.7s1.3,1.1,1.8,2
			s0.6,2,0.6,3.2c0,0.9-0.1,1.7-0.4,2.5c-0.2,0.8-0.6,1.4-1,1.9s-0.9,0.9-1.5,1.2s-1.2,0.4-1.9,0.4c-0.8,0-1.5-0.2-2.1-0.5
			s-1.1-0.8-1.6-1.5v4.4c0,1.3-0.5,1.9-1.4,1.9c-0.5,0-0.9-0.2-1.1-0.5c-0.2-0.3-0.3-0.8-0.3-1.5v-12.7c0-0.6,0.1-1,0.4-1.3
			c0.2-0.3,0.6-0.4,1-0.4s0.7,0.1,1,0.4C795.8,143.8,795.9,144.2,795.9,144.7z M801.5,149c0-0.8-0.1-1.4-0.3-2s-0.5-1-1-1.3
			c-0.4-0.3-0.9-0.4-1.4-0.4c-0.8,0-1.5,0.3-2,1s-0.8,1.6-0.8,2.8s0.3,2.1,0.8,2.7s1.2,1,2,1c0.5,0,0.9-0.1,1.3-0.4
			c0.4-0.3,0.7-0.7,1-1.3S801.5,149.8,801.5,149z"/>
		<path class="st9" d="M806.6,153.2v-12.7c0-0.6,0.1-1,0.4-1.3c0.3-0.3,0.6-0.5,1-0.5s0.8,0.1,1,0.4c0.3,0.3,0.4,0.7,0.4,1.3v12.7
			c0,0.6-0.1,1-0.4,1.3c-0.3,0.3-0.6,0.4-1,0.4s-0.8-0.2-1-0.5C806.8,154.2,806.6,153.8,806.6,153.2z"/>
		<path class="st9" d="M820.4,149.7h-5.6c0,0.7,0.1,1.3,0.4,1.8c0.3,0.5,0.6,0.9,1,1.1c0.4,0.3,0.9,0.4,1.4,0.4c0.3,0,0.7,0,0.9-0.1
			c0.3-0.1,0.6-0.2,0.8-0.4c0.3-0.2,0.5-0.4,0.7-0.6s0.5-0.5,0.9-0.8c0.1-0.1,0.4-0.2,0.6-0.2c0.3,0,0.5,0.1,0.7,0.2
			c0.2,0.2,0.3,0.4,0.3,0.7s-0.1,0.6-0.3,0.9c-0.2,0.4-0.5,0.7-0.9,1s-0.9,0.6-1.5,0.8s-1.3,0.3-2.1,0.3c-1.8,0-3.3-0.5-4.3-1.6
			s-1.5-2.5-1.5-4.4c0-0.9,0.1-1.7,0.4-2.4c0.3-0.7,0.6-1.4,1.1-1.9s1.1-0.9,1.8-1.2s1.5-0.4,2.3-0.4c1.1,0,2.1,0.2,2.9,0.7
			c0.8,0.5,1.4,1.1,1.8,1.9c0.4,0.8,0.6,1.5,0.6,2.3c0,0.7-0.2,1.2-0.6,1.4C821.7,149.6,821.2,149.7,820.4,149.7z M814.8,148.1h5.2
			c-0.1-1-0.3-1.8-0.8-2.3s-1.1-0.7-1.8-0.7s-1.3,0.3-1.8,0.8C815.2,146.3,814.9,147.1,814.8,148.1z"/>
		<path class="st9" d="M832.4,153.3c-0.7,0.6-1.4,1-2,1.2c-0.6,0.3-1.4,0.4-2.2,0.4c-0.7,0-1.4-0.1-1.9-0.4c-0.6-0.3-1-0.7-1.3-1.2
			s-0.4-1.1-0.4-1.7c0-0.8,0.2-1.5,0.7-2.1s1.2-0.9,2-1.1c0.2,0,0.6-0.1,1.3-0.3s1.3-0.3,1.8-0.4s1.1-0.3,1.7-0.5
			c0-0.8-0.2-1.3-0.5-1.7s-0.8-0.5-1.7-0.5c-0.7,0-1.3,0.1-1.6,0.3c-0.4,0.2-0.7,0.5-0.9,0.9c-0.3,0.4-0.4,0.7-0.6,0.8
			c-0.1,0.1-0.3,0.2-0.7,0.2c-0.3,0-0.6-0.1-0.8-0.3s-0.3-0.5-0.3-0.8c0-0.5,0.2-1,0.5-1.5c0.4-0.5,0.9-0.9,1.7-1.2s1.7-0.5,2.8-0.5
			c1.3,0,2.2,0.2,3,0.5c0.7,0.3,1.2,0.8,1.5,1.4c0.3,0.7,0.4,1.5,0.4,2.6c0,0.7,0,1.3,0,1.8s0,1,0,1.6s0.1,1.1,0.3,1.7
			s0.3,1,0.3,1.2c0,0.3-0.1,0.6-0.4,0.8c-0.3,0.2-0.6,0.4-0.9,0.4c-0.3,0-0.6-0.1-0.9-0.4C833,154.3,832.7,153.9,832.4,153.3z
			 M832.2,149.1c-0.4,0.2-1,0.3-1.8,0.5s-1.3,0.3-1.7,0.4c-0.3,0.1-0.6,0.2-0.9,0.5c-0.3,0.2-0.4,0.6-0.4,1s0.2,0.8,0.5,1.1
			s0.8,0.5,1.3,0.5c0.6,0,1.1-0.1,1.6-0.4s0.8-0.6,1-1c0.3-0.4,0.4-1.2,0.4-2.2L832.2,149.1L832.2,149.1z"/>
		<path class="st9" d="M840.7,150.8v2.4c0,0.6-0.1,1-0.4,1.3c-0.3,0.3-0.6,0.4-1,0.4s-0.7-0.2-1-0.5s-0.4-0.7-0.4-1.3v-8.2
			c0-1.3,0.5-2,1.4-2c0.5,0,0.8,0.2,1,0.5s0.3,0.8,0.3,1.4c0.3-0.6,0.7-1.1,1-1.4c0.4-0.3,0.8-0.5,1.4-0.5c0.6,0,1.2,0.2,1.7,0.5
			c0.6,0.3,0.8,0.7,0.8,1.2c0,0.4-0.1,0.7-0.4,0.9c-0.2,0.2-0.5,0.3-0.8,0.3c-0.1,0-0.4-0.1-0.8-0.2c-0.4-0.1-0.8-0.2-1.1-0.2
			c-0.4,0-0.8,0.1-1,0.3c-0.3,0.2-0.5,0.6-0.6,1s-0.2,1-0.3,1.6C840.7,149.1,840.7,149.9,840.7,150.8z"/>
		<path class="st9" d="M849.8,144.7v0.4c0.5-0.7,1.1-1.2,1.6-1.5c0.6-0.3,1.3-0.5,2.1-0.5s1.4,0.2,2,0.5s1,0.8,1.3,1.4
			c0.2,0.4,0.3,0.7,0.4,1.2s0.1,0.9,0.1,1.6v5.5c0,0.6-0.1,1-0.4,1.3c-0.3,0.3-0.6,0.5-1,0.5s-0.8-0.2-1-0.5s-0.4-0.7-0.4-1.3v-4.9
			c0-1-0.1-1.7-0.4-2.2c-0.3-0.5-0.8-0.8-1.6-0.8c-0.5,0-1,0.2-1.4,0.5s-0.7,0.7-0.9,1.3c-0.1,0.4-0.2,1.3-0.2,2.4v3.7
			c0,0.6-0.1,1-0.4,1.3c-0.3,0.3-0.6,0.4-1,0.4s-0.7-0.2-1-0.5s-0.4-0.7-0.4-1.3v-8.5c0-0.6,0.1-1,0.4-1.3c0.2-0.3,0.6-0.4,1-0.4
			c0.3,0,0.5,0.1,0.7,0.2s0.4,0.3,0.5,0.5S849.8,144.3,849.8,144.7z"/>
	</g>
	<g>
		<path class="st9" d="M770.2,116.4H769v5.5c0,0.7-0.2,1.3-0.5,1.6s-0.7,0.5-1.2,0.5s-1-0.2-1.3-0.5c-0.3-0.4-0.4-0.9-0.4-1.6v-13.2
			c0-0.8,0.2-1.3,0.5-1.6c0.3-0.3,0.9-0.5,1.6-0.5h5.5c0.8,0,1.4,0,1.9,0.1s1,0.2,1.5,0.4c0.5,0.2,1,0.6,1.4,1s0.7,0.9,0.9,1.5
			s0.3,1.2,0.3,1.8c0,1.3-0.4,2.3-1.1,3.1c-0.7,0.8-1.8,1.3-3.2,1.6c0.6,0.3,1.2,0.8,1.7,1.5s1,1.3,1.5,2c0.4,0.7,0.8,1.4,1,2
			s0.4,1,0.4,1.2s-0.1,0.5-0.2,0.7s-0.3,0.4-0.6,0.5s-0.5,0.2-0.8,0.2c-0.4,0-0.7-0.1-1-0.3s-0.5-0.4-0.7-0.7s-0.4-0.7-0.8-1.2
			l-1.4-2.3c-0.5-0.9-0.9-1.5-1.3-1.9s-0.8-0.8-1.2-0.9S770.8,116.4,770.2,116.4z M772.1,109.2H769v4.7h3c0.8,0,1.5-0.1,2.1-0.2
			s1-0.4,1.3-0.7c0.3-0.3,0.4-0.8,0.4-1.4c0-0.5-0.1-0.9-0.4-1.3s-0.6-0.6-1-0.8C774.1,109.2,773.3,109.2,772.1,109.2z"/>
		<path class="st9" d="M790.9,118.3h-6.1c0,0.7,0.2,1.4,0.4,1.9s0.6,1,1.1,1.3s1,0.4,1.5,0.4c0.4,0,0.7,0,1-0.1s0.6-0.2,0.9-0.4
			c0.3-0.2,0.6-0.4,0.8-0.6s0.6-0.5,0.9-0.9c0.2-0.1,0.4-0.2,0.7-0.2s0.6,0.1,0.8,0.3c0.2,0.2,0.3,0.4,0.3,0.8c0,0.3-0.1,0.6-0.3,1
			s-0.6,0.8-1,1.1s-1,0.7-1.7,0.9s-1.4,0.4-2.3,0.4c-2,0-3.6-0.6-4.7-1.8c-1.1-1.2-1.7-2.8-1.7-4.8c0-0.9,0.1-1.8,0.4-2.6
			s0.7-1.5,1.2-2.1s1.2-1,1.9-1.3s1.6-0.5,2.6-0.5c1.2,0,2.3,0.3,3.1,0.8s1.5,1.2,2,2c0.4,0.8,0.7,1.7,0.7,2.6
			c0,0.8-0.2,1.3-0.7,1.6S791.7,118.3,790.9,118.3z M784.8,116.5h5.6c-0.1-1.1-0.4-1.9-0.9-2.5c-0.5-0.5-1.2-0.8-2-0.8
			s-1.4,0.3-1.9,0.8S784.9,115.4,784.8,116.5z"/>
		<path class="st9" d="M807.5,113.3v9.3c0,1.1-0.1,2-0.3,2.7c-0.2,0.8-0.6,1.4-1.1,1.9s-1.1,0.9-1.9,1.1c-0.8,0.2-1.8,0.4-2.9,0.4
			c-1.1,0-2-0.2-2.9-0.5c-0.8-0.3-1.5-0.7-1.9-1.2s-0.7-1-0.7-1.5c0-0.4,0.1-0.7,0.4-1c0.3-0.2,0.6-0.4,0.9-0.4
			c0.5,0,0.9,0.2,1.2,0.6c0.2,0.2,0.3,0.4,0.5,0.6s0.4,0.4,0.6,0.6s0.5,0.3,0.8,0.3c0.3,0.1,0.7,0.1,1,0.1c0.8,0,1.4-0.1,1.9-0.3
			c0.4-0.2,0.8-0.6,0.9-1s0.3-0.9,0.3-1.3s0.1-1.2,0.1-2.3c-0.5,0.7-1,1.2-1.7,1.6s-1.4,0.5-2.2,0.5c-1,0-2-0.3-2.7-0.8
			s-1.4-1.3-1.8-2.3s-0.6-2.1-0.6-3.4c0-1,0.1-1.8,0.4-2.6c0.3-0.8,0.6-1.4,1.1-2c0.5-0.5,1-0.9,1.6-1.2c0.6-0.3,1.3-0.4,2-0.4
			c0.9,0,1.6,0.2,2.3,0.5c0.6,0.3,1.2,0.9,1.8,1.6v-0.4c0-0.6,0.1-1,0.4-1.3c0.3-0.3,0.6-0.5,1-0.5c0.6,0,1,0.2,1.2,0.6
			C807.4,112,807.5,112.6,807.5,113.3z M798.5,117.4c0,1.3,0.3,2.3,0.8,2.9s1.3,1,2.1,1c0.5,0,1-0.1,1.5-0.4s0.8-0.7,1.1-1.3
			c0.3-0.6,0.4-1.3,0.4-2.1c0-1.3-0.3-2.3-0.8-3s-1.3-1.1-2.2-1.1s-1.6,0.3-2.1,1S798.5,116.1,798.5,117.4z"/>
		<path class="st9" d="M812.2,109.5c-0.4,0-0.8-0.1-1.1-0.4s-0.5-0.7-0.5-1.2s0.2-0.8,0.5-1.1s0.7-0.4,1.1-0.4
			c0.4,0,0.8,0.1,1.1,0.4s0.5,0.7,0.5,1.2s-0.2,0.9-0.5,1.2C813,109.4,812.7,109.5,812.2,109.5z M813.8,112.8v9.2
			c0,0.6-0.1,1.1-0.4,1.5c-0.3,0.3-0.7,0.5-1.1,0.5s-0.8-0.2-1.1-0.5s-0.4-0.8-0.4-1.4v-9.2c0-0.6,0.1-1.1,0.4-1.4
			c0.3-0.3,0.7-0.5,1.1-0.5s0.8,0.2,1.1,0.5C813.6,111.8,813.8,112.2,813.8,112.8z"/>
		<path class="st9" d="M827,119.8c0,0.9-0.2,1.6-0.6,2.3s-1,1.1-1.9,1.4c-0.8,0.3-1.8,0.5-3,0.5c-1.1,0-2.1-0.2-2.9-0.5
			s-1.4-0.8-1.8-1.3s-0.6-1.1-0.6-1.6c0-0.4,0.1-0.7,0.4-0.9s0.6-0.4,0.9-0.4c0.3,0,0.6,0.1,0.8,0.2s0.3,0.4,0.5,0.7
			c0.3,0.6,0.7,1,1.1,1.3c0.4,0.3,1,0.4,1.8,0.4c0.6,0,1.1-0.1,1.5-0.4s0.6-0.6,0.6-1c0-0.6-0.2-1-0.6-1.2s-1.1-0.5-2-0.7
			c-1.1-0.3-1.9-0.6-2.6-0.9s-1.2-0.7-1.6-1.2c-0.4-0.5-0.6-1.1-0.6-1.8c0-0.6,0.2-1.2,0.6-1.8c0.4-0.6,0.9-1,1.6-1.4
			s1.6-0.5,2.6-0.5c0.8,0,1.5,0.1,2.2,0.3c0.6,0.2,1.2,0.4,1.6,0.7s0.8,0.6,1,1s0.3,0.7,0.3,1c0,0.4-0.1,0.7-0.4,0.9s-0.6,0.4-1,0.4
			c-0.3,0-0.6-0.1-0.8-0.3c-0.2-0.2-0.5-0.5-0.8-0.8c-0.2-0.3-0.5-0.6-0.8-0.8c-0.3-0.2-0.8-0.3-1.3-0.3c-0.6,0-1,0.1-1.4,0.4
			s-0.6,0.6-0.6,0.9s0.1,0.6,0.4,0.8s0.6,0.4,1.1,0.5s1.1,0.3,1.9,0.5c1,0.2,1.8,0.5,2.4,0.9c0.6,0.3,1.1,0.7,1.4,1.2
			C826.9,118.7,827,119.2,827,119.8z"/>
		<path class="st9" d="M829.8,111.3h0.3v-1.9c0-0.5,0-0.9,0-1.2s0.1-0.5,0.2-0.8c0.1-0.2,0.3-0.4,0.5-0.5s0.5-0.2,0.8-0.2
			c0.4,0,0.8,0.2,1.1,0.5c0.2,0.2,0.3,0.5,0.4,0.7c0.1,0.3,0.1,0.7,0.1,1.2v2.2h1.1c0.4,0,0.8,0.1,1,0.3c0.2,0.2,0.3,0.5,0.3,0.8
			c0,0.4-0.2,0.7-0.5,0.9c-0.3,0.2-0.8,0.3-1.4,0.3h-0.6v5.9c0,0.5,0,0.9,0.1,1.2s0.1,0.5,0.3,0.7c0.1,0.2,0.4,0.3,0.7,0.3
			c0.2,0,0.4,0,0.7-0.1s0.6-0.1,0.7-0.1c0.3,0,0.5,0.1,0.7,0.3s0.3,0.5,0.3,0.8c0,0.5-0.3,0.9-0.8,1.2c-0.5,0.3-1.3,0.4-2.4,0.4
			c-1,0-1.7-0.2-2.2-0.5s-0.8-0.8-1-1.4s-0.2-1.4-0.2-2.4v-6.1h-0.4c-0.4,0-0.8-0.1-1-0.3s-0.4-0.5-0.4-0.8s0.1-0.6,0.4-0.8
			S829.3,111.3,829.8,111.3z"/>
		<path class="st9" d="M846.6,118.3h-6.1c0,0.7,0.2,1.4,0.4,1.9s0.6,1,1.1,1.3s1,0.4,1.5,0.4c0.4,0,0.7,0,1-0.1s0.6-0.2,0.9-0.4
			c0.3-0.2,0.6-0.4,0.8-0.6s0.6-0.5,0.9-0.9c0.2-0.1,0.4-0.2,0.7-0.2s0.6,0.1,0.8,0.3c0.2,0.2,0.3,0.4,0.3,0.8c0,0.3-0.1,0.6-0.3,1
			s-0.6,0.8-1,1.1s-1,0.7-1.7,0.9s-1.4,0.4-2.3,0.4c-2,0-3.6-0.6-4.7-1.8c-1.1-1.2-1.7-2.8-1.7-4.8c0-0.9,0.1-1.8,0.4-2.6
			s0.7-1.5,1.2-2.1s1.2-1,1.9-1.3s1.6-0.5,2.6-0.5c1.2,0,2.3,0.3,3.1,0.8s1.5,1.2,2,2c0.4,0.8,0.7,1.7,0.7,2.6
			c0,0.8-0.2,1.3-0.7,1.6S847.4,118.3,846.6,118.3z M840.5,116.5h5.6c-0.1-1.1-0.4-1.9-0.9-2.5c-0.5-0.5-1.2-0.8-2-0.8
			s-1.4,0.3-1.9,0.8S840.6,115.4,840.5,116.5z"/>
		<path class="st9" d="M854.9,119.4v2.7c0,0.6-0.1,1.1-0.4,1.5c-0.3,0.3-0.7,0.5-1.1,0.5c-0.4,0-0.8-0.2-1.1-0.5s-0.4-0.8-0.4-1.5
			v-8.9c0-1.4,0.5-2.2,1.5-2.2c0.5,0,0.9,0.2,1.1,0.5c0.2,0.3,0.4,0.8,0.4,1.5c0.4-0.7,0.8-1.2,1.1-1.5s0.9-0.5,1.6-0.5
			s1.3,0.2,1.9,0.5c0.6,0.3,0.9,0.8,0.9,1.3c0,0.4-0.1,0.7-0.4,1c-0.3,0.3-0.5,0.4-0.8,0.4c-0.1,0-0.4-0.1-0.8-0.2
			c-0.4-0.1-0.8-0.2-1.2-0.2c-0.5,0-0.8,0.1-1.1,0.4c-0.3,0.2-0.5,0.6-0.7,1.1s-0.3,1.1-0.3,1.7
			C854.9,117.6,854.9,118.4,854.9,119.4z"/>
		<path class="st9" d="M777.1,141.6h-3.4V153c0,0.7-0.1,1.1-0.4,1.5c-0.3,0.3-0.7,0.5-1.1,0.5c-0.5,0-0.8-0.2-1.1-0.5
			s-0.4-0.8-0.4-1.5v-11.4h-3.4c-0.5,0-0.9-0.1-1.2-0.4c-0.3-0.2-0.4-0.6-0.4-1s0.1-0.7,0.4-1c0.3-0.2,0.7-0.4,1.2-0.4h9.9
			c0.5,0,0.9,0.1,1.2,0.4c0.3,0.2,0.4,0.6,0.4,1s-0.1,0.7-0.4,1C778,141.5,777.6,141.6,777.1,141.6z"/>
		<path class="st9" d="M791,149c0,0.9-0.1,1.7-0.4,2.4s-0.6,1.4-1.1,1.9s-1.1,0.9-1.8,1.2s-1.5,0.4-2.4,0.4s-1.6-0.1-2.3-0.4
			s-1.3-0.7-1.8-1.2s-0.9-1.2-1.1-1.9c-0.3-0.7-0.4-1.5-0.4-2.4s0.1-1.7,0.4-2.4s0.6-1.4,1.1-1.9s1.1-0.9,1.8-1.2s1.5-0.4,2.3-0.4
			c0.9,0,1.6,0.1,2.4,0.4c0.7,0.3,1.3,0.7,1.8,1.2s0.9,1.2,1.1,1.9C790.9,147.3,791,148.1,791,149z M788.2,149
			c0-1.2-0.3-2.1-0.8-2.8s-1.2-1-2.1-1c-0.6,0-1,0.1-1.5,0.4c-0.4,0.3-0.8,0.7-1,1.3s-0.3,1.3-0.3,2c0,0.8,0.1,1.4,0.3,2
			s0.5,1,1,1.3c0.4,0.3,0.9,0.5,1.5,0.5c0.9,0,1.6-0.3,2.1-1C787.9,151.1,788.2,150.2,788.2,149z"/>
		<path class="st9" d="M795.9,144.7v0.4c0.5-0.7,1.1-1.2,1.7-1.5c0.6-0.3,1.2-0.5,2-0.5c0.9,0,1.7,0.2,2.4,0.7s1.3,1.1,1.8,2
			s0.6,2,0.6,3.2c0,0.9-0.1,1.7-0.4,2.5c-0.2,0.8-0.6,1.4-1,1.9s-0.9,0.9-1.5,1.2s-1.2,0.4-1.9,0.4c-0.8,0-1.5-0.2-2.1-0.5
			s-1.1-0.8-1.6-1.5v4.4c0,1.3-0.5,1.9-1.4,1.9c-0.5,0-0.9-0.2-1.1-0.5c-0.2-0.3-0.3-0.8-0.3-1.5v-12.7c0-0.6,0.1-1,0.4-1.3
			c0.2-0.3,0.6-0.4,1-0.4s0.7,0.1,1,0.4C795.8,143.8,795.9,144.2,795.9,144.7z M801.5,149c0-0.8-0.1-1.4-0.3-2s-0.5-1-1-1.3
			c-0.4-0.3-0.9-0.4-1.4-0.4c-0.8,0-1.5,0.3-2,1s-0.8,1.6-0.8,2.8s0.3,2.1,0.8,2.7s1.2,1,2,1c0.5,0,0.9-0.1,1.3-0.4
			c0.4-0.3,0.7-0.7,1-1.3S801.5,149.8,801.5,149z"/>
		<path class="st9" d="M806.6,153.2v-12.7c0-0.6,0.1-1,0.4-1.3c0.3-0.3,0.6-0.5,1-0.5s0.8,0.1,1,0.4c0.3,0.3,0.4,0.7,0.4,1.3v12.7
			c0,0.6-0.1,1-0.4,1.3c-0.3,0.3-0.6,0.4-1,0.4s-0.8-0.2-1-0.5C806.8,154.2,806.6,153.8,806.6,153.2z"/>
		<path class="st9" d="M820.4,149.7h-5.6c0,0.7,0.1,1.3,0.4,1.8c0.3,0.5,0.6,0.9,1,1.1c0.4,0.3,0.9,0.4,1.4,0.4c0.3,0,0.7,0,0.9-0.1
			c0.3-0.1,0.6-0.2,0.8-0.4c0.3-0.2,0.5-0.4,0.7-0.6s0.5-0.5,0.9-0.8c0.1-0.1,0.4-0.2,0.6-0.2c0.3,0,0.5,0.1,0.7,0.2
			c0.2,0.2,0.3,0.4,0.3,0.7s-0.1,0.6-0.3,0.9c-0.2,0.4-0.5,0.7-0.9,1s-0.9,0.6-1.5,0.8s-1.3,0.3-2.1,0.3c-1.8,0-3.3-0.5-4.3-1.6
			s-1.5-2.5-1.5-4.4c0-0.9,0.1-1.7,0.4-2.4c0.3-0.7,0.6-1.4,1.1-1.9s1.1-0.9,1.8-1.2s1.5-0.4,2.3-0.4c1.1,0,2.1,0.2,2.9,0.7
			c0.8,0.5,1.4,1.1,1.8,1.9c0.4,0.8,0.6,1.5,0.6,2.3c0,0.7-0.2,1.2-0.6,1.4C821.7,149.6,821.2,149.7,820.4,149.7z M814.8,148.1h5.2
			c-0.1-1-0.3-1.8-0.8-2.3s-1.1-0.7-1.8-0.7s-1.3,0.3-1.8,0.8C815.2,146.3,814.9,147.1,814.8,148.1z"/>
		<path class="st9" d="M832.4,153.3c-0.7,0.6-1.4,1-2,1.2c-0.6,0.3-1.4,0.4-2.2,0.4c-0.7,0-1.4-0.1-1.9-0.4c-0.6-0.3-1-0.7-1.3-1.2
			s-0.4-1.1-0.4-1.7c0-0.8,0.2-1.5,0.7-2.1s1.2-0.9,2-1.1c0.2,0,0.6-0.1,1.3-0.3s1.3-0.3,1.8-0.4s1.1-0.3,1.7-0.5
			c0-0.8-0.2-1.3-0.5-1.7s-0.8-0.5-1.7-0.5c-0.7,0-1.3,0.1-1.6,0.3c-0.4,0.2-0.7,0.5-0.9,0.9c-0.3,0.4-0.4,0.7-0.6,0.8
			c-0.1,0.1-0.3,0.2-0.7,0.2c-0.3,0-0.6-0.1-0.8-0.3s-0.3-0.5-0.3-0.8c0-0.5,0.2-1,0.5-1.5c0.4-0.5,0.9-0.9,1.7-1.2s1.7-0.5,2.8-0.5
			c1.3,0,2.2,0.2,3,0.5c0.7,0.3,1.2,0.8,1.5,1.4c0.3,0.7,0.4,1.5,0.4,2.6c0,0.7,0,1.3,0,1.8s0,1,0,1.6s0.1,1.1,0.3,1.7
			s0.3,1,0.3,1.2c0,0.3-0.1,0.6-0.4,0.8c-0.3,0.2-0.6,0.4-0.9,0.4c-0.3,0-0.6-0.1-0.9-0.4C833,154.3,832.7,153.9,832.4,153.3z
			 M832.2,149.1c-0.4,0.2-1,0.3-1.8,0.5s-1.3,0.3-1.7,0.4c-0.3,0.1-0.6,0.2-0.9,0.5c-0.3,0.2-0.4,0.6-0.4,1s0.2,0.8,0.5,1.1
			s0.8,0.5,1.3,0.5c0.6,0,1.1-0.1,1.6-0.4s0.8-0.6,1-1c0.3-0.4,0.4-1.2,0.4-2.2L832.2,149.1L832.2,149.1z"/>
		<path class="st9" d="M840.7,150.8v2.4c0,0.6-0.1,1-0.4,1.3c-0.3,0.3-0.6,0.4-1,0.4s-0.7-0.2-1-0.5s-0.4-0.7-0.4-1.3v-8.2
			c0-1.3,0.5-2,1.4-2c0.5,0,0.8,0.2,1,0.5s0.3,0.8,0.3,1.4c0.3-0.6,0.7-1.1,1-1.4c0.4-0.3,0.8-0.5,1.4-0.5c0.6,0,1.2,0.2,1.7,0.5
			c0.6,0.3,0.8,0.7,0.8,1.2c0,0.4-0.1,0.7-0.4,0.9c-0.2,0.2-0.5,0.3-0.8,0.3c-0.1,0-0.4-0.1-0.8-0.2c-0.4-0.1-0.8-0.2-1.1-0.2
			c-0.4,0-0.8,0.1-1,0.3c-0.3,0.2-0.5,0.6-0.6,1s-0.2,1-0.3,1.6C840.7,149.1,840.7,149.9,840.7,150.8z"/>
		<path class="st9" d="M849.8,144.7v0.4c0.5-0.7,1.1-1.2,1.6-1.5c0.6-0.3,1.3-0.5,2.1-0.5s1.4,0.2,2,0.5s1,0.8,1.3,1.4
			c0.2,0.4,0.3,0.7,0.4,1.2s0.1,0.9,0.1,1.6v5.5c0,0.6-0.1,1-0.4,1.3c-0.3,0.3-0.6,0.5-1,0.5s-0.8-0.2-1-0.5s-0.4-0.7-0.4-1.3v-4.9
			c0-1-0.1-1.7-0.4-2.2c-0.3-0.5-0.8-0.8-1.6-0.8c-0.5,0-1,0.2-1.4,0.5s-0.7,0.7-0.9,1.3c-0.1,0.4-0.2,1.3-0.2,2.4v3.7
			c0,0.6-0.1,1-0.4,1.3c-0.3,0.3-0.6,0.4-1,0.4s-0.7-0.2-1-0.5s-0.4-0.7-0.4-1.3v-8.5c0-0.6,0.1-1,0.4-1.3c0.2-0.3,0.6-0.4,1-0.4
			c0.3,0,0.5,0.1,0.7,0.2s0.4,0.3,0.5,0.5S849.8,144.3,849.8,144.7z"/>
	</g>
	<g>
		<path class="st9" d="M770.2,116.4H769v5.5c0,0.7-0.2,1.3-0.5,1.6s-0.7,0.5-1.2,0.5s-1-0.2-1.3-0.5c-0.3-0.4-0.4-0.9-0.4-1.6v-13.2
			c0-0.8,0.2-1.3,0.5-1.6c0.3-0.3,0.9-0.5,1.6-0.5h5.5c0.8,0,1.4,0,1.9,0.1s1,0.2,1.5,0.4c0.5,0.2,1,0.6,1.4,1s0.7,0.9,0.9,1.5
			s0.3,1.2,0.3,1.8c0,1.3-0.4,2.3-1.1,3.1c-0.7,0.8-1.8,1.3-3.2,1.6c0.6,0.3,1.2,0.8,1.7,1.5s1,1.3,1.5,2c0.4,0.7,0.8,1.4,1,2
			s0.4,1,0.4,1.2s-0.1,0.5-0.2,0.7s-0.3,0.4-0.6,0.5s-0.5,0.2-0.8,0.2c-0.4,0-0.7-0.1-1-0.3s-0.5-0.4-0.7-0.7s-0.4-0.7-0.8-1.2
			l-1.4-2.3c-0.5-0.9-0.9-1.5-1.3-1.9s-0.8-0.8-1.2-0.9S770.8,116.4,770.2,116.4z M772.1,109.2H769v4.7h3c0.8,0,1.5-0.1,2.1-0.2
			s1-0.4,1.3-0.7c0.3-0.3,0.4-0.8,0.4-1.4c0-0.5-0.1-0.9-0.4-1.3s-0.6-0.6-1-0.8C774.1,109.2,773.3,109.2,772.1,109.2z"/>
		<path class="st9" d="M790.9,118.3h-6.1c0,0.7,0.2,1.4,0.4,1.9s0.6,1,1.1,1.3s1,0.4,1.5,0.4c0.4,0,0.7,0,1-0.1s0.6-0.2,0.9-0.4
			c0.3-0.2,0.6-0.4,0.8-0.6s0.6-0.5,0.9-0.9c0.2-0.1,0.4-0.2,0.7-0.2s0.6,0.1,0.8,0.3c0.2,0.2,0.3,0.4,0.3,0.8c0,0.3-0.1,0.6-0.3,1
			s-0.6,0.8-1,1.1s-1,0.7-1.7,0.9s-1.4,0.4-2.3,0.4c-2,0-3.6-0.6-4.7-1.8c-1.1-1.2-1.7-2.8-1.7-4.8c0-0.9,0.1-1.8,0.4-2.6
			s0.7-1.5,1.2-2.1s1.2-1,1.9-1.3s1.6-0.5,2.6-0.5c1.2,0,2.3,0.3,3.1,0.8s1.5,1.2,2,2c0.4,0.8,0.7,1.7,0.7,2.6
			c0,0.8-0.2,1.3-0.7,1.6S791.7,118.3,790.9,118.3z M784.8,116.5h5.6c-0.1-1.1-0.4-1.9-0.9-2.5c-0.5-0.5-1.2-0.8-2-0.8
			s-1.4,0.3-1.9,0.8S784.9,115.4,784.8,116.5z"/>
		<path class="st9" d="M807.5,113.3v9.3c0,1.1-0.1,2-0.3,2.7c-0.2,0.8-0.6,1.4-1.1,1.9s-1.1,0.9-1.9,1.1c-0.8,0.2-1.8,0.4-2.9,0.4
			c-1.1,0-2-0.2-2.9-0.5c-0.8-0.3-1.5-0.7-1.9-1.2s-0.7-1-0.7-1.5c0-0.4,0.1-0.7,0.4-1c0.3-0.2,0.6-0.4,0.9-0.4
			c0.5,0,0.9,0.2,1.2,0.6c0.2,0.2,0.3,0.4,0.5,0.6s0.4,0.4,0.6,0.6s0.5,0.3,0.8,0.3c0.3,0.1,0.7,0.1,1,0.1c0.8,0,1.4-0.1,1.9-0.3
			c0.4-0.2,0.8-0.6,0.9-1s0.3-0.9,0.3-1.3s0.1-1.2,0.1-2.3c-0.5,0.7-1,1.2-1.7,1.6s-1.4,0.5-2.2,0.5c-1,0-2-0.3-2.7-0.8
			s-1.4-1.3-1.8-2.3s-0.6-2.1-0.6-3.4c0-1,0.1-1.8,0.4-2.6c0.3-0.8,0.6-1.4,1.1-2c0.5-0.5,1-0.9,1.6-1.2c0.6-0.3,1.3-0.4,2-0.4
			c0.9,0,1.6,0.2,2.3,0.5c0.6,0.3,1.2,0.9,1.8,1.6v-0.4c0-0.6,0.1-1,0.4-1.3c0.3-0.3,0.6-0.5,1-0.5c0.6,0,1,0.2,1.2,0.6
			C807.4,112,807.5,112.6,807.5,113.3z M798.5,117.4c0,1.3,0.3,2.3,0.8,2.9s1.3,1,2.1,1c0.5,0,1-0.1,1.5-0.4s0.8-0.7,1.1-1.3
			c0.3-0.6,0.4-1.3,0.4-2.1c0-1.3-0.3-2.3-0.8-3s-1.3-1.1-2.2-1.1s-1.6,0.3-2.1,1S798.5,116.1,798.5,117.4z"/>
		<path class="st9" d="M812.2,109.5c-0.4,0-0.8-0.1-1.1-0.4s-0.5-0.7-0.5-1.2s0.2-0.8,0.5-1.1s0.7-0.4,1.1-0.4
			c0.4,0,0.8,0.1,1.1,0.4s0.5,0.7,0.5,1.2s-0.2,0.9-0.5,1.2C813,109.4,812.7,109.5,812.2,109.5z M813.8,112.8v9.2
			c0,0.6-0.1,1.1-0.4,1.5c-0.3,0.3-0.7,0.5-1.1,0.5s-0.8-0.2-1.1-0.5s-0.4-0.8-0.4-1.4v-9.2c0-0.6,0.1-1.1,0.4-1.4
			c0.3-0.3,0.7-0.5,1.1-0.5s0.8,0.2,1.1,0.5C813.6,111.8,813.8,112.2,813.8,112.8z"/>
		<path class="st9" d="M827,119.8c0,0.9-0.2,1.6-0.6,2.3s-1,1.1-1.9,1.4c-0.8,0.3-1.8,0.5-3,0.5c-1.1,0-2.1-0.2-2.9-0.5
			s-1.4-0.8-1.8-1.3s-0.6-1.1-0.6-1.6c0-0.4,0.1-0.7,0.4-0.9s0.6-0.4,0.9-0.4c0.3,0,0.6,0.1,0.8,0.2s0.3,0.4,0.5,0.7
			c0.3,0.6,0.7,1,1.1,1.3c0.4,0.3,1,0.4,1.8,0.4c0.6,0,1.1-0.1,1.5-0.4s0.6-0.6,0.6-1c0-0.6-0.2-1-0.6-1.2s-1.1-0.5-2-0.7
			c-1.1-0.3-1.9-0.6-2.6-0.9s-1.2-0.7-1.6-1.2c-0.4-0.5-0.6-1.1-0.6-1.8c0-0.6,0.2-1.2,0.6-1.8c0.4-0.6,0.9-1,1.6-1.4
			s1.6-0.5,2.6-0.5c0.8,0,1.5,0.1,2.2,0.3c0.6,0.2,1.2,0.4,1.6,0.7s0.8,0.6,1,1s0.3,0.7,0.3,1c0,0.4-0.1,0.7-0.4,0.9s-0.6,0.4-1,0.4
			c-0.3,0-0.6-0.1-0.8-0.3c-0.2-0.2-0.5-0.5-0.8-0.8c-0.2-0.3-0.5-0.6-0.8-0.8c-0.3-0.2-0.8-0.3-1.3-0.3c-0.6,0-1,0.1-1.4,0.4
			s-0.6,0.6-0.6,0.9s0.1,0.6,0.4,0.8s0.6,0.4,1.1,0.5s1.1,0.3,1.9,0.5c1,0.2,1.8,0.5,2.4,0.9c0.6,0.3,1.1,0.7,1.4,1.2
			C826.9,118.7,827,119.2,827,119.8z"/>
		<path class="st9" d="M829.8,111.3h0.3v-1.9c0-0.5,0-0.9,0-1.2s0.1-0.5,0.2-0.8c0.1-0.2,0.3-0.4,0.5-0.5s0.5-0.2,0.8-0.2
			c0.4,0,0.8,0.2,1.1,0.5c0.2,0.2,0.3,0.5,0.4,0.7c0.1,0.3,0.1,0.7,0.1,1.2v2.2h1.1c0.4,0,0.8,0.1,1,0.3c0.2,0.2,0.3,0.5,0.3,0.8
			c0,0.4-0.2,0.7-0.5,0.9c-0.3,0.2-0.8,0.3-1.4,0.3h-0.6v5.9c0,0.5,0,0.9,0.1,1.2s0.1,0.5,0.3,0.7c0.1,0.2,0.4,0.3,0.7,0.3
			c0.2,0,0.4,0,0.7-0.1s0.6-0.1,0.7-0.1c0.3,0,0.5,0.1,0.7,0.3s0.3,0.5,0.3,0.8c0,0.5-0.3,0.9-0.8,1.2c-0.5,0.3-1.3,0.4-2.4,0.4
			c-1,0-1.7-0.2-2.2-0.5s-0.8-0.8-1-1.4s-0.2-1.4-0.2-2.4v-6.1h-0.4c-0.4,0-0.8-0.1-1-0.3s-0.4-0.5-0.4-0.8s0.1-0.6,0.4-0.8
			S829.3,111.3,829.8,111.3z"/>
		<path class="st9" d="M846.6,118.3h-6.1c0,0.7,0.2,1.4,0.4,1.9s0.6,1,1.1,1.3s1,0.4,1.5,0.4c0.4,0,0.7,0,1-0.1s0.6-0.2,0.9-0.4
			c0.3-0.2,0.6-0.4,0.8-0.6s0.6-0.5,0.9-0.9c0.2-0.1,0.4-0.2,0.7-0.2s0.6,0.1,0.8,0.3c0.2,0.2,0.3,0.4,0.3,0.8c0,0.3-0.1,0.6-0.3,1
			s-0.6,0.8-1,1.1s-1,0.7-1.7,0.9s-1.4,0.4-2.3,0.4c-2,0-3.6-0.6-4.7-1.8c-1.1-1.2-1.7-2.8-1.7-4.8c0-0.9,0.1-1.8,0.4-2.6
			s0.7-1.5,1.2-2.1s1.2-1,1.9-1.3s1.6-0.5,2.6-0.5c1.2,0,2.3,0.3,3.1,0.8s1.5,1.2,2,2c0.4,0.8,0.7,1.7,0.7,2.6
			c0,0.8-0.2,1.3-0.7,1.6S847.4,118.3,846.6,118.3z M840.5,116.5h5.6c-0.1-1.1-0.4-1.9-0.9-2.5c-0.5-0.5-1.2-0.8-2-0.8
			s-1.4,0.3-1.9,0.8S840.6,115.4,840.5,116.5z"/>
		<path class="st9" d="M854.9,119.4v2.7c0,0.6-0.1,1.1-0.4,1.5c-0.3,0.3-0.7,0.5-1.1,0.5c-0.4,0-0.8-0.2-1.1-0.5s-0.4-0.8-0.4-1.5
			v-8.9c0-1.4,0.5-2.2,1.5-2.2c0.5,0,0.9,0.2,1.1,0.5c0.2,0.3,0.4,0.8,0.4,1.5c0.4-0.7,0.8-1.2,1.1-1.5s0.9-0.5,1.6-0.5
			s1.3,0.2,1.9,0.5c0.6,0.3,0.9,0.8,0.9,1.3c0,0.4-0.1,0.7-0.4,1c-0.3,0.3-0.5,0.4-0.8,0.4c-0.1,0-0.4-0.1-0.8-0.2
			c-0.4-0.1-0.8-0.2-1.2-0.2c-0.5,0-0.8,0.1-1.1,0.4c-0.3,0.2-0.5,0.6-0.7,1.1s-0.3,1.1-0.3,1.7
			C854.9,117.6,854.9,118.4,854.9,119.4z"/>
		<path class="st9" d="M777.1,141.6h-3.4V153c0,0.7-0.1,1.1-0.4,1.5c-0.3,0.3-0.7,0.5-1.1,0.5c-0.5,0-0.8-0.2-1.1-0.5
			s-0.4-0.8-0.4-1.5v-11.4h-3.4c-0.5,0-0.9-0.1-1.2-0.4c-0.3-0.2-0.4-0.6-0.4-1s0.1-0.7,0.4-1c0.3-0.2,0.7-0.4,1.2-0.4h9.9
			c0.5,0,0.9,0.1,1.2,0.4c0.3,0.2,0.4,0.6,0.4,1s-0.1,0.7-0.4,1C778,141.5,777.6,141.6,777.1,141.6z"/>
		<path class="st9" d="M791,149c0,0.9-0.1,1.7-0.4,2.4s-0.6,1.4-1.1,1.9s-1.1,0.9-1.8,1.2s-1.5,0.4-2.4,0.4s-1.6-0.1-2.3-0.4
			s-1.3-0.7-1.8-1.2s-0.9-1.2-1.1-1.9c-0.3-0.7-0.4-1.5-0.4-2.4s0.1-1.7,0.4-2.4s0.6-1.4,1.1-1.9s1.1-0.9,1.8-1.2s1.5-0.4,2.3-0.4
			c0.9,0,1.6,0.1,2.4,0.4c0.7,0.3,1.3,0.7,1.8,1.2s0.9,1.2,1.1,1.9C790.9,147.3,791,148.1,791,149z M788.2,149
			c0-1.2-0.3-2.1-0.8-2.8s-1.2-1-2.1-1c-0.6,0-1,0.1-1.5,0.4c-0.4,0.3-0.8,0.7-1,1.3s-0.3,1.3-0.3,2c0,0.8,0.1,1.4,0.3,2
			s0.5,1,1,1.3c0.4,0.3,0.9,0.5,1.5,0.5c0.9,0,1.6-0.3,2.1-1C787.9,151.1,788.2,150.2,788.2,149z"/>
		<path class="st9" d="M795.9,144.7v0.4c0.5-0.7,1.1-1.2,1.7-1.5c0.6-0.3,1.2-0.5,2-0.5c0.9,0,1.7,0.2,2.4,0.7s1.3,1.1,1.8,2
			s0.6,2,0.6,3.2c0,0.9-0.1,1.7-0.4,2.5c-0.2,0.8-0.6,1.4-1,1.9s-0.9,0.9-1.5,1.2s-1.2,0.4-1.9,0.4c-0.8,0-1.5-0.2-2.1-0.5
			s-1.1-0.8-1.6-1.5v4.4c0,1.3-0.5,1.9-1.4,1.9c-0.5,0-0.9-0.2-1.1-0.5c-0.2-0.3-0.3-0.8-0.3-1.5v-12.7c0-0.6,0.1-1,0.4-1.3
			c0.2-0.3,0.6-0.4,1-0.4s0.7,0.1,1,0.4C795.8,143.8,795.9,144.2,795.9,144.7z M801.5,149c0-0.8-0.1-1.4-0.3-2s-0.5-1-1-1.3
			c-0.4-0.3-0.9-0.4-1.4-0.4c-0.8,0-1.5,0.3-2,1s-0.8,1.6-0.8,2.8s0.3,2.1,0.8,2.7s1.2,1,2,1c0.5,0,0.9-0.1,1.3-0.4
			c0.4-0.3,0.7-0.7,1-1.3S801.5,149.8,801.5,149z"/>
		<path class="st9" d="M806.6,153.2v-12.7c0-0.6,0.1-1,0.4-1.3c0.3-0.3,0.6-0.5,1-0.5s0.8,0.1,1,0.4c0.3,0.3,0.4,0.7,0.4,1.3v12.7
			c0,0.6-0.1,1-0.4,1.3c-0.3,0.3-0.6,0.4-1,0.4s-0.8-0.2-1-0.5C806.8,154.2,806.6,153.8,806.6,153.2z"/>
		<path class="st9" d="M820.4,149.7h-5.6c0,0.7,0.1,1.3,0.4,1.8c0.3,0.5,0.6,0.9,1,1.1c0.4,0.3,0.9,0.4,1.4,0.4c0.3,0,0.7,0,0.9-0.1
			c0.3-0.1,0.6-0.2,0.8-0.4c0.3-0.2,0.5-0.4,0.7-0.6s0.5-0.5,0.9-0.8c0.1-0.1,0.4-0.2,0.6-0.2c0.3,0,0.5,0.1,0.7,0.2
			c0.2,0.2,0.3,0.4,0.3,0.7s-0.1,0.6-0.3,0.9c-0.2,0.4-0.5,0.7-0.9,1s-0.9,0.6-1.5,0.8s-1.3,0.3-2.1,0.3c-1.8,0-3.3-0.5-4.3-1.6
			s-1.5-2.5-1.5-4.4c0-0.9,0.1-1.7,0.4-2.4c0.3-0.7,0.6-1.4,1.1-1.9s1.1-0.9,1.8-1.2s1.5-0.4,2.3-0.4c1.1,0,2.1,0.2,2.9,0.7
			c0.8,0.5,1.4,1.1,1.8,1.9c0.4,0.8,0.6,1.5,0.6,2.3c0,0.7-0.2,1.2-0.6,1.4C821.7,149.6,821.2,149.7,820.4,149.7z M814.8,148.1h5.2
			c-0.1-1-0.3-1.8-0.8-2.3s-1.1-0.7-1.8-0.7s-1.3,0.3-1.8,0.8C815.2,146.3,814.9,147.1,814.8,148.1z"/>
		<path class="st9" d="M832.4,153.3c-0.7,0.6-1.4,1-2,1.2c-0.6,0.3-1.4,0.4-2.2,0.4c-0.7,0-1.4-0.1-1.9-0.4c-0.6-0.3-1-0.7-1.3-1.2
			s-0.4-1.1-0.4-1.7c0-0.8,0.2-1.5,0.7-2.1s1.2-0.9,2-1.1c0.2,0,0.6-0.1,1.3-0.3s1.3-0.3,1.8-0.4s1.1-0.3,1.7-0.5
			c0-0.8-0.2-1.3-0.5-1.7s-0.8-0.5-1.7-0.5c-0.7,0-1.3,0.1-1.6,0.3c-0.4,0.2-0.7,0.5-0.9,0.9c-0.3,0.4-0.4,0.7-0.6,0.8
			c-0.1,0.1-0.3,0.2-0.7,0.2c-0.3,0-0.6-0.1-0.8-0.3s-0.3-0.5-0.3-0.8c0-0.5,0.2-1,0.5-1.5c0.4-0.5,0.9-0.9,1.7-1.2s1.7-0.5,2.8-0.5
			c1.3,0,2.2,0.2,3,0.5c0.7,0.3,1.2,0.8,1.5,1.4c0.3,0.7,0.4,1.5,0.4,2.6c0,0.7,0,1.3,0,1.8s0,1,0,1.6s0.1,1.1,0.3,1.7
			s0.3,1,0.3,1.2c0,0.3-0.1,0.6-0.4,0.8c-0.3,0.2-0.6,0.4-0.9,0.4c-0.3,0-0.6-0.1-0.9-0.4C833,154.3,832.7,153.9,832.4,153.3z
			 M832.2,149.1c-0.4,0.2-1,0.3-1.8,0.5s-1.3,0.3-1.7,0.4c-0.3,0.1-0.6,0.2-0.9,0.5c-0.3,0.2-0.4,0.6-0.4,1s0.2,0.8,0.5,1.1
			s0.8,0.5,1.3,0.5c0.6,0,1.1-0.1,1.6-0.4s0.8-0.6,1-1c0.3-0.4,0.4-1.2,0.4-2.2L832.2,149.1L832.2,149.1z"/>
		<path class="st9" d="M840.7,150.8v2.4c0,0.6-0.1,1-0.4,1.3c-0.3,0.3-0.6,0.4-1,0.4s-0.7-0.2-1-0.5s-0.4-0.7-0.4-1.3v-8.2
			c0-1.3,0.5-2,1.4-2c0.5,0,0.8,0.2,1,0.5s0.3,0.8,0.3,1.4c0.3-0.6,0.7-1.1,1-1.4c0.4-0.3,0.8-0.5,1.4-0.5c0.6,0,1.2,0.2,1.7,0.5
			c0.6,0.3,0.8,0.7,0.8,1.2c0,0.4-0.1,0.7-0.4,0.9c-0.2,0.2-0.5,0.3-0.8,0.3c-0.1,0-0.4-0.1-0.8-0.2c-0.4-0.1-0.8-0.2-1.1-0.2
			c-0.4,0-0.8,0.1-1,0.3c-0.3,0.2-0.5,0.6-0.6,1s-0.2,1-0.3,1.6C840.7,149.1,840.7,149.9,840.7,150.8z"/>
		<path class="st9" d="M849.8,144.7v0.4c0.5-0.7,1.1-1.2,1.6-1.5c0.6-0.3,1.3-0.5,2.1-0.5s1.4,0.2,2,0.5s1,0.8,1.3,1.4
			c0.2,0.4,0.3,0.7,0.4,1.2s0.1,0.9,0.1,1.6v5.5c0,0.6-0.1,1-0.4,1.3c-0.3,0.3-0.6,0.5-1,0.5s-0.8-0.2-1-0.5s-0.4-0.7-0.4-1.3v-4.9
			c0-1-0.1-1.7-0.4-2.2c-0.3-0.5-0.8-0.8-1.6-0.8c-0.5,0-1,0.2-1.4,0.5s-0.7,0.7-0.9,1.3c-0.1,0.4-0.2,1.3-0.2,2.4v3.7
			c0,0.6-0.1,1-0.4,1.3c-0.3,0.3-0.6,0.4-1,0.4s-0.7-0.2-1-0.5s-0.4-0.7-0.4-1.3v-8.5c0-0.6,0.1-1,0.4-1.3c0.2-0.3,0.6-0.4,1-0.4
			c0.3,0,0.5,0.1,0.7,0.2s0.4,0.3,0.5,0.5S849.8,144.3,849.8,144.7z"/>
	</g>
	<path class="st10" d="M775.1,202.5h74c4.4,0,8-3.6,8-8l0,0c0-4.4-3.6-8-8-8h-74c-4.4,0-8,3.6-8,8l0,0
		C767.1,198.9,770.7,202.5,775.1,202.5z"/>
	<path class="st10" d="M776.1,230.5h74c4.4,0,8-3.6,8-8l0,0c0-4.4-3.6-8-8-8h-74c-4.4,0-8,3.6-8,8l0,0
		C768.1,226.9,771.7,230.5,776.1,230.5z"/>
	<path class="st11" d="M775.5,264.5h44.7c3.5,0,6.4-2.9,6.4-6.4v-3.2c0-3.5-2.9-6.4-6.4-6.4h-44.7c-3.5,0-6.4,2.9-6.4,6.4v3.2
		C769.1,261.6,772,264.5,775.5,264.5z"/>
</g>
<path class="st12" d="M765.6-187.8l-6.6-2.4c-5.4-2-9.6-6.2-11.6-11.6l-2.4-6.6c-0.1-0.3-0.3-0.4-0.6-0.4s-0.5,0.2-0.6,0.4l-2.4,6.6
	c-2,5.4-6.2,9.6-11.6,11.6l-6.6,2.4c-0.3,0.1-0.4,0.3-0.4,0.6s0.2,0.5,0.4,0.6l6.6,2.4c5.4,2,9.6,6.2,11.6,11.6l2.4,6.6
	c0.1,0.2,0.3,0.4,0.6,0.4s0.5-0.2,0.6-0.4l2.4-6.6c2-5.4,6.2-9.6,11.6-11.6l6.6-2.4c0.3-0.1,0.4-0.3,0.4-0.6
	C766-187.4,765.9-187.7,765.6-187.8L765.6-187.8z"/>
<path class="st12" d="M795.4-200.4l-4-1.5c-3.2-1.2-5.7-3.7-6.9-6.9l-1.5-4c-0.1-0.1-0.2-0.2-0.4-0.2s-0.3,0.1-0.4,0.2l-1.5,4
	c-1.2,3.2-3.7,5.7-6.9,6.9l-4,1.5c-0.1,0.1-0.2,0.2-0.2,0.4s0.1,0.3,0.2,0.4l4,1.5c3.2,1.2,5.7,3.7,6.9,6.9l1.5,4
	c0.1,0.1,0.2,0.2,0.4,0.2s0.3-0.1,0.4-0.2l1.5-4c1.2-3.2,3.7-5.7,6.9-6.9l4-1.5c0.1-0.1,0.2-0.2,0.2-0.4S795.5-200.4,795.4-200.4
	L795.4-200.4z"/>
<path class="st13" d="M953.6-9l-3.6-1.3c-2.9-1.1-5.2-3.3-6.2-6.2l-1.3-3.6c0-0.1-0.2-0.2-0.3-0.2s-0.3,0.1-0.3,0.2l-1.3,3.6
	c-1.1,2.9-3.3,5.2-6.2,6.2L930.8-9c-0.1,0-0.2,0.2-0.2,0.3s0.1,0.3,0.2,0.3l3.6,1.3c2.9,1.1,5.2,3.4,6.2,6.2l1.3,3.6
	c0,0.1,0.2,0.2,0.3,0.2s0.3-0.1,0.3-0.2l1.3-3.6c1.1-2.9,3.4-5.2,6.2-6.2l3.6-1.3c0.1,0,0.2-0.2,0.2-0.3C953.9-8.9,953.8-9,953.6-9
	L953.6-9z"/>
<circle class="st14" cx="395.4" cy="-222.3" r="9.2"/>
<circle class="st12" cx="542.6" cy="-184.3" r="5.6"/>
<circle class="st15" cx="451.4" cy="-181.4" r="8.7"/>
<circle class="st16" cx="929.6" cy="113.6" r="10.6"/>
<circle class="st17" cx="586.4" cy="426.2" r="12.6"/>
<path class="st18" d="M339,312c0-14.8,12.7-15.3,14.1-15.3h0.1c0.8,0,1.5-0.7,1.5-1.6c0-0.8-0.7-1.5-1.5-1.5l0,0l0,0
	c-1.4,0-14.1-0.5-14.1-15.3c0-0.8-0.7-1.5-1.5-1.5s-1.5,0.7-1.5,1.5c0,14.8-12.7,15.3-14.1,15.3l0,0l0,0c-0.1,0-0.1,0-0.1,0
	c-0.8,0.1-1.4,0.7-1.4,1.5s0.7,1.5,1.5,1.5l0,0c1.5,0,14.1,0.5,14.1,15.3c0,0.8,0.7,1.5,1.5,1.5C338.3,313.5,339,312.8,339,312z
	 M329,295.1c3.4-1.4,6.6-4.1,8.5-8.4c1.9,4.5,5.3,6.9,8.5,8.4c-3.4,1.4-6.6,4.1-8.5,8.4C335.6,298.9,332.2,296.5,329,295.1z"/>
<circle class="st12" cx="360.3" cy="378.2" r="5.6"/>
<g>
	<path class="st19" d="M589.4,144.8c-47.1,0-85.3-38.3-85.2-85.4c0.1-47.1,38.3-85.3,85.4-85.2c7.4,0,14.8,1,21.9,2.9l-1.4,5.2
		c-42.6-11.4-86.4,13.9-97.8,56.5s13.9,86.4,56.5,97.8s86.4-13.9,97.8-56.5c3.6-13.3,3.6-27.3,0.2-40.7l5.2-1.3
		c11.8,45.6-15.6,92.2-61.3,104.1C603.8,143.9,596.6,144.8,589.4,144.8z"/>
	<rect x="538.9" y="110.3" class="st8" width="101" height="4.4"/>
	<path class="st19" d="M528.1,56.8h-5.3c0-36.8,29.9-66.6,66.6-66.6v5.3C555.6-4.4,528.2,23,528.1,56.8z"/>
	<g>
		<path class="st20" d="M653.7,28.2c-17.7,0-32-14.3-32-32s14.3-32,32-32s32,14.3,32,32C685.7,13.8,671.4,28.2,653.7,28.2z
			 M653.7-30.5C639-30.5,627-18.6,627-3.8s11.9,26.7,26.7,26.7c14.7,0,26.7-11.9,26.7-26.7C680.4-18.5,668.5-30.5,653.7-30.5z"/>
		<rect x="651.1" y="-19.8" class="st20" width="5.3" height="32"/>
		<rect x="637.8" y="-6.5" class="st20" width="32" height="5.3"/>
	</g>
</g>
<path class="st8" d="M577.1,37.3C577.1,37.2,577.1,37.2,577.1,37.3c2.5-0.5,7.4-1,12.4-0.7c5.9,0.4,10.1,1.9,12.7,4.4
	c0.7,0.7,1.9,0.7,2.7,0c0.7-0.7,0.7-1.9,0-2.7c-7.1-7.1-22.1-5.8-28.2-4.9c-1.9,0.3-3.3,1.9-3.3,3.9v4.3c0,1,0.8,1.9,1.9,1.9
	s1.9-0.8,1.9-1.9L577.1,37.3L577.1,37.3z"/>
<path class="st8" d="M618.9,84.3l-11.6-4.2c0-0.5-0.1-1-0.5-1.4l-3.5-3.7v-6.2c0.4-0.3,0.7-0.6,1.1-1c4.4-4.2,7-10,7-16.1v-5
	c1.3-2.9,2-6,2-9.2V17.3c0-1-0.8-1.9-1.9-1.9h-28.2c-9.9,0-18,8.1-18,18v4c0,3.2,0.7,6.3,2,9.2v4.3c0,7.1,3.1,13.4,8.1,17.6v6.3
	l-3.5,3.7c-0.4,0.4-0.6,0.9-0.5,1.4l-11.6,4.2c-3.9,1.4-6.6,5.2-6.6,9.4V108c0,1,0.8,1.9,1.9,1.9c1.1,0,1.9-0.8,1.9-1.9V93.5
	c0-2.6,1.6-4.9,4.1-5.8l12.2-4.5l5.1,7.6c0.7,1,1.7,1.6,2.9,1.7c0.1,0,0.3,0,0.4,0c1,0,2-0.4,2.8-1.1l3.1-3.1V108
	c0,1,0.8,1.9,1.9,1.9s1.9-0.8,1.9-1.9V88.3l3.1,3.1c0.7,0.7,1.7,1.1,2.8,1.1c0.1,0,0.3,0,0.4,0c1.2-0.1,2.2-0.7,2.9-1.7l5.1-7.6
	l12.2,4.5c2.4,0.9,4.1,3.2,4.1,5.8V108c0,1,0.8,1.9,1.9,1.9c1.1,0,1.9-0.8,1.9-1.9V93.5C625.5,89.5,622.9,85.8,618.9,84.3z M571,51
	v-4.7c0-0.3-0.1-0.6-0.2-0.8c-1.2-2.5-1.8-5.2-1.8-7.9v-4c0-7.9,6.4-14.3,14.3-14.3h26.3v18.3c0,2.7-0.6,5.4-1.8,7.9
	c-0.1,0.3-0.2,0.5-0.2,0.8v5.4c0,5.1-2.1,9.9-5.8,13.3c-3.7,3.5-8.6,5.2-13.7,4.9C578.5,69.4,571,61,571,51z M587.8,73.8
	c0.5,0,1,0,1.5,0c3.6,0,7.1-0.9,10.2-2.5v3.4l-10.2,7l-10.2-7v-3.5C581.7,72.7,584.7,73.5,587.8,73.8z M581.6,89L581.6,89
	c-0.2,0-0.2,0-0.2-0.1l-5.9-8.8l1.9-2l8.9,6.1L581.6,89z M597.2,89C597.2,89,597.1,89,597.2,89c-0.2,0.1-0.2,0-0.2,0l-4.7-4.7
	l8.9-6.1l1.9,2L597.2,89z"/>
<path class="st8" d="M567.1,98.3c-1,0-1.9,0.8-1.9,1.9v8.1c0,1,0.8,1.9,1.9,1.9s1.9-0.8,1.9-1.9v-8.1
	C569,99.1,568.2,98.3,567.1,98.3z"/>
<path class="st8" d="M611.5,98.3c-1,0-1.9,0.8-1.9,1.9v8.1c0,1,0.8,1.9,1.9,1.9c1,0,1.9-0.8,1.9-1.9v-8.1
	C613.4,99.1,612.5,98.3,611.5,98.3z"/>
</svg>
